<?xml version="1.0" encoding="UTF-8"?>
<!DOCTYPE svg PUBLIC "-//W3C//DTD SVG 1.0//EN" "http://www.w3.org/TR/2001/REC-SVG-20010904/DTD/svg10.dtd">
<!-- Creator: CorelDRAW 2026 -->
<svg xmlns="http://www.w3.org/2000/svg" xml:space="preserve" width="199px" height="199px" version="1.0" style="shape-rendering:geometricPrecision; text-rendering:geometricPrecision; image-rendering:optimizeQuality; fill-rule:evenodd; clip-rule:evenodd"
viewBox="0 0 65.71 65.83"
 xmlns:xlink="http://www.w3.org/1999/xlink"
 xmlns:xodm="http://www.corel.com/coreldraw/odm/2003">
 <defs>
  <style type="text/css">
   <![CDATA[
    .fil1 {fill:#018A49}
    .fil2 {fill:#2C3884}
    .fil0 {fill:#D0272F}
    .fil3 {fill:#DBDBDB}
   ]]>
  </style>
 </defs>
 <g id="Camada_x0020_1">
  <metadata id="CorelCorpID_0Corel-Layer"/>
  <path class="fil0" d="M49.32 61.45c-0.45,0.07 -1.89,0.49 -2.9,0.67 -6.98,1.21 -14.59,0.25 -20.6,-3.17 -0.79,-0.45 -1.46,-0.9 -2.16,-1.39 -1.92,-1.32 -4.02,-3.4 -5.42,-5.2 -1.83,-2.33 -3.86,-5.77 -4.81,-9.42 -2.28,-8.77 -0.92,-16.34 3.44,-22.71 0.68,-1 1,-1.25 1.56,-1.98 0.17,-0.21 0.26,-0.26 0.44,-0.45l3.16 -3.04c2.57,-2.38 -0.68,-3.62 -5.13,-1.7 -1.72,0.74 -3.22,1.72 -4.46,2.68 -0.33,0.26 -0.7,0.52 -0.98,0.79 -0.31,0.29 -0.66,0.53 -0.95,0.82 -2.01,1.97 -3.15,3.01 -4.87,5.76 -5.84,9.32 -5.85,20.73 0.89,29.51 0.52,0.68 1.01,1.36 1.59,2.01 0.08,0.08 0.13,0.12 0.21,0.21 0.08,0.09 0.12,0.16 0.21,0.26 0.13,0.17 0.29,0.28 0.44,0.45 0.29,0.33 0.53,0.6 0.86,0.91 4.5,4.2 9.72,7.3 16.14,8.65 5.95,1.24 12.75,0.92 18.5,-1.34 1.08,-0.42 2.66,-1.08 3.67,-1.63l0.88 -0.48c0.17,-0.1 0.18,-0.09 0.29,-0.21z"/>
  <path class="fil1" d="M59.28 24.14c-0.01,8.33 -3.34,15.73 -7.36,20.4 -0.28,0.33 -0.47,0.58 -0.81,0.9 -0.29,0.29 -0.52,0.6 -0.82,0.89 -4.68,4.63 -10.32,7.03 -17.41,7.04 -1.71,0 -3.51,-0.28 -5.08,-0.66 -1.07,-0.26 -3.66,-1.31 -4.62,-0.97 -1.25,0.44 -0.22,2.02 0.31,2.69 0.25,0.31 0.45,0.48 0.73,0.75 2.96,2.91 8.17,4.61 12.27,5 6.83,0.67 13,-0.55 18.34,-4.47 1.16,-0.84 2.17,-1.77 3.03,-2.69 0.47,-0.51 0.91,-0.97 1.37,-1.53 4.17,-5.19 6.48,-11.8 6.48,-19.67 -0.01,-7.43 -2.73,-14.63 -7,-20.05 -0.18,-0.24 -0.35,-0.44 -0.55,-0.68 -1.12,-1.36 -2.97,-3.21 -4.4,-4.22 -0.39,-0.28 -1.02,-0.83 -1.43,-1.01l1.34 1.75c0.45,0.62 0.89,1.22 1.3,1.89 2.6,4.22 4.31,9.39 4.31,14.64z"/>
  <path class="fil2" d="M0.76 26.11c0.04,-0.04 0.05,-0.04 0.09,-0.11l0.46 -0.96c1.42,-2.83 3.81,-6.08 6.16,-8.19l0.84 -0.76c1.21,-1.1 3.21,-2.44 4.72,-3.3 5.82,-3.34 13.56,-4.75 20.98,-2.7 1.71,0.47 3.16,1.03 4.67,1.71 2.65,1.21 4.2,2.36 6.31,4.01l1.69 1.51c0.09,0.1 0.08,0.11 0.19,0.21 0.1,0.09 0.13,0.1 0.22,0.2 0.28,0.28 0.45,0.52 0.76,0.83 1.34,1.42 3,4.11 3.73,5.89 0.32,0.8 0.58,1.51 0.83,2.36 0.23,0.82 0.44,1.76 0.8,2.45 1.21,2.36 4.02,-0.49 2.5,-7.89 -1.5,-7.33 -5.44,-12.61 -9.59,-15.95 -4.95,-3.98 -11.49,-6.4 -19.74,-4.91 -7.17,1.3 -13.18,5.28 -16.63,8.94 -0.15,0.16 -0.22,0.21 -0.4,0.37l-1.86 2.15c-0.26,0.33 -0.46,0.59 -0.69,0.9l-1.32 1.87c-1.37,2.12 -2.3,3.89 -3.29,6.34 -0.45,1.12 -1.31,3.77 -1.43,5.03z"/>
  <path class="fil3" d="M52.96 29.65c0.04,1.15 0.18,2.15 0.12,3.35 -0.06,1.09 -0.17,2.14 -0.36,3.19 -0.35,1.91 -0.93,3.72 -1.68,5.34 -1.06,2.25 -2.6,4.6 -4.3,6.2l-1.89 1.68c0.98,-0.33 3.79,-2.7 4.65,-3.64 0.21,-0.23 0.41,-0.38 0.61,-0.62 0.35,-0.41 0.74,-0.84 1.08,-1.28 0.19,-0.24 0.35,-0.41 0.53,-0.66 0.96,-1.31 1.5,-2.12 2.36,-3.61 2.19,-3.8 4.07,-9.71 4.06,-14.93 0,-5.77 -1.7,-11.12 -4.61,-15.86 -0.68,-1.12 -1.64,-2.38 -2.55,-3.29 -3.01,-3.01 -10.93,-5.53 -15.09,-5.52l2.86 0.75c0.95,0.31 1.72,0.6 2.62,0.98 1.86,0.78 4.12,2.21 5.57,3.4l1.47 1.25 2.2 2.28c0.88,1.11 1.49,1.79 2.33,3.1 2.93,4.6 5.26,11.18 3.64,16.96 -0.26,0.9 -0.64,1.88 -1.39,2.2 -1.08,0.46 -1.74,-0.74 -2.23,-1.27z"/>
  <path class="fil3" d="M60.13 51.2l-2.23 2.44c-0.17,0.17 -0.31,0.3 -0.48,0.47 -0.85,0.83 -2.23,1.95 -3.18,2.6 -0.77,0.51 -1.52,0.97 -2.38,1.46 -3.71,2.13 -8.21,2.89 -12.54,2.83 -5.17,-0.06 -10.8,-1.87 -14.49,-4.72 -1.29,-1 -3.04,-2.51 -3.56,-4.11 -0.19,-0.57 -0.19,-1.09 0.21,-1.42 0.44,-0.35 1.05,-0.2 1.6,-0.12l-2.02 -1.45c-0.67,-0.54 -1.33,-1.1 -1.87,-1.66l-1.61 -1.88c-2.29,-3.11 -3.58,-5.86 -4.24,-9.8 -0.18,-1.12 -0.22,-2.09 -0.34,-3.21 -0.1,0.15 -0.11,0.37 -0.12,0.55 -0.02,0.21 -0.04,0.42 -0.05,0.64 -0.04,0.45 -0.04,0.91 -0.05,1.36 -0.03,2.05 0.5,5.41 1.06,7.24 1.21,3.95 3.11,7.81 5.77,10.7 0.12,0.13 0.17,0.23 0.29,0.36l1 1.06c0.47,0.45 0.96,0.84 1.45,1.33 0.6,0.58 2.46,1.89 3.17,2.31 1.17,0.71 2.32,1.3 3.69,1.86 2.65,1.1 5.85,1.77 8.99,2 3.08,0.22 7.22,0.03 10.01,-0.79 3.35,-1 4.93,-2.26 6.95,-4.03 0.54,-0.47 2.12,-2.16 2.66,-2.83l1.76 -2.37c0.18,-0.25 0.39,-0.62 0.55,-0.82z"/>
  <path class="fil3" d="M0.96 40.11c-0.03,-1.19 -0.16,-2.22 -0.12,-3.46 0.03,-1.08 0.14,-2.17 0.29,-3.24 0.85,-5.74 4.01,-11.49 7.8,-15.22 2.14,-2.12 4.32,-3.96 7.16,-5.24 1.69,-0.76 3.63,-1.44 5.76,-1.34 0.96,0.05 2.35,0.15 2.33,1.2 -0.01,0.52 -0.29,0.87 -0.57,1.17 -0.3,0.33 -0.53,0.66 -0.86,0.94 1.35,-0.5 1.77,-1.02 4.11,-1.7 3.51,-1.03 6.85,-1.15 10.43,-0.45 0.84,0.16 1.55,0.36 2.34,0.62l2.11 0.84c-0.96,-0.92 -5,-2.59 -6.51,-3.05 -2.66,-0.82 -5.57,-1.15 -8.54,-1.11 -6.76,0.1 -13.5,2.76 -18.37,6.8l-1.88 1.72c-0.76,0.76 -1.49,1.61 -2.24,2.54 -0.64,0.81 -1.38,2.01 -1.9,2.94 -2.24,4.01 -2.59,7.32 -2.12,11.94 0.08,0.72 0.17,1.42 0.3,2.12 0.06,0.3 0.27,1.7 0.48,1.98z"/>
 </g>
</svg>
