<?xml version="1.0" encoding="UTF-8"?>
<!DOCTYPE svg PUBLIC "-//W3C//DTD SVG 1.0//EN" "http://www.w3.org/TR/2001/REC-SVG-20010904/DTD/svg10.dtd">
<!-- Creator: CorelDRAW 2026 -->
<svg xmlns="http://www.w3.org/2000/svg" xml:space="preserve" width="199px" height="78px" version="1.0" style="shape-rendering:geometricPrecision; text-rendering:geometricPrecision; image-rendering:optimizeQuality; fill-rule:evenodd; clip-rule:evenodd"
viewBox="0 0 70.42 27.66"
 xmlns:xlink="http://www.w3.org/1999/xlink"
 xmlns:xodm="http://www.corel.com/coreldraw/odm/2003">
 <defs>
  <style type="text/css">
   <![CDATA[
    .fil5 {fill:#00894A}
    .fil0 {fill:#008B4C}
    .fil4 {fill:#008C4B}
    .fil15 {fill:#008F4E}
    .fil14 {fill:#009150}
    .fil17 {fill:#018A4E}
    .fil16 {fill:#028D4E}
    .fil3 {fill:#2D3985}
    .fil6 {fill:#CE2831}
    .fil1 {fill:#D02932}
    .fil7 {fill:#D5D5D7}
    .fil12 {fill:#E6E7E7}
    .fil13 {fill:#F6FCFA}
    .fil9 {fill:#FAC31F}
    .fil2 {fill:#FAFBFC}
    .fil11 {fill:#FBFDFD}
    .fil8 {fill:#FCFDFD}
    .fil10 {fill:#FDFEFD}
   ]]>
  </style>
 </defs>
 <g id="Camada_x0020_1">
  <metadata id="CorelCorpID_0Corel-Layer"/>
  <path class="fil0" d="M44.53 18.79c-0.02,-0.12 -0.02,-2.09 0,-2.17l0.42 0c0,0.01 0,0.01 0,0.02l0.02 0.25c0,0.37 0.02,1.76 -0.01,1.91l-0.43 -0.01zm3.01 -0.13c0,-0.38 -0.02,-1.95 0.01,-2.04l0.41 0.01c0.02,0.03 0.02,0.08 0.02,0.12 0,0.39 0.02,1.93 -0.01,2.05l-0.42 -0.01 -0.01 -0.13zm2.43 0.13c0.01,-0.07 0.39,-1.02 0.44,-1.17l0.34 -0.87c0.03,-0.08 0.02,-0.12 0.09,-0.13l0.42 0c0.05,0.07 0.85,2.11 0.86,2.18 -0.63,0 -0.43,0.07 -0.65,-0.5l-0.85 0c-0.07,0.13 -0.12,0.36 -0.19,0.5l-0.46 -0.01zm-11.82 0c0,-0.06 0.65,-1.75 0.78,-2.07 0.06,-0.15 0.1,-0.1 0.29,-0.1 0.22,-0.01 0.2,-0.04 0.26,0.14 0.04,0.11 0.08,0.18 0.12,0.28 0.1,0.26 0.68,1.7 0.68,1.76l-0.45 -0.01c-0.08,-0.1 -0.14,-0.35 -0.2,-0.49l-0.85 0.01c-0.08,0.12 -0.12,0.35 -0.19,0.49l-0.44 -0.01zm17.19 -2.2c0.66,-0.1 1.14,0.36 1.19,0.96 0.05,0.71 -0.23,1.18 -0.88,1.27 -0.64,0.09 -1.13,-0.26 -1.19,-0.96 -0.05,-0.65 0.2,-1.16 0.88,-1.27zm-18.77 2.2c-0.02,-0.04 -0.02,-0.04 -0.02,-0.13 0,-0.05 0,-0.1 0,-0.15 0.01,-0.33 -0.02,-1.8 0.02,-1.89 0.24,-0.02 0.79,-0.02 1.03,0.01 0.35,0.03 0.52,0.17 0.59,0.47 0.08,0.36 -0.06,0.64 -0.27,0.76 -0.31,0.19 -0.86,0.06 -0.92,0.12 -0.05,0.13 0.02,0.63 -0.02,0.82l-0.41 -0.01zm3.94 -1.79c0,-0.05 0,-0.33 0.01,-0.35 0.02,-0.05 0.05,-0.04 0.13,-0.03 0.33,0 1.01,-0.03 1.26,0.05 0.51,0.17 0.51,1 -0.05,1.14l-0.11 0.03c0,-0.01 -0.01,0 -0.01,0.01 0.13,0.15 0.13,0 0.4,0.43l0.24 0.39c0.03,0.05 0.06,0.06 0.06,0.12 -0.1,0.01 -0.21,0.01 -0.31,0.01 -0.12,0 -0.18,0.02 -0.24,-0.06 -0.19,-0.26 -0.43,-0.78 -0.66,-0.84 -0.28,-0.07 -0.27,0.02 -0.27,0.1 0,0.04 0,0.07 0,0.11 0,0.08 0,0.15 0,0.23 0,0.14 0.01,0.33 -0.01,0.46l-0.34 0c-0.05,-0.01 -0.06,-0.01 -0.08,-0.03 -0.03,-0.04 -0.02,-1.61 -0.02,-1.77zm7.9 1.79c-0.04,-0.1 -0.01,-0.4 -0.01,-0.54 -0.01,-0.25 -0.02,-1.55 0.01,-1.63 0.21,-0.03 0.81,-0.01 1.03,0 0.33,0.03 0.53,0.19 0.59,0.47 0.08,0.36 -0.04,0.63 -0.25,0.76 -0.27,0.17 -0.6,0.1 -0.94,0.12l-0.01 0.81c-0.06,0.04 -0.39,0.02 -0.42,0.01zm8.47 -1.75c0,-0.11 -0.01,-0.22 -0.01,-0.32 0,-0.09 -0.02,-0.09 0.06,-0.1l1.11 0c0.43,0 0.45,-0.05 0.45,0.11 0,0.08 0.01,0.18 -0.01,0.24 -0.04,0.04 -1.03,-0.02 -1.16,0.02l0 0.33c0,0.19 0.02,0.15 0.35,0.15l0.74 0 -0.01 0.37 -1.07 0.01 0 0.58c0.22,0 1.12,-0.02 1.19,0.01 0.02,0.08 0.02,0.28 0,0.34 -0.09,0.04 -1.43,0.01 -1.63,0.01 -0.03,-0.09 -0.01,-1.47 -0.01,-1.75zm-3.96 1.75c-0.81,-0.29 -0.72,-1.42 -0.45,-1.79 0.33,-0.48 1,-0.57 1.44,-0.21 0.08,0.06 0.24,0.3 0.25,0.44 -0.06,0.02 -0.37,0.09 -0.44,0.1 -0.03,-0.06 -0.02,-0.1 -0.08,-0.18 -0.18,-0.28 -0.9,-0.39 -0.9,0.59 0.01,0.33 0.1,0.61 0.37,0.69 0.36,0.11 0.55,-0.15 0.61,-0.43 0.08,0 0.38,0.09 0.44,0.13 0,0.18 -0.16,0.38 -0.25,0.47 -0.24,0.22 -0.33,0.16 -0.49,0.23 0.04,0.07 -0.01,0 0.06,0.05 0.31,0.22 0.01,0.67 -0.66,0.5l0.01 -0.16c0.2,0.02 0.45,0.05 0.52,-0.12 -0.04,-0.18 -0.21,-0.11 -0.37,-0.12 0.01,-0.08 0.04,-0.1 0.07,-0.15l-0.13 -0.04zm-5.75 -0.67c-0.11,0.97 -1.87,1.06 -1.86,-0.4 0.01,-1.16 1.01,-1.3 1.49,-1.02 0.16,0.09 0.34,0.29 0.37,0.53l-0.43 0.09c-0.08,-0.17 -0.06,-0.22 -0.23,-0.31 -0.13,-0.07 -0.32,-0.06 -0.44,0 -0.26,0.12 -0.31,0.43 -0.3,0.77 0.01,0.68 0.51,0.8 0.81,0.57 0.09,-0.07 0.14,-0.21 0.18,-0.36l0.41 0.13zm-4.62 -1.14c-0.01,-0.09 -0.02,-0.28 0.01,-0.36 0.16,-0.01 1.63,-0.02 1.68,0.01 0.02,0.02 0.02,0.14 0.02,0.18 0,0.18 0.01,0.17 -0.17,0.17l-0.46 0.01c-0.06,-0.09 0.02,1.63 -0.02,1.81l-0.42 -0.01c-0.05,-0.17 0.03,-1.52 -0.02,-1.8 -0.11,-0.03 -0.47,0 -0.62,-0.01zm16.66 1.06c0.06,0.12 0.04,0.18 0.14,0.29 0.27,0.28 0.84,0.08 0.75,-0.23 -0.04,-0.17 -0.38,-0.2 -0.58,-0.26 -0.24,-0.07 -0.41,-0.13 -0.53,-0.29 -0.14,-0.18 -0.16,-0.47 -0.03,-0.66 0.27,-0.41 0.97,-0.36 1.24,-0.19 0.11,0.08 0.34,0.33 0.28,0.55l-0.42 0.02c-0.07,-0.19 -0.12,-0.37 -0.51,-0.31 -0.3,0.05 -0.36,0.31 -0.05,0.41 0.47,0.14 0.93,0.15 1.04,0.63 0.06,0.26 -0.06,0.5 -0.19,0.63 -0.29,0.26 -1.19,0.37 -1.48,-0.22 -0.03,-0.07 -0.08,-0.22 -0.07,-0.3l0.41 -0.07zm-4.19 -1.61c-0.04,-0.24 0.11,-0.39 0.36,-0.35 0.25,0.04 0.37,0.26 0.45,0l0.18 0.01c0.03,0.24 -0.11,0.4 -0.36,0.33 -0.09,-0.02 -0.16,-0.07 -0.25,-0.1 -0.18,-0.05 -0.15,0.05 -0.21,0.13l-0.17 -0.02zm-28.16 4.21c0.12,0.04 4.39,0.01 4.91,0.01 1.64,0.02 3.29,0 4.93,0 3.29,0.01 6.58,0 9.87,0 3.28,0.01 6.56,0.01 9.85,0l8.63 0c0.37,0 0.87,0.03 1.23,0l0 -5.82c-0.3,-0.03 -4.5,0 -4.91,0 -8.21,0.01 -16.44,0 -24.65,0 -1.64,-0.01 -3.29,0 -4.93,-0.01 -0.5,0 -4.83,-0.02 -4.92,0.02l-0.01 5.8z"/>
  <path class="fil1" d="M32.23 20.86c-0.09,-0.05 -3.34,-0.01 -3.75,-0.01 -0.25,-0.01 -0.37,0.13 -0.66,0.27l-1.23 0.65c-0.21,0.11 -0.42,0.21 -0.63,0.32 -0.42,0.22 -0.84,0.41 -1.27,0.61 -0.44,0.21 -0.87,0.38 -1.32,0.57 -0.44,0.2 -0.9,0.35 -1.36,0.53 -2.01,0.8 -5.58,1.64 -7.71,1.73 -1.29,0.06 -2.17,-0.06 -3.27,-0.47 -0.97,-0.37 -1.87,-0.94 -2.67,-1.58l-0.5 -0.44c-0.4,-0.38 -0.46,-0.46 -0.81,-0.84l-0.33 -0.4c-0.51,-0.65 -1,-1.46 -1.37,-2.39 -0.79,-2 -0.84,-4.37 -0.22,-6.5 0.33,-1.13 0.93,-2.25 1.62,-3.09l0.45 -0.49c0.09,-0.08 0.15,-0.15 0.24,-0.22l0.25 -0.23c0.05,-0.05 0.08,-0.06 0.12,-0.11 0.25,-0.24 0.76,-0.56 0.74,-0.91 -0.01,-0.23 -0.32,-0.36 -0.58,-0.38 -1.1,-0.1 -2.47,0.75 -3.29,1.4 -0.09,0.06 -0.19,0.14 -0.27,0.21l-1.3 1.29c-0.2,0.2 -0.57,0.7 -0.73,0.92 -0.52,0.7 -1,1.6 -1.34,2.43 -0.39,0.97 -0.6,2.04 -0.57,3.2 0.02,1.15 0.33,2.14 0.72,3.06 0.37,0.85 0.93,1.74 1.41,2.36 0.27,0.36 0.38,0.48 0.64,0.77l0.23 0.25c0.2,0.24 0.51,0.5 0.71,0.7l0.76 0.64c0.66,0.52 0.98,0.72 1.71,1.14 0.78,0.45 1.72,0.83 2.66,1.12 2.18,0.68 4.37,0.74 6.72,0.34 3.16,-0.54 5.68,-1.46 8.57,-2.75 0.44,-0.2 0.86,-0.39 1.3,-0.59 1.02,-0.49 2.16,-1.02 3.17,-1.53 0.21,-0.1 0.44,-0.22 0.64,-0.31 0.44,-0.2 0.83,-0.42 1.26,-0.63 0.38,-0.18 0.86,-0.45 1.18,-0.6l0.08 -0.04z"/>
  <path class="fil2" d="M68.21 14.83c0.29,-0.02 0.67,0 0.98,0 0.23,0 0.77,-0.03 0.97,0.01l0 5.81 -1.96 0 -1.45 0 0.01 -5.82 1.45 0zm-41.34 0.01c0.09,-0.04 4.42,-0.02 4.92,-0.02 1.64,0.01 3.29,0 4.93,0.01 8.21,0 16.44,0.01 24.65,0 0.41,0 4.61,-0.03 4.91,0l0 5.82c-0.36,0.03 -0.86,0 -1.23,0l-8.63 0c-3.29,0.01 -6.57,0.01 -9.85,0 -3.29,0 -6.58,0.01 -9.87,0 -1.64,0 -3.29,0.02 -4.93,0 -0.52,0 -4.79,0.03 -4.91,-0.01l0.01 -5.8zm-21.28 3.56c0.11,0.18 0.22,0.41 0.33,0.6 0.12,0.19 0.25,0.37 0.37,0.54 0.06,0.1 0.13,0.18 0.2,0.27l0.31 0.37c0.04,0.05 0.07,0.07 0.11,0.11l0.36 0.36c0.05,0.04 0.06,0.07 0.11,0.11l0.25 0.21c0.33,0.28 0.72,0.51 1.11,0.73 0.22,0.12 0.21,0.13 0.46,0.22 0.08,0.03 0.1,0.03 0.15,0.09 -0.23,0 -0.42,0.03 -0.5,0.18 -0.23,0.45 0.69,1.22 1.03,1.46 0.5,0.36 0.8,0.52 1.39,0.78 1.32,0.58 3.28,0.69 4.73,0.53 0.79,-0.08 1.51,-0.25 2.23,-0.48 0.68,-0.22 1.28,-0.52 1.85,-0.85 0.33,-0.19 0.93,-0.59 1.21,-0.83l0.36 -0.31c0.19,-0.16 0.24,-0.23 0.35,-0.34 0.25,-0.22 0.29,-0.29 0.49,-0.52 0.11,-0.12 0.21,-0.22 0.3,-0.36 0.05,-0.06 0.1,-0.15 0.17,-0.19 -0.03,0.09 -0.09,0.15 -0.14,0.23 -0.05,0.08 -0.09,0.14 -0.14,0.22 -0.2,0.34 -0.89,1.29 -1.2,1.6l-0.33 0.37c-0.07,0.06 -0.13,0.11 -0.19,0.16 -0.07,0.07 -0.1,0.13 -0.17,0.19 -0.06,0.06 -0.13,0.1 -0.19,0.16 -0.05,0.04 -0.12,0.11 -0.19,0.14 -0.13,0.07 -0.91,0.26 -1.1,0.31 -1.95,0.48 -4.04,0.99 -6.07,0.9 -0.91,-0.04 -1.52,-0.17 -2.29,-0.49 -0.51,-0.21 -1.39,-0.67 -1.81,-0.98l-1.08 -0.85c-0.04,-0.04 -0.04,-0.05 -0.09,-0.09 -0.04,-0.03 -0.29,-0.32 -0.3,-0.37 -0.04,-0.03 -0.14,-0.12 -0.19,-0.16 -0.02,-0.02 -0.01,-0.02 -0.04,-0.04l-0.27 -0.28c-0.07,-0.06 -0.1,-0.09 -0.16,-0.16 -0.12,-0.16 -0.08,-0.07 -0.16,-0.24 -0.02,-0.05 0.02,0.01 -0.02,-0.03l-0.04 -0.04c0,0 -0.01,-0.01 -0.01,-0.02 -0.01,0 -0.01,0 -0.01,-0.01l-0.05 -0.04c-0.08,-0.1 -0.11,-0.18 -0.15,-0.22 -0.16,-0.17 -0.44,-0.64 -0.56,-0.86 -0.43,-0.75 -0.7,-1.43 -0.91,-2.27 -0.18,-0.69 -0.19,-0.94 -0.27,-1.66 -0.04,-0.4 0,-0.86 0.01,-1.26 0.06,0.05 0.02,-0.01 0.05,0.06l0.06 0.84c0.07,0.49 0.19,1.06 0.36,1.53 0.09,0.24 0.2,0.46 0.28,0.68zm6.3 -10.79c0.2,-0.04 0.67,-0.01 0.91,-0.01 0.85,0 1.58,0.11 2.36,0.4 0.81,0.3 1.6,0.93 2.18,1.51 0.16,0.16 0.31,0.31 0.46,0.48l0.21 0.25c0.05,0.05 0.06,0.07 0.1,0.12 0.04,0.05 0.07,0.08 0.11,0.13 0.07,0.1 0.13,0.17 0.2,0.27 0.06,0.09 0.11,0.19 0.18,0.28 0.65,0.92 1.12,2.32 1.12,3.48 0,0.61 0.01,1.18 -0.08,1.77 -0.07,0.5 -0.22,1.01 -0.38,1.47 -0.3,0.85 -0.65,1.39 -1.16,2.06 -0.16,0.22 -0.68,0.77 -0.9,0.95 -0.18,0.16 -0.61,0.46 -0.81,0.58 -0.19,0.12 -0.39,0.21 -0.6,0.31 -1.81,0.91 -4.27,0.97 -6.16,0.27 -0.79,-0.29 -1.18,-0.53 -1.8,-0.98 -0.27,-0.2 -0.5,-0.43 -0.74,-0.66 -0.15,-0.14 -0.5,-0.57 -0.63,-0.74 -0.26,-0.36 -0.48,-0.72 -0.7,-1.15 -0.21,-0.41 -0.37,-0.87 -0.5,-1.35 -0.06,-0.25 -0.12,-0.49 -0.16,-0.75l-0.08 -0.62c0,-0.08 0.01,-0.15 0,-0.22 -0.07,-0.55 0,-1.2 0.07,-1.74 0.06,-0.49 0.25,-1 0.41,-1.43 0.28,-0.74 0.8,-1.55 1.3,-2.15l0.56 -0.6 0.49 -0.43c1.05,-0.8 1.9,-1.15 3.21,-1.4 0.4,-0.08 0.58,-0.06 0.83,-0.1zm40.8 5.42c-0.03,-0.09 -0.02,-4.17 -0.02,-4.84 0.01,-0.53 -0.02,-1.09 0.01,-1.61l0.81 0.01c0.03,1.06 0,2.15 0,3.22 0,0.2 0.02,3.09 -0.01,3.22l-0.79 0zm-12.09 1.6c0.03,-0.04 0.33,-0.18 0.41,-0.21 0.14,-0.07 0.27,-0.15 0.42,-0.22 0.27,-0.14 0.56,-0.27 0.83,-0.42 0.28,-0.15 0.56,-0.28 0.85,-0.42 0.23,-0.11 0.2,-0.14 0.5,-0.13 0.53,0 1.3,0.01 1.78,-0.1 0.4,-0.09 0.6,-0.2 0.84,-0.41 0.28,-0.25 0.5,-0.59 0.61,-0.96 0.09,-0.34 -0.01,-0.26 0.25,-0.39 0.07,-0.03 0.14,-0.07 0.21,-0.07 0.05,0.17 0.04,0.29 0.11,0.46 0.14,0.4 0.22,0.56 0.5,0.87 0.04,0.05 0.09,0.09 0.12,0.14 -0.07,0.07 -0.63,0.33 -0.77,0.4 -0.27,0.12 -0.5,0.26 -0.76,0.39 -0.27,0.13 -0.51,0.26 -0.77,0.4l-1.16 0.58c-0.22,0.12 -0.21,0.09 -0.49,0.09 -0.38,0 -0.77,0 -1.16,0 -0.43,0 -2.03,0.03 -2.32,0zm8.84 -6.36c0.79,-0.06 1.49,0.27 1.87,0.73 0.03,0.04 0.09,0.12 0.12,0.16 0.27,0.42 0.37,0.8 0.4,1.34 0.03,0.85 -0.15,1.63 -0.75,2.12 -0.12,0.1 -0.2,0.15 -0.34,0.24 -0.23,0.14 -0.55,0.23 -0.88,0.27 -0.36,0.03 -0.69,-0.01 -1.01,-0.12 -0.91,-0.29 -1.37,-1.16 -1.39,-2.09 -0.02,-0.83 0.06,-1.28 0.46,-1.85 0.26,-0.37 0.83,-0.75 1.52,-0.8zm2.22 0.87c0.07,-0.05 0.72,-0.38 0.8,-0.39 0.02,0.08 0.03,1.7 0,1.8 -0.04,0.02 -0.41,0.2 -0.43,0.2 -0.02,-0.33 -0.02,-0.58 -0.09,-0.9 -0.09,-0.38 -0.26,-0.59 -0.28,-0.71zm3.55 2.37c0.07,0.3 0.12,0.5 0.29,0.67 0.45,0.45 1.84,0.41 1.93,-0.34 0.04,-0.34 -0.09,-0.48 -0.36,-0.58 -0.21,-0.09 -0.5,-0.16 -0.74,-0.22 -0.46,-0.12 -1.04,-0.27 -1.37,-0.51 -0.35,-0.26 -0.59,-0.81 -0.34,-1.39 0.43,-1.02 1.99,-1.02 2.69,-0.68 0.43,0.21 0.75,0.61 0.77,1.12 -0.06,0.03 -0.67,0.11 -0.77,0.11 -0.1,-0.3 -0.12,-0.46 -0.35,-0.61 -0.21,-0.14 -0.52,-0.17 -0.81,-0.16 -0.26,0.02 -0.59,0.11 -0.71,0.25 -0.18,0.19 -0.19,0.5 0,0.68 0.21,0.19 1.1,0.37 1.45,0.48 0.55,0.17 0.96,0.28 1.21,0.69 0.28,0.45 0.18,1.15 -0.14,1.48 -0.39,0.4 -0.67,0.55 -1.29,0.62 -0.64,0.06 -1.49,-0.1 -1.84,-0.52 -0.07,-0.08 -0.14,-0.18 -0.2,-0.28 -0.08,-0.13 -0.24,-0.54 -0.23,-0.7 0.06,-0.04 0.73,-0.12 0.81,-0.11zm-13.84 -4.91c0.1,-0.05 1.96,-0.02 2.24,-0.02 0.59,0 1.54,-0.02 1.99,0.25 0.12,0.07 0.24,0.17 0.33,0.24 0.28,0.26 0.51,0.76 0.48,1.19 -0.03,0.47 -0.22,0.86 -0.57,1.13 -0.1,0.08 -0.21,0.14 -0.33,0.2l0.06 0.04c0.01,0 0.04,0.01 0.06,0.02 1.49,0.49 1.36,2.23 0.37,3.01 -0.53,0.41 -1.39,0.36 -2.14,0.37 -0.42,0 -0.84,0 -1.25,0l-1.25 -0.01 0.01 -6.42zm-9.22 14.3c-0.32,0.15 -0.8,0.42 -1.18,0.6 -0.43,0.21 -0.82,0.43 -1.26,0.63 -0.2,0.09 -0.43,0.21 -0.64,0.31 -1.01,0.51 -2.15,1.04 -3.17,1.53 -0.44,0.2 -0.86,0.39 -1.3,0.59 -2.89,1.29 -5.41,2.21 -8.57,2.75 -2.35,0.4 -4.54,0.34 -6.72,-0.34 -0.94,-0.29 -1.88,-0.67 -2.66,-1.12 -0.73,-0.42 -1.05,-0.62 -1.71,-1.14l-0.76 -0.64c-0.2,-0.2 -0.51,-0.46 -0.71,-0.7l-0.23 -0.25c-0.26,-0.29 -0.37,-0.41 -0.64,-0.77 -0.48,-0.62 -1.04,-1.51 -1.41,-2.36 -0.39,-0.92 -0.7,-1.91 -0.72,-3.06 -0.03,-1.16 0.18,-2.23 0.57,-3.2 0.34,-0.83 0.82,-1.73 1.34,-2.43 0.16,-0.22 0.53,-0.72 0.73,-0.92l1.3 -1.29c0.08,-0.07 0.18,-0.15 0.27,-0.21 0.82,-0.65 2.19,-1.5 3.29,-1.4 0.26,0.02 0.57,0.15 0.58,0.38 0.02,0.35 -0.49,0.67 -0.74,0.91 -0.04,0.05 -0.07,0.06 -0.12,0.11l-0.25 0.23c-0.09,0.07 -0.15,0.14 -0.24,0.22l-0.45 0.49c-0.69,0.84 -1.29,1.96 -1.62,3.09 -0.62,2.13 -0.57,4.5 0.22,6.5 0.37,0.93 0.86,1.74 1.37,2.39l0.33 0.4c0.35,0.38 0.41,0.46 0.81,0.84l0.5 0.44c0.8,0.64 1.7,1.21 2.67,1.58 1.1,0.41 1.98,0.53 3.27,0.47 2.13,-0.09 5.7,-0.93 7.71,-1.73 0.46,-0.18 0.92,-0.33 1.36,-0.53 0.45,-0.19 0.88,-0.36 1.32,-0.57 0.43,-0.2 0.85,-0.39 1.27,-0.61 0.21,-0.11 0.42,-0.21 0.63,-0.32l1.23 -0.65c0.29,-0.14 0.41,-0.28 0.66,-0.27 0.41,0 3.66,-0.04 3.75,0.01l-0.08 0.04zm-31.84 -4.01c-0.06,-0.1 -0.15,-1.26 -0.16,-1.46 -0.01,-0.51 -0.02,-1.06 0.07,-1.55 0.13,-0.75 0.44,-1.4 0.79,-2.05 0.18,-0.34 0.58,-0.91 0.82,-1.2 0.4,-0.5 0.32,-0.37 0.77,-0.85 0.2,-0.21 0.64,-0.59 0.87,-0.75 1.74,-1.23 3.68,-2.06 5.84,-2.26 1.01,-0.1 2.13,-0.05 3.05,0.11 0.58,0.1 0.74,0.11 1.28,0.34 0.11,0.05 0.22,0.05 0.32,0.09 0.41,0.16 0.45,0.21 0.81,0.39 0,0 -0.01,0 -0.01,0l-0.02 0.01c0,0 -0.01,0 -0.01,0l-0.14 -0.04c-0.06,-0.02 -0.11,-0.04 -0.18,-0.05 -0.95,-0.19 -2.08,-0.22 -3.02,-0.1 -0.98,0.13 -1.66,0.35 -2.51,0.75 -0.1,0.05 -0.2,0.14 -0.31,0.15 0.05,-0.06 0.12,-0.09 0.17,-0.15 0.28,-0.28 0.56,-0.7 -0.02,-0.9 -0.15,-0.05 -0.39,-0.04 -0.57,-0.04 -0.44,0 -0.72,0.02 -1.11,0.14 -0.34,0.1 -0.61,0.18 -0.9,0.33 -0.15,0.08 -0.29,0.14 -0.42,0.22 -0.39,0.21 -0.44,0.28 -0.75,0.48 -0.5,0.33 -1.57,1.31 -1.96,1.78 -0.09,0.11 -0.18,0.23 -0.27,0.34 -0.06,0.06 -0.1,0.1 -0.15,0.17 -0.33,0.42 -0.6,0.83 -0.88,1.3 -0.17,0.27 -0.3,0.5 -0.44,0.8 -0.13,0.28 -0.27,0.57 -0.38,0.87 -0.21,0.51 -0.44,1.42 -0.5,1.97 -0.03,0.19 -0.05,0.37 -0.06,0.56 -0.01,0.12 0,0.54 -0.02,0.6zm0.04 -4.02c-0.01,-0.14 0.16,-0.83 0.2,-1 0.17,-0.62 0.36,-1.18 0.64,-1.76 0.24,-0.49 0.56,-1.11 0.86,-1.55 0.08,-0.12 0.16,-0.24 0.24,-0.36 0.14,-0.22 0.46,-0.63 0.64,-0.85 0.03,-0.04 0.04,-0.06 0.07,-0.09 0.04,-0.04 0.04,-0.04 0.07,-0.08 0.03,-0.04 0.1,-0.13 0.13,-0.16l0.29 -0.32c0.05,-0.05 0.1,-0.09 0.15,-0.14l0.46 -0.46c0.7,-0.61 0.98,-0.88 1.86,-1.43 1.18,-0.74 2.43,-1.31 3.82,-1.57 1.5,-0.29 2.86,-0.24 4.29,0.17 0.78,0.22 1.8,0.71 2.45,1.17 0.66,0.46 0.81,0.58 1.34,1.07 0.25,0.24 0.65,0.66 0.87,0.93 1.07,1.35 1.73,2.6 2.12,4.46 0.15,0.67 0.23,1.49 0.14,2.2 -0.15,1.02 -0.77,1.37 -1.08,0.84 -0.14,-0.24 -0.19,-0.65 -0.27,-0.95 -0.07,-0.31 -0.18,-0.61 -0.3,-0.89 -0.42,-1.01 -1,-1.75 -1.7,-2.51l-0.95 -0.85c-2.32,-1.85 -5.3,-2.75 -8.3,-2.22 -1.64,0.29 -2.99,0.91 -4.26,1.76 -0.12,0.08 -0.24,0.16 -0.35,0.25 -0.12,0.09 -0.23,0.17 -0.34,0.26l-0.48 0.41c-0.06,0.06 -0.1,0.1 -0.15,0.15 -0.18,0.17 -0.25,0.26 -0.38,0.38 -0.03,0.03 -0.04,0.04 -0.07,0.07 -0.05,0.06 -0.09,0.11 -0.14,0.16 -0.21,0.21 -0.62,0.75 -0.8,1 -0.32,0.44 -0.91,1.43 -1.07,1.91zm21.92 -0.73c0,-1.46 -0.35,-2.82 -0.85,-4 -0.19,-0.45 -0.56,-1.17 -0.84,-1.57l-0.49 -0.72c-0.1,-0.15 -0.48,-0.61 -0.51,-0.69 0.08,0.04 0.45,0.33 0.53,0.4l0.76 0.66c0.08,0.08 0.15,0.16 0.22,0.23 0.16,0.15 0.3,0.32 0.45,0.49 1.15,1.34 2.12,3.18 2.57,4.89 0.53,1.97 0.59,3.61 0.22,5.58 -0.13,0.67 -0.33,1.27 -0.56,1.86 -0.38,0.97 -1.17,2.15 -1.97,2.88 -0.19,0.17 -0.28,0.26 -0.48,0.43 -0.88,0.7 -1.32,0.98 -2.44,1.49 -1.09,0.49 -2.67,0.83 -4.02,0.83 -1.59,0 -3.33,-0.31 -4.42,-1.07 -0.27,-0.19 -0.95,-0.76 -0.87,-1.15 0.1,-0.55 1.12,-0.25 1.57,-0.2 0.42,0.04 0.87,0.07 1.29,0.07 1.43,0 2.94,-0.42 4.06,-0.96 0.72,-0.34 1.38,-0.74 1.95,-1.2 0.25,-0.2 0.77,-0.66 0.98,-0.9 0.05,-0.06 0.1,-0.1 0.15,-0.16 0.14,-0.16 0.3,-0.33 0.44,-0.51 0.48,-0.66 0.57,-0.78 0.98,-1.52 0.15,-0.27 0.28,-0.56 0.4,-0.85 0.58,-1.35 0.88,-2.68 0.88,-4.31zm-2.42 1.94c0.1,0.04 0.11,0.19 0.33,0.35 0.15,0.11 0.31,0.16 0.5,0.06 0.29,-0.14 0.42,-0.48 0.52,-0.85 0.2,-0.74 0.24,-1.68 0.11,-2.48 -0.34,-2.18 -1.35,-4 -2.76,-5.46 -0.34,-0.35 -1.06,-0.98 -1.5,-1.25 -0.14,-0.09 -0.27,-0.18 -0.42,-0.27 -0.31,-0.2 -1.01,-0.53 -1.37,-0.69 -0.16,-0.07 -0.33,-0.11 -0.5,-0.18l-1.06 -0.31c-0.09,-0.02 -0.49,-0.08 -0.56,-0.13 1.54,0.03 3.15,0.54 4.49,1.14 0.38,0.17 1,0.49 1.26,0.73 0.09,0.08 0.06,0.09 0.17,0.19 0.08,0.06 0.14,0.16 0.21,0.24 0.28,0.35 0.54,0.71 0.78,1.09 0.65,1.05 1.04,2.04 1.37,3.3 0.24,0.93 0.41,2.36 0.29,3.42 -0.07,0.56 -0.13,1.08 -0.27,1.6 -0.06,0.22 -0.12,0.53 -0.2,0.73l-0.12 0.35c-0.08,0.28 -0.26,0.75 -0.39,1.01 -0.4,0.85 -0.54,1.05 -1.02,1.78 -0.3,0.46 -0.91,1.11 -1.32,1.48 -0.09,0.07 -0.43,0.39 -0.52,0.42 0.02,-0.06 0.15,-0.2 0.24,-0.3 0.04,-0.04 0.08,-0.08 0.12,-0.14 0.18,-0.26 0.34,-0.45 0.52,-0.76 0.86,-1.46 1.17,-2.9 1.12,-4.6 0,-0.16 -0.02,-0.3 -0.02,-0.47zm47.75 -12.99c-0.08,-0.07 -0.25,-0.15 -0.35,-0.22l-0.7 -0.45c-0.07,-0.05 -0.29,-0.16 -0.33,-0.22 0.12,0 2.7,0.42 2.97,0.47 0.3,0.04 0.72,0.12 1.01,0.14 -0.03,0.1 -0.2,0.31 -0.26,0.42 -0.09,0.13 -0.18,0.27 -0.27,0.4 -0.18,0.28 -0.35,0.54 -0.53,0.8 -0.11,0.17 -0.96,1.45 -1.07,1.58l0.22 -1.47c-0.08,-0.01 -0.31,0.13 -0.39,0.17 -0.12,0.07 -0.23,0.12 -0.37,0.18l-3.67 1.88c-0.49,0.26 -0.98,0.49 -1.46,0.75 -0.98,0.52 -1.95,1 -2.93,1.52 -0.49,0.26 -0.96,0.5 -1.46,0.75 -0.25,0.12 -0.51,0.24 -0.74,0.37 -0.12,0.07 -0.32,-0.03 -0.45,-0.05 -0.85,-0.14 -1.89,0.04 -2.32,0.83 -0.21,0.39 -0.13,0.6 -0.18,0.69 -0.04,0.06 -0.6,0.3 -0.62,0.3l0 -1.56c0,-0.27 -0.02,-0.24 0.13,-0.31l1.56 -0.76c0.58,-0.3 1.17,-0.58 1.75,-0.87 1.19,-0.57 2.35,-1.16 3.52,-1.75 1.16,-0.58 2.33,-1.2 3.49,-1.78 0.98,-0.49 2.05,-1.05 3.04,-1.57 0.07,-0.04 0.14,-0.08 0.22,-0.12 0.06,-0.03 0.16,-0.07 0.19,-0.12zm-55.48 26.57l2.2 0c0.01,-0.03 0.75,-0.09 0.88,-0.1 0.9,-0.13 1.6,-0.23 2.5,-0.44 4.4,-1.03 7.95,-2.9 11.91,-4.79l2.95 -1.48c0.08,-0.02 2.23,0 2.43,0l31.43 0c1.3,0 2.64,0.03 3.94,0l0 -6.21 -25.64 -0.01c0.02,-0.05 0.33,-0.19 0.41,-0.23 0.15,-0.07 0.29,-0.14 0.43,-0.22 0.29,-0.15 0.56,-0.28 0.85,-0.43 0.28,-0.15 0.58,-0.3 0.87,-0.44l0.86 -0.44c0.09,0.06 0.16,0.12 0.26,0.18 0.35,0.2 0.6,0.23 0.99,0.28 0.67,0.09 1.47,-0.18 1.93,-0.62 0.13,-0.13 0.27,-0.27 0.38,-0.46 0.23,-0.44 0.32,-0.78 0.34,-1.36 0.06,-0.04 0.35,-0.2 0.42,-0.2l0.01 2.54 1.23 0 0.01 -3.15c0.07,-0.04 0.58,-0.3 0.61,-0.29 0.02,0.04 0.08,0.32 0.12,0.42 0.43,1.06 2.46,1.01 2.72,1.36 0.08,0.1 0.08,0.27 0.01,0.39 -0.21,0.33 -1.1,0.44 -1.5,0.06 -0.18,-0.18 -0.22,-0.44 -0.28,-0.74 -0.16,-0.01 -1.09,0.11 -1.21,0.15 -0.06,0.13 0.13,0.71 0.17,0.8 0.09,0.24 0.25,0.48 0.39,0.6 0.76,0.65 2.24,0.68 3.05,0.12 0.42,-0.28 0.67,-0.75 0.69,-1.29 0.03,-0.57 -0.25,-1.01 -0.73,-1.26 -0.42,-0.21 -1.01,-0.34 -1.5,-0.47 -0.2,-0.06 -0.59,-0.16 -0.69,-0.3 -0.18,-0.27 0.32,-0.47 0.41,-0.49 0.27,-0.05 0.65,-0.01 0.85,0.11 0.24,0.16 0.22,0.36 0.32,0.66 0.21,0.03 0.91,-0.11 1.17,-0.14 0.05,-0.17 -0.11,-0.73 -0.25,-0.95 -0.24,-0.37 -0.39,-0.38 -0.65,-0.56 0.03,-0.06 0.25,-0.15 0.33,-0.19l1.02 -0.51c0.23,-0.13 0.45,-0.22 0.68,-0.35l1.34 -0.7c0.22,-0.11 0.46,-0.22 0.67,-0.34 0.44,-0.25 0.91,-0.46 1.35,-0.7 0.44,-0.25 0.9,-0.47 1.35,-0.71 0.86,-0.47 1.8,-0.95 2.67,-1.42 0.23,-0.12 0.45,-0.23 0.68,-0.35 0.12,-0.06 0.56,-0.31 0.68,-0.33 -0.03,0.44 -0.35,1.41 -0.27,1.88 0.05,-0.07 0.11,-0.15 0.16,-0.23 0.06,-0.08 0.11,-0.15 0.17,-0.24 0.05,-0.1 0.1,-0.16 0.16,-0.24 0.06,-0.09 0.09,-0.15 0.15,-0.24l0.95 -1.42c0.28,-0.41 0.6,-0.92 0.88,-1.31 0.04,-0.06 0.04,-0.07 0.04,-0.15 -0.19,-0.03 -0.38,-0.05 -0.58,-0.08 -0.89,-0.14 -1.84,-0.27 -2.74,-0.43l-0.95 -0.15c-0.08,-0.02 -0.1,-0.01 -0.12,-0.05l-0.19 0 0 0.13c0.13,0.08 0.27,0.14 0.4,0.23 0.35,0.22 0.7,0.45 1.07,0.66l0.09 0.05c-0.04,0.05 -0.75,0.39 -0.86,0.44l-1.7 0.87c-0.29,0.14 -0.56,0.29 -0.85,0.44 -0.28,0.13 -0.58,0.28 -0.85,0.43 -0.28,0.15 -0.57,0.29 -0.85,0.44 -0.85,0.44 -1.72,0.86 -2.56,1.3 -0.29,0.14 -0.58,0.28 -0.86,0.42 -0.41,0.21 -5.06,2.53 -5.17,2.53l0 -1.57 -1.23 0 -0.01 2.2c-0.1,0.07 -0.78,0.41 -0.88,0.43 -0.15,-0.2 -0.29,-0.38 -0.52,-0.53 -0.21,-0.14 -0.42,-0.25 -0.71,-0.32 -0.65,-0.17 -1.23,-0.1 -1.79,0.13 -0.43,0.18 -0.86,0.63 -1.04,1.04 -0.14,0.3 -0.16,0.46 -0.23,0.81 -0.07,0.37 -0.01,0.66 -0.01,0.99 -0.07,0.03 -0.27,0.15 -0.34,0.16 0.01,-0.47 -0.04,-0.77 -0.25,-1.1 -0.17,-0.27 -0.38,-0.46 -0.7,-0.61 0.04,-0.07 0.21,-0.21 0.29,-0.3 0.29,-0.35 0.41,-0.91 0.33,-1.39 -0.06,-0.32 -0.21,-0.57 -0.37,-0.79 -0.62,-0.82 -1.78,-0.72 -2.77,-0.72 -0.39,0 -0.78,0 -1.16,0 -0.38,0 -0.8,-0.02 -1.16,0.01l0 6.85 1.85 0c-0.04,0.06 -0.66,0.35 -0.73,0.39 -0.44,0.2 -1.02,0.51 -1.48,0.74 -0.13,0.07 -0.24,0.12 -0.37,0.19 -0.2,0.1 -0.19,0.08 -0.46,0.08 -1.48,0 -2.96,0.01 -4.44,0.01l-6.66 0c-0.52,0 -1.77,-0.03 -2.2,0l0 6.21c0.2,0.01 1.27,-0.03 1.35,0.01 -0.06,0.07 -1.5,0.81 -1.7,0.9 -0.58,0.28 -1.16,0.58 -1.75,0.85 -0.31,0.14 -0.6,0.27 -0.91,0.4 -0.77,0.34 -1.56,0.62 -2.36,0.89 -0.13,0.05 -0.35,0.14 -0.48,0.16 0.03,-0.06 0.41,-0.44 0.51,-0.53l0.48 -0.54c0.1,-0.11 0.19,-0.24 0.3,-0.37 0.19,-0.25 0.39,-0.51 0.57,-0.78 0.57,-0.85 1.05,-1.72 1.36,-2.74 0.27,-0.91 0.52,-1.83 0.6,-2.79 0.01,-0.1 0.03,-0.22 0.04,-0.32 0.01,-0.1 0,-0.21 0.01,-0.32 0.04,-0.34 0.03,-0.99 0,-1.33 -0.07,-0.9 -0.16,-1.49 -0.37,-2.35 -0.36,-1.43 -0.96,-2.68 -1.65,-3.78 -0.09,-0.14 -0.18,-0.27 -0.27,-0.41 -0.24,-0.34 -0.48,-0.65 -0.75,-0.97 -0.23,-0.27 -0.56,-0.64 -0.82,-0.86l-0.37 -0.32c-0.1,-0.11 -0.25,-0.22 -0.37,-0.31 -1.51,-1.21 -3.61,-2.15 -5.67,-2.49 -0.67,-0.12 -1.87,-0.25 -2.54,-0.16 -0.12,0.01 -0.23,-0.01 -0.34,0 -0.09,0.01 -0.21,0.03 -0.3,0.04 -2.03,0.19 -3.86,0.83 -5.54,1.93 -0.35,0.23 -0.66,0.48 -0.99,0.72 -0.07,0.05 -0.11,0.09 -0.18,0.15 -0.15,0.14 -0.32,0.25 -0.46,0.39 -0.04,0.04 -0.05,0.05 -0.09,0.08l-0.35 0.34c-0.17,0.16 -0.32,0.37 -0.41,0.45l-0.16 0.18c-0.04,0.04 -0.05,0.04 -0.08,0.07l-0.15 0.2c-0.2,0.25 -0.39,0.49 -0.59,0.76 -0.52,0.72 -1.13,1.81 -1.44,2.65 -0.54,1.47 -0.82,3.05 -0.79,4.64 0.03,1.47 0.37,3.18 0.95,4.51 0.46,1.07 1.05,2.07 1.79,2.98l0.47 0.55 1.21 1.15c0.55,0.43 0.94,0.77 1.58,1.15 0.84,0.51 1.81,0.97 2.77,1.3 0.18,0.06 0.35,0.11 0.52,0.16 0.18,0.06 0.32,0.12 0.51,0.16 0.66,0.16 1.35,0.31 2.03,0.36 0.05,0 0.1,0.01 0.16,0.01 0.02,0.01 0.06,0 0.08,0.01 0.05,0.01 0.02,-0.01 0.05,0.03z"/>
  <path class="fil3" d="M0.35 12.87c0.16,-0.48 0.75,-1.47 1.07,-1.91 0.18,-0.25 0.59,-0.79 0.8,-1 0.05,-0.05 0.09,-0.1 0.14,-0.16 0.03,-0.03 0.04,-0.04 0.07,-0.07 0.13,-0.12 0.2,-0.21 0.38,-0.38 0.05,-0.05 0.09,-0.09 0.15,-0.15l0.48 -0.41c0.11,-0.09 0.22,-0.17 0.34,-0.26 0.11,-0.09 0.23,-0.17 0.35,-0.25 1.27,-0.85 2.62,-1.47 4.26,-1.76 3,-0.53 5.98,0.37 8.3,2.22l0.95 0.85c0.7,0.76 1.28,1.5 1.7,2.51 0.12,0.28 0.23,0.58 0.3,0.89 0.08,0.3 0.13,0.71 0.27,0.95 0.31,0.53 0.93,0.18 1.08,-0.84 0.09,-0.71 0.01,-1.53 -0.14,-2.2 -0.39,-1.86 -1.05,-3.11 -2.12,-4.46 -0.22,-0.27 -0.62,-0.69 -0.87,-0.93 -0.53,-0.49 -0.68,-0.61 -1.34,-1.07 -0.65,-0.46 -1.67,-0.95 -2.45,-1.17 -1.43,-0.41 -2.79,-0.46 -4.29,-0.17 -1.39,0.26 -2.64,0.83 -3.82,1.57 -0.88,0.55 -1.16,0.82 -1.86,1.43l-0.46 0.46c-0.05,0.05 -0.1,0.09 -0.15,0.14l-0.29 0.32c-0.03,0.03 -0.1,0.12 -0.13,0.16 -0.03,0.04 -0.03,0.04 -0.07,0.08 -0.03,0.03 -0.04,0.05 -0.07,0.09 -0.18,0.22 -0.5,0.63 -0.64,0.85 -0.08,0.12 -0.16,0.24 -0.24,0.36 -0.3,0.44 -0.62,1.06 -0.86,1.55 -0.28,0.58 -0.47,1.14 -0.64,1.76 -0.04,0.17 -0.21,0.86 -0.2,1z"/>
  <path class="fil4" d="M22.27 12.14c0,1.63 -0.3,2.96 -0.88,4.31 -0.12,0.29 -0.25,0.58 -0.4,0.85 -0.41,0.74 -0.5,0.86 -0.98,1.52 -0.14,0.18 -0.3,0.35 -0.44,0.51 -0.05,0.06 -0.1,0.1 -0.15,0.16 -0.21,0.24 -0.73,0.7 -0.98,0.9 -0.57,0.46 -1.23,0.86 -1.95,1.2 -1.12,0.54 -2.63,0.96 -4.06,0.96 -0.42,0 -0.87,-0.03 -1.29,-0.07 -0.45,-0.05 -1.47,-0.35 -1.57,0.2 -0.08,0.39 0.6,0.96 0.87,1.15 1.09,0.76 2.83,1.07 4.42,1.07 1.35,0 2.93,-0.34 4.02,-0.83 1.12,-0.51 1.56,-0.79 2.44,-1.49 0.2,-0.17 0.29,-0.26 0.48,-0.43 0.8,-0.73 1.59,-1.91 1.97,-2.88 0.23,-0.59 0.43,-1.19 0.56,-1.86 0.37,-1.97 0.31,-3.61 -0.22,-5.58 -0.45,-1.71 -1.42,-3.55 -2.57,-4.89 -0.15,-0.17 -0.29,-0.34 -0.45,-0.49 -0.07,-0.07 -0.14,-0.15 -0.22,-0.23l-0.76 -0.66c-0.08,-0.07 -0.45,-0.36 -0.53,-0.4 0.03,0.08 0.41,0.54 0.51,0.69l0.49 0.72c0.28,0.4 0.65,1.12 0.84,1.57 0.5,1.18 0.85,2.54 0.85,4z"/>
  <path class="fil5" d="M26.85 13.02c0.17,0.02 1.28,0.02 1.39,-0.01l0.64 -2.39c0.18,-0.68 0.39,-1.4 0.56,-2.08l0.09 -0.3 0.05 0.14c0.01,0.05 0.03,0.1 0.04,0.15l0.24 0.9c0.1,0.4 0.21,0.8 0.32,1.2 0.07,0.27 0.59,2.31 0.64,2.39l1.36 0 0.39 -1.6c0.26,-1.06 0.55,-2.16 0.8,-3.22 0.03,-0.16 0.39,-1.51 0.39,-1.62l-1.31 0c-0.13,0.47 -0.36,1.64 -0.49,2.22 -0.09,0.37 -0.18,0.74 -0.25,1.11 -0.03,0.13 -0.23,1.08 -0.26,1.12l-0.27 -1.1c-0.17,-0.72 -0.38,-1.5 -0.56,-2.23 -0.09,-0.36 -0.17,-0.76 -0.27,-1.11l-1.56 -0.01c-0.26,1.08 -0.61,2.2 -0.87,3.27 -0.08,0.33 -0.24,0.79 -0.28,1.12 -0.06,-0.05 -0.05,-0.14 -0.08,-0.26l-0.17 -0.83c-0.09,-0.36 -0.15,-0.74 -0.24,-1.1 -0.16,-0.63 -0.33,-1.53 -0.48,-2.2l-1.35 0c0,0.1 0.15,0.68 0.19,0.81l0.96 4.02c0.12,0.52 0.24,1.12 0.38,1.61z"/>
  <path class="fil6" d="M67.6 1.09c-0.03,0.05 -0.13,0.09 -0.19,0.12 -0.08,0.04 -0.15,0.08 -0.22,0.12 -0.99,0.52 -2.06,1.08 -3.04,1.57 -1.16,0.58 -2.33,1.2 -3.49,1.78 -1.17,0.59 -2.33,1.18 -3.52,1.75 -0.58,0.29 -1.17,0.57 -1.75,0.87l-1.56 0.76c-0.15,0.07 -0.13,0.04 -0.13,0.31l0 1.56c0.02,0 0.58,-0.24 0.62,-0.3 0.05,-0.09 -0.03,-0.3 0.18,-0.69 0.43,-0.79 1.47,-0.97 2.32,-0.83 0.13,0.02 0.33,0.12 0.45,0.05 0.23,-0.13 0.49,-0.25 0.74,-0.37 0.5,-0.25 0.97,-0.49 1.46,-0.75 0.98,-0.52 1.95,-1 2.93,-1.52 0.48,-0.26 0.97,-0.49 1.46,-0.75l3.67 -1.88c0.14,-0.06 0.25,-0.11 0.37,-0.18 0.08,-0.04 0.31,-0.18 0.39,-0.17l-0.22 1.47c0.11,-0.13 0.96,-1.41 1.07,-1.58 0.18,-0.26 0.35,-0.52 0.53,-0.8 0.09,-0.13 0.18,-0.27 0.27,-0.4 0.06,-0.11 0.23,-0.32 0.26,-0.42 -0.29,-0.02 -0.71,-0.1 -1.01,-0.14 -0.27,-0.05 -2.85,-0.47 -2.97,-0.47 0.04,0.06 0.26,0.17 0.33,0.22l0.7 0.45c0.1,0.07 0.27,0.15 0.35,0.22z"/>
  <path class="fil4" d="M42.68 10.24c0.18,-0.05 1.5,-0.02 1.75,0 0.5,0.05 0.94,0.2 0.95,0.82 0.01,0.61 -0.34,0.84 -0.92,0.87l-1.79 0c-0.01,-0.24 -0.03,-1.54 0.01,-1.69zm0 -2.57c0.3,-0.03 1.66,-0.02 1.92,0.04 0.49,0.1 0.62,0.55 0.51,0.91 -0.13,0.45 -0.48,0.51 -0.95,0.52 -0.33,0 -0.66,0 -0.99,0 -0.62,0 -0.49,0.12 -0.5,-0.49 0,-0.24 -0.03,-0.78 0.01,-0.98zm-1.32 5.35l1.25 0.01c0.41,0 0.83,0 1.25,0 0.75,-0.01 1.61,0.04 2.14,-0.37 0.99,-0.78 1.12,-2.52 -0.37,-3.01 -0.02,-0.01 -0.05,-0.02 -0.06,-0.02l-0.06 -0.04c0.12,-0.06 0.23,-0.12 0.33,-0.2 0.35,-0.27 0.54,-0.66 0.57,-1.13 0.03,-0.43 -0.2,-0.93 -0.48,-1.19 -0.09,-0.07 -0.21,-0.17 -0.33,-0.24 -0.45,-0.27 -1.4,-0.25 -1.99,-0.25 -0.28,0 -2.14,-0.03 -2.24,0.02l-0.01 6.42z"/>
  <path class="fil4" d="M38.84 11.53c-0.33,0.18 -0.63,0.4 -1.11,0.47 -1.58,0.23 -2.3,-0.95 -2.2,-2.44 0.07,-0.93 0.38,-1.62 1.26,-1.89 0.43,-0.14 0.97,-0.1 1.33,0.09 0.54,0.28 0.57,0.68 0.7,0.87l1.27 -0.24c0.03,-0.08 -0.13,-0.46 -0.17,-0.56 -0.15,-0.35 -0.39,-0.61 -0.67,-0.84 -0.71,-0.58 -2.17,-0.66 -3.06,-0.35 -1.65,0.59 -2.21,2.3 -1.93,3.94 0.11,0.63 0.35,1.1 0.71,1.56 0.1,0.13 0.12,0.12 0.18,0.19 0.18,0.22 0.82,0.59 1.21,0.68 1.33,0.34 2.5,0.04 3.57,-0.67 0.04,-0.03 0.2,-0.15 0.21,-0.18 0.02,-0.05 0.01,-1 0.01,-1.1 0,-0.48 0.03,-1.02 0,-1.49 -0.1,-0.03 -2.7,-0.03 -2.77,0l0 1.08c0.16,0.04 1.16,-0.02 1.46,0.01l0 0.87z"/>
  <path class="fil7" d="M19.85 14.08c0,0.17 0.02,0.31 0.02,0.47 0.05,1.7 -0.26,3.14 -1.12,4.6 -0.18,0.31 -0.34,0.5 -0.52,0.76 -0.04,0.06 -0.08,0.1 -0.12,0.14 -0.09,0.1 -0.22,0.24 -0.24,0.3 0.09,-0.03 0.43,-0.35 0.52,-0.42 0.41,-0.37 1.02,-1.02 1.32,-1.48 0.48,-0.73 0.62,-0.93 1.02,-1.78 0.13,-0.26 0.31,-0.73 0.39,-1.01l0.12 -0.35c0.08,-0.2 0.14,-0.51 0.2,-0.73 0.14,-0.52 0.2,-1.04 0.27,-1.6 0.12,-1.06 -0.05,-2.49 -0.29,-3.42 -0.33,-1.26 -0.72,-2.25 -1.37,-3.3 -0.24,-0.38 -0.5,-0.74 -0.78,-1.09 -0.07,-0.08 -0.13,-0.18 -0.21,-0.24 -0.11,-0.1 -0.08,-0.11 -0.17,-0.19 -0.26,-0.24 -0.88,-0.56 -1.26,-0.73 -1.34,-0.6 -2.95,-1.11 -4.49,-1.14 0.07,0.05 0.47,0.11 0.56,0.13l1.06 0.31c0.17,0.07 0.34,0.11 0.5,0.18 0.36,0.16 1.06,0.49 1.37,0.69 0.15,0.09 0.28,0.18 0.42,0.27 0.44,0.27 1.16,0.9 1.5,1.25 1.41,1.46 2.42,3.28 2.76,5.46 0.13,0.8 0.09,1.74 -0.11,2.48 -0.1,0.37 -0.23,0.71 -0.52,0.85 -0.19,0.1 -0.35,0.05 -0.5,-0.06 -0.22,-0.16 -0.23,-0.31 -0.33,-0.35z"/>
  <path class="fil4" d="M68.2 20.65l1.96 0 0 -5.81c-0.2,-0.04 -0.74,-0.01 -0.97,-0.01 -0.31,0 -0.69,-0.02 -0.98,0l-0.01 5.82z"/>
  <path class="fil7" d="M0.31 16.89c0.02,-0.06 0.01,-0.48 0.02,-0.6 0.01,-0.19 0.03,-0.37 0.06,-0.56 0.06,-0.55 0.29,-1.46 0.5,-1.97 0.11,-0.3 0.25,-0.59 0.38,-0.87 0.14,-0.3 0.27,-0.53 0.44,-0.8 0.28,-0.47 0.55,-0.88 0.88,-1.3 0.05,-0.07 0.09,-0.11 0.15,-0.17 0.09,-0.11 0.18,-0.23 0.27,-0.34 0.39,-0.47 1.46,-1.45 1.96,-1.78 0.31,-0.2 0.36,-0.27 0.75,-0.48 0.13,-0.08 0.27,-0.14 0.42,-0.22 0.29,-0.15 0.56,-0.23 0.9,-0.33 0.39,-0.12 0.67,-0.14 1.11,-0.14 0.18,0 0.42,-0.01 0.57,0.04 0.58,0.2 0.3,0.62 0.02,0.9 -0.05,0.06 -0.12,0.09 -0.17,0.15 0.11,-0.01 0.21,-0.1 0.31,-0.15 0.85,-0.4 1.53,-0.62 2.51,-0.75 0.94,-0.12 2.07,-0.09 3.02,0.1 0.07,0.01 0.12,0.03 0.18,0.05l0.14 0.04c0,0 0.01,0 0.01,0l0.02 -0.01c0,0 0.01,0 0.01,0 -0.36,-0.18 -0.4,-0.23 -0.81,-0.39 -0.1,-0.04 -0.21,-0.04 -0.32,-0.09 -0.54,-0.23 -0.7,-0.24 -1.28,-0.34 -0.92,-0.16 -2.04,-0.21 -3.05,-0.11 -2.16,0.2 -4.1,1.03 -5.84,2.26 -0.23,0.16 -0.67,0.54 -0.87,0.75 -0.45,0.48 -0.37,0.35 -0.77,0.85 -0.24,0.29 -0.64,0.86 -0.82,1.2 -0.35,0.65 -0.66,1.3 -0.79,2.05 -0.09,0.49 -0.08,1.04 -0.07,1.55 0.01,0.2 0.1,1.36 0.16,1.46z"/>
  <path class="fil7" d="M7.67 22.58c0.01,0.05 0.26,0.34 0.3,0.37 0.05,0.04 0.05,0.05 0.09,0.09l1.08 0.85c0.42,0.31 1.3,0.77 1.81,0.98 0.77,0.32 1.38,0.45 2.29,0.49 2.03,0.09 4.12,-0.42 6.07,-0.9 0.19,-0.05 0.97,-0.24 1.1,-0.31 0.07,-0.03 0.14,-0.1 0.19,-0.14 0.06,-0.06 0.13,-0.1 0.19,-0.16 0.07,-0.06 0.1,-0.12 0.17,-0.19 0.06,-0.05 0.12,-0.1 0.19,-0.16l0.33 -0.37c0.31,-0.31 1,-1.26 1.2,-1.6 0.05,-0.08 0.09,-0.14 0.14,-0.22 0.05,-0.08 0.11,-0.14 0.14,-0.23 -0.07,0.04 -0.12,0.13 -0.17,0.19 -0.09,0.14 -0.19,0.24 -0.3,0.36 -0.2,0.23 -0.24,0.3 -0.49,0.52 -0.11,0.11 -0.16,0.18 -0.35,0.34l-0.36 0.31c-0.28,0.24 -0.88,0.64 -1.21,0.83 -0.57,0.33 -1.17,0.63 -1.85,0.85 -0.72,0.23 -1.44,0.4 -2.23,0.48 -1.45,0.16 -3.41,0.05 -4.73,-0.53 -0.59,-0.26 -0.89,-0.42 -1.39,-0.78 -0.34,-0.24 -1.26,-1.01 -1.03,-1.46 0.08,-0.15 0.27,-0.18 0.5,-0.18 -0.05,-0.06 -0.07,-0.06 -0.15,-0.09 -0.25,-0.09 -0.24,-0.1 -0.46,-0.22 -0.39,-0.22 -0.78,-0.45 -1.11,-0.73l-0.25 -0.21c-0.05,-0.04 -0.06,-0.07 -0.11,-0.11l-0.36 -0.36c-0.04,-0.04 -0.07,-0.06 -0.11,-0.11l-0.31 -0.37c-0.07,-0.09 -0.14,-0.17 -0.2,-0.27 -0.12,-0.17 -0.25,-0.35 -0.37,-0.54 -0.11,-0.19 -0.22,-0.42 -0.33,-0.6 -0.01,-0.01 -0.03,-0.01 -0.04,-0.03 0.04,0.23 0.3,1 0.39,1.21 0.29,0.79 0.41,0.94 0.76,1.59 0.12,0.23 0.66,1.03 0.79,1.19 0.07,0.08 0.13,0.13 0.18,0.22z"/>
  <path class="fil8" d="M26.85 13.02c-0.14,-0.49 -0.26,-1.09 -0.38,-1.61l-0.96 -4.02c-0.04,-0.13 -0.19,-0.71 -0.19,-0.81l1.35 0c0.15,0.67 0.32,1.57 0.48,2.2 0.09,0.36 0.15,0.74 0.24,1.1l0.17 0.83c0.03,0.12 0.02,0.21 0.08,0.26 0.04,-0.33 0.2,-0.79 0.28,-1.12 0.26,-1.07 0.61,-2.19 0.87,-3.27l1.56 0.01c0.1,0.35 0.18,0.75 0.27,1.11 0.18,0.73 0.39,1.51 0.56,2.23l0.27 1.1c0.03,-0.04 0.23,-0.99 0.26,-1.12 0.07,-0.37 0.16,-0.74 0.25,-1.11 0.13,-0.58 0.36,-1.75 0.49,-2.22l1.31 0c0,0.11 -0.36,1.46 -0.39,1.62 -0.25,1.06 -0.54,2.16 -0.8,3.22l-0.39 1.6 -1.36 0c-0.05,-0.08 -0.57,-2.12 -0.64,-2.39 -0.11,-0.4 -0.22,-0.8 -0.32,-1.2l-0.24 -0.9c-0.01,-0.05 -0.03,-0.1 -0.04,-0.15l-0.05 -0.14 -0.09 0.3c-0.17,0.68 -0.38,1.4 -0.56,2.08l-0.64 2.39c-0.11,0.03 -1.22,0.03 -1.39,0.01zm5.5 0.21c0.08,-0.27 0.14,-0.59 0.21,-0.87 0.2,-0.85 0.43,-1.71 0.63,-2.56 0.08,-0.36 0.8,-3.17 0.84,-3.43l-1.73 0.01c-0.08,0.31 -0.15,0.64 -0.22,0.96 -0.07,0.32 -0.14,0.63 -0.21,0.95l-0.42 1.9 -0.7 -2.86c-0.08,-0.32 -0.15,-0.64 -0.23,-0.96l-1.87 0.01c-0.03,0.15 -0.08,0.32 -0.12,0.47 -0.1,0.38 -0.85,3.23 -0.88,3.27 -0.04,-0.04 -0.08,-0.38 -0.1,-0.47 -0.11,-0.46 -0.2,-0.93 -0.32,-1.4 -0.06,-0.27 -0.35,-1.77 -0.41,-1.88l-1.74 0.01c-0.01,0.16 0.33,1.44 0.39,1.72 0.26,1.12 0.56,2.29 0.81,3.41 0.07,0.29 0.14,0.56 0.21,0.86 0.05,0.27 0.12,0.59 0.19,0.86l1.73 0c0.05,-0.09 0.23,-0.89 0.28,-1.06 0.08,-0.35 0.18,-0.69 0.28,-1.04 0.09,-0.35 0.18,-0.71 0.28,-1.06l0.28 -1.03c0.04,0.03 0.02,0 0.04,0.05l0.25 1c0.09,0.34 0.19,0.69 0.28,1.04 0.17,0.7 0.36,1.39 0.55,2.1l1.7 0z"/>
  <path class="fil4" d="M59.73 10.98c-0.03,-0.45 0.01,-1.01 0.2,-1.36 0.56,-1.04 2.36,-1 2.5,0.79 0.03,0.44 -0.02,1.01 -0.21,1.35 -0.5,0.87 -1.54,0.83 -2.04,0.33 -0.29,-0.28 -0.41,-0.63 -0.45,-1.11zm1.16 -2.71c-0.64,0.05 -1.15,0.32 -1.53,0.78 -0.37,0.44 -0.52,1.14 -0.47,1.85 0.03,0.48 0.13,0.95 0.38,1.34 0.11,0.16 0.18,0.2 0.27,0.31 0.37,0.41 1.13,0.64 1.73,0.58 0.32,-0.03 0.64,-0.12 0.88,-0.26 0.22,-0.12 0.5,-0.33 0.64,-0.52 0.37,-0.52 0.51,-1.04 0.48,-1.85 -0.02,-0.63 -0.18,-1.03 -0.52,-1.49 -0.34,-0.44 -1.09,-0.8 -1.86,-0.74z"/>
  <path class="fil4" d="M49.62 12.45c-0.35,0 -0.66,-0.16 -0.85,-0.33 -0.49,-0.41 -0.52,-1.26 -0.46,-1.85 0.17,-1.61 2,-1.74 2.53,-0.54 0.14,0.31 0.15,0.64 0.15,1.02 0.01,0.88 -0.41,1.7 -1.37,1.7zm-0.18 -4.18c-0.69,0.05 -1.26,0.43 -1.52,0.8 -0.4,0.57 -0.48,1.02 -0.46,1.85 0.02,0.93 0.48,1.8 1.39,2.09 0.32,0.11 0.65,0.15 1.01,0.12 0.33,-0.04 0.65,-0.13 0.88,-0.27 0.14,-0.09 0.22,-0.14 0.34,-0.24 0.6,-0.49 0.78,-1.27 0.75,-2.12 -0.03,-0.54 -0.13,-0.92 -0.4,-1.34 -0.03,-0.04 -0.09,-0.12 -0.12,-0.16 -0.38,-0.46 -1.08,-0.79 -1.87,-0.73z"/>
  <path class="fil4" d="M55.21 11.51c-0.08,-0.01 -0.75,0.07 -0.81,0.11 -0.01,0.16 0.15,0.57 0.23,0.7 0.06,0.1 0.13,0.2 0.2,0.28 0.35,0.42 1.2,0.58 1.84,0.52 0.62,-0.07 0.9,-0.22 1.29,-0.62 0.32,-0.33 0.42,-1.03 0.14,-1.48 -0.25,-0.41 -0.66,-0.52 -1.21,-0.69 -0.35,-0.11 -1.24,-0.29 -1.45,-0.48 -0.19,-0.18 -0.18,-0.49 0,-0.68 0.12,-0.14 0.45,-0.23 0.71,-0.25 0.29,-0.01 0.6,0.02 0.81,0.16 0.23,0.15 0.25,0.31 0.35,0.61 0.1,0 0.71,-0.08 0.77,-0.11 -0.02,-0.51 -0.34,-0.91 -0.77,-1.12 -0.7,-0.34 -2.26,-0.34 -2.69,0.68 -0.25,0.58 -0.01,1.13 0.34,1.39 0.33,0.24 0.91,0.39 1.37,0.51 0.24,0.06 0.53,0.13 0.74,0.22 0.27,0.1 0.4,0.24 0.36,0.58 -0.09,0.75 -1.48,0.79 -1.93,0.34 -0.17,-0.17 -0.22,-0.37 -0.29,-0.67z"/>
  <path class="fil4" d="M64.88 9.07c-0.01,-0.16 0.03,-0.58 -0.02,-0.69 -0.02,-0.01 -0.7,-0.06 -0.72,0.03 0,0 0,0.01 0,0.01l-0.01 3.44c0,0.36 -0.02,0.8 0.01,1.16 0.1,0.02 0.73,0.03 0.81,-0.01 0.02,-0.12 0,-1.08 0,-1.28 0,-0.43 0,-0.85 0,-1.28 0.01,-0.75 0.26,-1.42 1.1,-1.48 0.44,-0.03 0.76,0.09 0.94,0.35 0.17,0.27 0.16,0.77 0.16,1.13 0,0.43 0,0.85 0,1.28 0,0.21 0,0.43 0,0.64 0,0.14 -0.02,0.52 0.01,0.63 0.02,0.04 0.33,0.02 0.39,0.02 0.1,0 0.33,0.03 0.41,-0.01 0.03,-0.35 0.01,-1.7 0.01,-2.16 -0.01,-0.9 0.13,-2.03 -0.8,-2.43 -0.29,-0.13 -0.58,-0.18 -0.93,-0.15 -0.55,0.04 -0.79,0.21 -1.11,0.52l-0.13 0.13c-0.03,0.04 -0.09,0.13 -0.12,0.15z"/>
  <polygon class="fil9" points="68.2,20.65 68.21,14.83 66.76,14.83 66.75,20.65 "/>
  <path class="fil8" d="M38.84 11.53l0 -0.87c-0.3,-0.03 -1.3,0.03 -1.46,-0.01l0 -1.08c0.07,-0.03 2.67,-0.03 2.77,0 0.03,0.47 0,1.01 0,1.49 0,0.1 0.01,1.05 -0.01,1.1 -0.01,0.03 -0.17,0.15 -0.21,0.18 -1.07,0.71 -2.24,1.01 -3.57,0.67 -0.39,-0.09 -1.03,-0.46 -1.21,-0.68 -0.06,-0.07 -0.08,-0.06 -0.18,-0.19 -0.36,-0.46 -0.6,-0.93 -0.71,-1.56 -0.28,-1.64 0.28,-3.35 1.93,-3.94 0.89,-0.31 2.35,-0.23 3.06,0.35 0.28,0.23 0.52,0.49 0.67,0.84 0.04,0.1 0.2,0.48 0.17,0.56l-1.27 0.24c-0.13,-0.19 -0.16,-0.59 -0.7,-0.87 -0.36,-0.19 -0.9,-0.23 -1.33,-0.09 -0.88,0.27 -1.19,0.96 -1.26,1.89 -0.1,1.49 0.62,2.67 2.2,2.44 0.48,-0.07 0.78,-0.29 1.11,-0.47zm1.52 -2.17l-3.19 -0.01c-0.01,0.18 -0.01,1.42 0.02,1.51l1.47 0 0 0.5c-0.05,0.13 -1.22,0.83 -2.14,0.22 -0.67,-0.43 -0.84,-1.27 -0.78,-2.07 0.07,-0.89 0.42,-1.45 1.17,-1.66 0.68,-0.18 1.42,0.07 1.66,0.73 0.02,0.08 0.05,0.22 0.09,0.28 0.11,0 1.53,-0.27 1.69,-0.31 -0.11,-0.86 -0.56,-1.54 -1.3,-1.95 -0.81,-0.45 -2.42,-0.48 -3.37,0.04 -0.16,0.09 -0.37,0.23 -0.48,0.33 -0.09,0.07 -0.13,0.11 -0.21,0.19 -0.21,0.21 -0.37,0.44 -0.53,0.71 -0.41,0.69 -0.57,1.82 -0.41,2.73 0.33,1.81 1.68,2.92 3.77,2.73 0.72,-0.07 1.27,-0.24 1.85,-0.58 0.21,-0.12 0.33,-0.21 0.5,-0.34 0.26,-0.19 0.2,-0.08 0.2,-0.61 0,-0.34 0.02,-2.27 -0.01,-2.44z"/>
  <path class="fil6" d="M40.6 14.63c0.29,0.03 1.89,0 2.32,0 0.39,0 0.78,0 1.16,0 0.28,0 0.27,0.03 0.49,-0.09l1.16 -0.58c0.26,-0.14 0.5,-0.27 0.77,-0.4 0.26,-0.13 0.49,-0.27 0.76,-0.39 0.14,-0.07 0.7,-0.33 0.77,-0.4 -0.03,-0.05 -0.08,-0.09 -0.12,-0.14 -0.28,-0.31 -0.36,-0.47 -0.5,-0.87 -0.07,-0.17 -0.06,-0.29 -0.11,-0.46 -0.07,0 -0.14,0.04 -0.21,0.07 -0.26,0.13 -0.16,0.05 -0.25,0.39 -0.11,0.37 -0.33,0.71 -0.61,0.96 -0.24,0.21 -0.44,0.32 -0.84,0.41 -0.48,0.11 -1.25,0.1 -1.78,0.1 -0.3,-0.01 -0.27,0.02 -0.5,0.13 -0.29,0.14 -0.57,0.27 -0.85,0.42 -0.27,0.15 -0.56,0.28 -0.83,0.42 -0.15,0.07 -0.28,0.15 -0.42,0.22 -0.08,0.03 -0.38,0.17 -0.41,0.21z"/>
  <path class="fil8" d="M64.88 9.07c0.03,-0.02 0.09,-0.11 0.12,-0.15l0.13 -0.13c0.32,-0.31 0.56,-0.48 1.11,-0.52 0.35,-0.03 0.64,0.02 0.93,0.15 0.93,0.4 0.79,1.53 0.8,2.43 0,0.46 0.02,1.81 -0.01,2.16 -0.08,0.04 -0.31,0.01 -0.41,0.01 -0.06,0 -0.37,0.02 -0.39,-0.02 -0.03,-0.11 -0.01,-0.49 -0.01,-0.63 0,-0.21 0,-0.43 0,-0.64 0,-0.43 0,-0.85 0,-1.28 0,-0.36 0.01,-0.86 -0.16,-1.13 -0.18,-0.26 -0.5,-0.38 -0.94,-0.35 -0.84,0.06 -1.09,0.73 -1.1,1.48 0,0.43 0,0.85 0,1.28 0,0.2 0.02,1.16 0,1.28 -0.08,0.04 -0.71,0.03 -0.81,0.01 -0.03,-0.36 -0.01,-0.8 -0.01,-1.16l0.01 -3.44c0,0 0,-0.01 0,-0.01 0.02,-0.09 0.7,-0.04 0.72,-0.03 0.05,0.11 0.01,0.53 0.02,0.69zm0.23 -0.57l-0.01 -0.33 -1.18 0 0 5.06 1.25 0c0.03,-0.37 0.01,-1.95 0.01,-2.47 0,-0.34 0,-0.82 0.13,-1.09 0.12,-0.24 0.38,-0.47 0.74,-0.49 1.02,-0.07 0.91,0.73 0.91,1.57 0,0.41 0,0.82 0,1.23 0,0.4 -0.02,0.85 0,1.24l1.22 0.01c0.02,-0.34 0,-0.73 0,-1.07 0,-0.37 0,-0.73 0,-1.1 0.01,-1.26 0.23,-2.69 -1.36,-2.97 -0.32,-0.05 -0.7,-0.05 -1,0.04 -0.52,0.15 -0.61,0.34 -0.71,0.37z"/>
  <path class="fil5" d="M52.69 13.03l0.79 0c0.03,-0.13 0.01,-3.02 0.01,-3.22 0,-1.07 0.03,-2.16 0,-3.22l-0.81 -0.01c-0.03,0.52 0,1.08 -0.01,1.61 0,0.67 -0.01,4.75 0.02,4.84z"/>
  <path class="fil4" d="M69.94 8.37c-0.22,-0.01 -0.46,0.01 -0.68,0 -0.09,0 -0.11,-0.01 -0.13,0.05l0.01 4.6 0.81 0.01c0.02,-0.38 0,-0.79 0,-1.17 0,-0.42 0.03,-3.32 -0.01,-3.49z"/>
  <path class="fil6" d="M48.49 10.71c-0.02,0.49 0.13,0.99 0.39,1.23 0.06,0.06 0.15,0.12 0.23,0.17 0.16,0.1 0.14,0.08 0.29,0l1.07 -0.55c0.28,-0.16 0.26,-0.11 0.31,-0.49 0.06,-0.41 0.01,-1.12 -0.19,-1.4 -0.11,0.04 -1.96,0.97 -2.1,1.04z"/>
  <path class="fil2" d="M60.89 8.27c0.77,-0.06 1.52,0.3 1.86,0.74 0.34,0.46 0.5,0.86 0.52,1.49 0.03,0.81 -0.11,1.33 -0.48,1.85 -0.14,0.19 -0.42,0.4 -0.64,0.52 -0.24,0.14 -0.56,0.23 -0.88,0.26 -0.6,0.06 -1.36,-0.17 -1.73,-0.58 -0.09,-0.11 -0.16,-0.15 -0.27,-0.31 -0.25,-0.39 -0.35,-0.86 -0.38,-1.34 -0.05,-0.71 0.1,-1.41 0.47,-1.85 0.38,-0.46 0.89,-0.73 1.53,-0.78zm-0.11 -0.19c-0.69,0.11 -1.21,0.32 -1.63,0.89 -0.55,0.75 -0.62,2.11 -0.23,3.05 0.24,0.59 0.73,1 1.32,1.19 0.97,0.33 2.11,0.06 2.76,-0.78 0.4,-0.51 0.53,-1.22 0.48,-2.04 -0.06,-1.12 -0.62,-1.87 -1.56,-2.2 -0.32,-0.11 -0.79,-0.17 -1.14,-0.11z"/>
  <path class="fil2" d="M40.96 16.99c0.07,-0.03 0.47,-0.02 0.57,-0.01 0.17,0.02 0.29,0.09 0.3,0.27 0.01,0.2 -0.11,0.27 -0.3,0.28 -0.15,0.01 -0.42,0.01 -0.57,0l0 -0.54zm-0.45 0.01c0,0.16 -0.01,1.73 0.02,1.77 0.02,0.02 0.03,0.02 0.08,0.03l0.34 0c0.02,-0.13 0.01,-0.32 0.01,-0.46 0,-0.08 0,-0.15 0,-0.23 0,-0.04 0,-0.07 0,-0.11 0,-0.08 -0.01,-0.17 0.27,-0.1 0.23,0.06 0.47,0.58 0.66,0.84 0.06,0.08 0.12,0.06 0.24,0.06 0.1,0 0.21,0 0.31,-0.01 0,-0.06 -0.03,-0.07 -0.06,-0.12l-0.24 -0.39c-0.27,-0.43 -0.27,-0.28 -0.4,-0.43 0,-0.01 0.01,-0.02 0.01,-0.01l0.11 -0.03c0.56,-0.14 0.56,-0.97 0.05,-1.14 -0.25,-0.08 -0.93,-0.05 -1.26,-0.05 -0.08,-0.01 -0.11,-0.02 -0.13,0.03 -0.01,0.02 -0.01,0.3 -0.01,0.35z"/>
  <path class="fil8" d="M49.5 12.24c0.02,-0.06 0.17,-0.12 0.24,-0.16 0.2,-0.1 0.68,-0.38 0.85,-0.42 -0.05,0.15 -0.27,0.34 -0.41,0.43 -0.19,0.11 -0.4,0.18 -0.68,0.15zm-1.01 -1.53c0.14,-0.07 1.99,-1 2.1,-1.04 0.2,0.28 0.25,0.99 0.19,1.4 -0.05,0.38 -0.03,0.33 -0.31,0.49l-1.07 0.55c-0.15,0.08 -0.13,0.1 -0.29,0 -0.08,-0.05 -0.17,-0.11 -0.23,-0.17 -0.26,-0.24 -0.41,-0.74 -0.39,-1.23zm0.02 -0.19c0,-0.21 0.01,-0.35 0.07,-0.54 0.05,-0.14 0.15,-0.33 0.23,-0.41 0.1,-0.12 0.18,-0.21 0.34,-0.29 0.16,-0.09 0.29,-0.14 0.5,-0.14 0.3,0 0.72,0.23 0.81,0.41 -0.05,0.04 -1.88,0.96 -1.95,0.97zm1.11 1.93c0.96,0 1.38,-0.82 1.37,-1.7 0,-0.38 -0.01,-0.71 -0.15,-1.02 -0.53,-1.2 -2.36,-1.07 -2.53,0.54 -0.06,0.59 -0.03,1.44 0.46,1.85 0.19,0.17 0.5,0.33 0.85,0.33z"/>
  <path class="fil10" d="M69.94 8.37c0.04,0.17 0.01,3.07 0.01,3.49 0,0.38 0.02,0.79 0,1.17l-0.81 -0.01 -0.01 -4.6c0.02,-0.06 0.04,-0.05 0.13,-0.05 0.22,0.01 0.46,-0.01 0.68,0zm-1.01 4.85c0.13,0.03 1.09,0.02 1.24,0l0 -5.05 -1.23 0 -0.01 5.05z"/>
  <path class="fil11" d="M55.36 16.98c0.42,-0.09 0.69,0.21 0.7,0.58 0.02,0.35 -0.02,0.78 -0.43,0.88 -0.86,0.2 -0.96,-1.33 -0.27,-1.46zm-0.02 -0.39c-0.68,0.11 -0.93,0.62 -0.88,1.27 0.06,0.7 0.55,1.05 1.19,0.96 0.65,-0.09 0.93,-0.56 0.88,-1.27 -0.05,-0.6 -0.53,-1.06 -1.19,-0.96z"/>
  <path class="fil8" d="M56.88 17.04c0,0.28 -0.02,1.66 0.01,1.75 0.2,0 1.54,0.03 1.63,-0.01 0.02,-0.06 0.02,-0.26 0,-0.34 -0.07,-0.03 -0.97,-0.01 -1.19,-0.01l0 -0.58 1.07 -0.01 0.01 -0.37 -0.74 0c-0.33,0 -0.35,0.04 -0.35,-0.15l0 -0.33c0.13,-0.04 1.12,0.02 1.16,-0.02 0.02,-0.06 0.01,-0.16 0.01,-0.24 0,-0.16 -0.02,-0.11 -0.45,-0.11l-1.11 0c-0.08,0.01 -0.06,0.01 -0.06,0.1 0,0.1 0.01,0.21 0.01,0.32z"/>
  <path class="fil8" d="M59.21 18.04l-0.41 0.07c-0.01,0.08 0.04,0.23 0.07,0.3 0.29,0.59 1.19,0.48 1.48,0.22 0.13,-0.13 0.25,-0.37 0.19,-0.63 -0.11,-0.48 -0.57,-0.49 -1.04,-0.63 -0.31,-0.1 -0.25,-0.36 0.05,-0.41 0.39,-0.06 0.44,0.12 0.51,0.31l0.42 -0.02c0.06,-0.22 -0.17,-0.47 -0.28,-0.55 -0.27,-0.17 -0.97,-0.22 -1.24,0.19 -0.13,0.19 -0.11,0.48 0.03,0.66 0.12,0.16 0.29,0.22 0.53,0.29 0.2,0.06 0.54,0.09 0.58,0.26 0.09,0.31 -0.48,0.51 -0.75,0.23 -0.1,-0.11 -0.08,-0.17 -0.14,-0.29z"/>
  <path class="fil11" d="M53.05 18.83c-0.03,0.05 -0.06,0.07 -0.07,0.15 0.16,0.01 0.33,-0.06 0.37,0.12 -0.07,0.17 -0.32,0.14 -0.52,0.12l-0.01 0.16c0.67,0.17 0.97,-0.28 0.66,-0.5 -0.07,-0.05 -0.02,0.02 -0.06,-0.05 0.16,-0.07 0.25,-0.01 0.49,-0.23 0.09,-0.09 0.25,-0.29 0.25,-0.47 -0.06,-0.04 -0.36,-0.13 -0.44,-0.13 -0.06,0.28 -0.25,0.54 -0.61,0.43 -0.27,-0.08 -0.36,-0.36 -0.37,-0.69 0,-0.98 0.72,-0.87 0.9,-0.59 0.06,0.08 0.05,0.12 0.08,0.18 0.07,-0.01 0.38,-0.08 0.44,-0.1 -0.01,-0.14 -0.17,-0.38 -0.25,-0.44 -0.44,-0.36 -1.11,-0.27 -1.44,0.21 -0.27,0.37 -0.36,1.5 0.45,1.79l0.13 0.04z"/>
  <path class="fil2" d="M50.75 17.92c0,-0.05 0.17,-0.46 0.21,-0.58 0.02,-0.08 0.02,-0.15 0.09,-0.19 0.03,0.17 0.25,0.65 0.26,0.78l-0.56 -0.01zm-0.78 0.87l0.46 0.01c0.07,-0.14 0.12,-0.37 0.19,-0.5l0.85 0c0.22,0.57 0.02,0.5 0.65,0.5 -0.01,-0.07 -0.81,-2.11 -0.86,-2.18l-0.42 0c-0.07,0.01 -0.06,0.05 -0.09,0.13l-0.34 0.87c-0.05,0.15 -0.43,1.1 -0.44,1.17z"/>
  <path class="fil2" d="M39.48 17.93c-0.1,0.01 -0.3,0 -0.42,0 -0.21,0 -0.15,-0.01 -0.08,-0.19 0.03,-0.09 0.19,-0.56 0.23,-0.59l0.27 0.78zm-1.33 0.86l0.44 0.01c0.07,-0.14 0.11,-0.37 0.19,-0.49l0.85 -0.01c0.06,0.14 0.12,0.39 0.2,0.49l0.45 0.01c0,-0.06 -0.58,-1.5 -0.68,-1.76 -0.04,-0.1 -0.08,-0.17 -0.12,-0.28 -0.06,-0.18 -0.04,-0.15 -0.26,-0.14 -0.19,0 -0.23,-0.05 -0.29,0.1 -0.13,0.32 -0.78,2.01 -0.78,2.07z"/>
  <path class="fil11" d="M62.21 10.96c-0.05,0.3 -0.1,0.73 -0.38,0.97 -0.25,0.21 -0.54,0.37 -0.99,0.28 -1.15,-0.25 -1.08,-2.19 -0.51,-2.75 0.56,-0.55 1.42,-0.33 1.72,0.32 0.14,0.3 0.22,0.79 0.16,1.18zm-2.48 0.02c0.04,0.48 0.16,0.83 0.45,1.11 0.5,0.5 1.54,0.54 2.04,-0.33 0.19,-0.34 0.24,-0.91 0.21,-1.35 -0.14,-1.79 -1.94,-1.83 -2.5,-0.79 -0.19,0.35 -0.23,0.91 -0.2,1.36z"/>
  <path class="fil2" d="M48.84 16.98c0.13,-0.01 0.42,-0.01 0.53,0.02 0.15,0.04 0.23,0.13 0.23,0.3 0,0.35 -0.46,0.32 -0.76,0.3l0 -0.62zm-0.43 1.81c0.03,0.01 0.36,0.03 0.42,-0.01l0.01 -0.81c0.34,-0.02 0.67,0.05 0.94,-0.12 0.21,-0.13 0.33,-0.4 0.25,-0.76 -0.06,-0.28 -0.26,-0.44 -0.59,-0.47 -0.22,-0.01 -0.82,-0.03 -1.03,0 -0.03,0.08 -0.02,1.38 -0.01,1.63 0,0.14 -0.03,0.44 0.01,0.54z"/>
  <path class="fil11" d="M37 17c0,-0.01 0.76,-0.17 0.76,0.3 0,0.29 -0.3,0.3 -0.51,0.3 -0.07,0 -0.19,0.02 -0.25,-0.01 -0.02,-0.09 -0.03,-0.52 0,-0.59zm-0.43 1.79l0.41 0.01c0.04,-0.19 -0.03,-0.69 0.02,-0.82 0.06,-0.06 0.61,0.07 0.92,-0.12 0.21,-0.12 0.35,-0.4 0.27,-0.76 -0.07,-0.3 -0.24,-0.44 -0.59,-0.47 -0.24,-0.03 -0.79,-0.03 -1.03,-0.01 -0.04,0.09 -0.01,1.56 -0.02,1.89 0,0.05 0,0.1 0,0.15 0,0.09 0,0.09 0.02,0.13z"/>
  <path class="fil11" d="M47.17 18.12l-0.41 -0.13c-0.04,0.15 -0.09,0.29 -0.18,0.36 -0.3,0.23 -0.8,0.11 -0.81,-0.57 -0.01,-0.34 0.04,-0.65 0.3,-0.77 0.12,-0.06 0.31,-0.07 0.44,0 0.17,0.09 0.15,0.14 0.23,0.31l0.43 -0.09c-0.03,-0.24 -0.21,-0.44 -0.37,-0.53 -0.48,-0.28 -1.48,-0.14 -1.49,1.02 -0.01,1.46 1.75,1.37 1.86,0.4z"/>
  <path class="fil12" d="M7.67 22.58c-0.05,-0.09 -0.11,-0.14 -0.18,-0.22 -0.13,-0.16 -0.67,-0.96 -0.79,-1.19 -0.35,-0.65 -0.47,-0.8 -0.76,-1.59 -0.09,-0.21 -0.35,-0.98 -0.39,-1.21 0.01,0.02 0.03,0.02 0.04,0.03 -0.08,-0.22 -0.19,-0.44 -0.28,-0.68 -0.17,-0.47 -0.29,-1.04 -0.36,-1.53l-0.06 -0.84c-0.03,-0.07 0.01,-0.01 -0.05,-0.06 -0.01,0.4 -0.05,0.86 -0.01,1.26 0.08,0.72 0.09,0.97 0.27,1.66 0.21,0.84 0.48,1.52 0.91,2.27 0.12,0.22 0.4,0.69 0.56,0.86 0.04,0.04 0.07,0.12 0.15,0.22l0.05 0.04c0,0.01 0,0.01 0.01,0.01 0,0.01 0.01,0.02 0.01,0.02l0.04 0.04c0.04,0.04 0,-0.02 0.02,0.03 0.08,0.17 0.04,0.08 0.16,0.24 0.06,0.07 0.09,0.1 0.16,0.16l0.27 0.28c0.03,0.02 0.02,0.02 0.04,0.04 0.05,0.04 0.15,0.13 0.19,0.16z"/>
  <path class="fil2" d="M44.38 11.73l-1.5 0 0 -1.28c0.1,-0.03 0.92,-0.01 1.15,-0.01 0.5,-0.01 1.03,0.04 1.14,0.5 0.04,0.22 -0.01,0.47 -0.14,0.61 -0.13,0.13 -0.41,0.18 -0.65,0.18zm-1.7 -1.49c-0.04,0.15 -0.02,1.45 -0.01,1.69l1.79 0c0.58,-0.03 0.93,-0.26 0.92,-0.87 -0.01,-0.62 -0.45,-0.77 -0.95,-0.82 -0.25,-0.02 -1.57,-0.05 -1.75,0z"/>
  <path class="fil11" d="M42.55 16.98c0.15,0.01 0.51,-0.02 0.62,0.01 0.05,0.28 -0.03,1.63 0.02,1.8l0.42 0.01c0.04,-0.18 -0.04,-1.9 0.02,-1.81l0.46 -0.01c0.18,0 0.17,0.01 0.17,-0.17 0,-0.04 0,-0.16 -0.02,-0.18 -0.05,-0.03 -1.52,-0.02 -1.68,-0.01 -0.03,0.08 -0.02,0.27 -0.01,0.36z"/>
  <path class="fil0" d="M55.36 16.98c-0.69,0.13 -0.59,1.66 0.27,1.46 0.41,-0.1 0.45,-0.53 0.43,-0.88 -0.01,-0.37 -0.28,-0.67 -0.7,-0.58z"/>
  <path class="fil8" d="M42.88 7.89c0.15,-0.04 1.09,-0.02 1.29,-0.01 0.2,0.01 0.4,0 0.56,0.09 0.26,0.16 0.32,0.63 0,0.86 -0.14,0.1 -0.36,0.1 -0.56,0.1 -0.25,0.01 -1.12,0.04 -1.29,0l0 -1.04zm-0.2 -0.22c-0.04,0.2 -0.01,0.74 -0.01,0.98 0.01,0.61 -0.12,0.49 0.5,0.49 0.33,0 0.66,0 0.99,0 0.47,-0.01 0.82,-0.07 0.95,-0.52 0.11,-0.36 -0.02,-0.81 -0.51,-0.91 -0.26,-0.06 -1.62,-0.07 -1.92,-0.04z"/>
  <path class="fil1" d="M51.66 9.14c0.02,0.12 0.19,0.33 0.28,0.71 0.07,0.32 0.07,0.57 0.09,0.9 0.02,0 0.39,-0.18 0.43,-0.2 0.03,-0.1 0.02,-1.72 0,-1.8 -0.08,0.01 -0.73,0.34 -0.8,0.39z"/>
  <path class="fil13" d="M44.53 18.79l0.43 0.01c0.03,-0.15 0.01,-1.54 0.01,-1.91l-0.02 -0.25c0,-0.01 0,-0.01 0,-0.02l-0.42 0c-0.02,0.08 -0.02,2.05 0,2.17z"/>
  <path class="fil13" d="M47.55 18.79l0.42 0.01c0.03,-0.12 0.01,-1.66 0.01,-2.05 0,-0.04 0,-0.09 -0.02,-0.12l-0.41 -0.01c-0.03,0.09 -0.01,1.66 -0.01,2.04l0.01 0.13z"/>
  <path class="fil8" d="M69.14 6.58l0.81 0 0 0.95 -0.81 -0.02 0 -0.75 0 -0.18zm1.01 1.14c0,-0.01 0.01,-0.02 0.01,-0.02l0.01 -1.32 -1.24 -0.01 0 1.31c0.01,0.07 0.07,0.05 0.26,0.05 0.17,0 0.9,0.01 0.96,-0.01z"/>
  <polygon class="fil5" points="69.14,6.76 69.14,7.51 69.95,7.53 69.95,6.58 69.14,6.58 "/>
  <path class="fil14" d="M40.96 17.53c0.15,0.01 0.42,0.01 0.57,0 0.19,-0.01 0.31,-0.08 0.3,-0.28 -0.01,-0.18 -0.13,-0.25 -0.3,-0.27 -0.1,-0.01 -0.5,-0.02 -0.57,0.01l0 0.54z"/>
  <path class="fil15" d="M37 17c-0.03,0.07 -0.02,0.5 0,0.59 0.06,0.03 0.18,0.01 0.25,0.01 0.21,0 0.51,-0.01 0.51,-0.3 0,-0.47 -0.76,-0.31 -0.76,-0.3z"/>
  <path class="fil16" d="M48.84 17.6c0.3,0.02 0.76,0.05 0.76,-0.3 0,-0.17 -0.08,-0.26 -0.23,-0.3 -0.11,-0.03 -0.4,-0.03 -0.53,-0.02l0 0.62z"/>
  <path class="fil10" d="M55.02 16.43l0.17 0.02c0.06,-0.08 0.03,-0.18 0.21,-0.13 0.09,0.03 0.16,0.08 0.25,0.1 0.25,0.07 0.39,-0.09 0.36,-0.33l-0.18 -0.01c-0.08,0.26 -0.2,0.04 -0.45,0 -0.25,-0.04 -0.4,0.11 -0.36,0.35z"/>
  <path class="fil16" d="M50.75 17.92l0.56 0.01c-0.01,-0.13 -0.23,-0.61 -0.26,-0.78 -0.07,0.04 -0.07,0.11 -0.09,0.19 -0.04,0.12 -0.21,0.53 -0.21,0.58z"/>
  <path class="fil17" d="M39.48 17.93l-0.27 -0.78c-0.04,0.03 -0.2,0.5 -0.23,0.59 -0.07,0.18 -0.13,0.19 0.08,0.19 0.12,0 0.32,0.01 0.42,0z"/>
 </g>
</svg>
