<?xml version="1.0" encoding="UTF-8"?>
<svg xmlns="http://www.w3.org/2000/svg" xml:space="preserve" width="199px" height="49px" version="1.1" style="shape-rendering:geometricPrecision; text-rendering:geometricPrecision; image-rendering:optimizeQuality; fill-rule:evenodd; clip-rule:evenodd"
viewBox="0 0 142.75 34.85"
 xmlns:xlink="http://www.w3.org/1999/xlink"
 xmlns:xodm="http://www.corel.com/coreldraw/odm/2003">
 <defs>
  <style type="text/css">
   <![CDATA[
    .fil0 {fill:#FEFEFE}
    .fil2 {fill:#018A49}
    .fil3 {fill:#2C3884}
    .fil1 {fill:#D0272F}
    .fil4 {fill:#DBDBDB}
    .fnt0 {font-weight:normal;font-size:12.96px;font-family:Arial, Verdana, sans-serif}
   ]]>
  </style>
 </defs>
 <g id="Camada_x0020_1">
  <metadata id="CorelCorpID_0Corel-Layer"/>
  <path class="fil0" d="M17.42 0c9.63,0 17.43,7.8 17.43,17.42 0,9.63 -7.8,17.43 -17.43,17.43 -9.62,0 -17.42,-7.8 -17.42,-17.43 0,-9.62 7.8,-17.42 17.42,-17.42zm0 8.12c5.14,0 9.31,4.16 9.31,9.3 0,5.14 -4.17,9.31 -9.31,9.31 -5.14,0 -9.3,-4.17 -9.3,-9.31 0,-5.14 4.16,-9.3 9.3,-9.3z"/>
  <g id="_2875305730080">
   <path class="fil1" d="M25.71 31.79c-0.22,0.04 -0.95,0.25 -1.46,0.34 -3.51,0.61 -7.34,0.12 -10.37,-1.6 -0.4,-0.22 -0.73,-0.45 -1.08,-0.7 -0.97,-0.66 -2.03,-1.71 -2.73,-2.62 -0.92,-1.17 -1.95,-2.9 -2.42,-4.74 -1.15,-4.41 -0.47,-8.22 1.73,-11.43 0.34,-0.5 0.5,-0.63 0.78,-1 0.09,-0.1 0.13,-0.13 0.22,-0.22l1.59 -1.54c1.3,-1.19 -0.34,-1.82 -2.58,-0.85 -0.86,0.37 -1.62,0.86 -2.24,1.35 -0.17,0.13 -0.36,0.26 -0.5,0.4 -0.15,0.14 -0.33,0.26 -0.47,0.41 -1.02,0.99 -1.59,1.51 -2.46,2.9 -2.94,4.69 -2.94,10.43 0.45,14.86 0.26,0.34 0.51,0.68 0.8,1.01 0.04,0.04 0.07,0.06 0.11,0.1 0.04,0.05 0.06,0.08 0.1,0.13 0.07,0.09 0.15,0.14 0.22,0.23 0.15,0.17 0.27,0.3 0.44,0.46 2.26,2.11 4.89,3.67 8.12,4.35 3,0.63 6.42,0.47 9.32,-0.67 0.54,-0.21 1.34,-0.55 1.84,-0.82l0.45 -0.24c0.08,-0.05 0.09,-0.05 0.14,-0.11l0 0z"/>
   <path class="fil2" d="M30.73 13.01c-0.01,4.19 -1.68,7.92 -3.71,10.27 -0.14,0.16 -0.23,0.29 -0.41,0.45 -0.14,0.15 -0.26,0.3 -0.41,0.45 -2.35,2.33 -5.19,3.54 -8.76,3.54 -0.86,0 -1.77,-0.14 -2.56,-0.33 -0.54,-0.13 -1.84,-0.66 -2.33,-0.49 -0.63,0.22 -0.11,1.02 0.16,1.36 0.13,0.15 0.23,0.24 0.37,0.37 1.49,1.47 4.11,2.32 6.17,2.52 3.44,0.34 6.55,-0.28 9.24,-2.25 0.58,-0.42 1.09,-0.89 1.52,-1.35 0.24,-0.26 0.46,-0.49 0.69,-0.77 2.1,-2.62 3.27,-5.94 3.27,-9.91 -0.01,-3.74 -1.38,-7.36 -3.53,-10.09 -0.09,-0.12 -0.18,-0.22 -0.28,-0.34 -0.56,-0.69 -1.49,-1.62 -2.21,-2.13 -0.2,-0.14 -0.51,-0.42 -0.72,-0.51l0.67 0.88c0.23,0.32 0.45,0.62 0.66,0.96 1.31,2.12 2.17,4.72 2.17,7.37l0 0z"/>
   <path class="fil3" d="M1.27 14c0.02,-0.02 0.02,-0.02 0.04,-0.06l0.23 -0.48c0.72,-1.42 1.92,-3.06 3.1,-4.12l0.43 -0.39c0.61,-0.55 1.61,-1.22 2.37,-1.66 2.93,-1.68 6.83,-2.39 10.57,-1.36 0.86,0.24 1.59,0.52 2.35,0.86 1.33,0.61 2.11,1.19 3.17,2.02l0.85 0.76c0.05,0.05 0.04,0.06 0.1,0.11 0.05,0.04 0.07,0.05 0.11,0.1 0.14,0.14 0.23,0.26 0.38,0.42 0.68,0.71 1.51,2.07 1.88,2.96 0.16,0.41 0.29,0.76 0.42,1.19 0.12,0.41 0.22,0.89 0.4,1.23 0.61,1.19 2.03,-0.24 1.26,-3.97 -0.75,-3.69 -2.74,-6.35 -4.83,-8.03 -2.49,-2 -5.78,-3.22 -9.94,-2.47 -3.6,0.66 -6.63,2.66 -8.37,4.5 -0.07,0.08 -0.11,0.11 -0.2,0.19l-0.94 1.08c-0.13,0.17 -0.23,0.3 -0.34,0.45l-0.67 0.94c-0.69,1.07 -1.16,1.96 -1.65,3.2 -0.23,0.56 -0.66,1.89 -0.72,2.53l0 0z"/>
   <path class="fil4" d="M27.55 15.78c0.02,0.58 0.09,1.08 0.06,1.69 -0.03,0.55 -0.09,1.07 -0.18,1.6 -0.18,0.96 -0.47,1.88 -0.85,2.69 -0.53,1.13 -1.31,2.32 -2.17,3.12l-0.95 0.85c0.5,-0.17 1.91,-1.36 2.34,-1.83 0.11,-0.12 0.21,-0.19 0.31,-0.32 0.18,-0.2 0.37,-0.42 0.55,-0.64 0.09,-0.12 0.17,-0.21 0.26,-0.33 0.49,-0.66 0.76,-1.07 1.19,-1.82 1.1,-1.91 2.05,-4.89 2.04,-7.52 0,-2.9 -0.85,-5.59 -2.32,-7.98 -0.34,-0.56 -0.82,-1.2 -1.28,-1.66 -1.52,-1.51 -5.5,-2.78 -7.6,-2.78l1.44 0.38c0.48,0.16 0.87,0.3 1.32,0.49 0.94,0.4 2.08,1.12 2.81,1.72l0.74 0.63 1.1 1.14c0.45,0.56 0.75,0.9 1.18,1.56 1.47,2.32 2.64,5.63 1.83,8.54 -0.13,0.46 -0.32,0.95 -0.7,1.11 -0.54,0.23 -0.88,-0.37 -1.12,-0.64l0 0z"/>
   <path class="fil4" d="M31.16 26.63l-1.13 1.23c-0.08,0.08 -0.15,0.15 -0.24,0.24 -0.43,0.41 -1.12,0.98 -1.6,1.3 -0.39,0.26 -0.76,0.49 -1.2,0.74 -1.87,1.07 -4.13,1.45 -6.31,1.42 -2.6,-0.03 -5.44,-0.94 -7.3,-2.37 -0.65,-0.51 -1.53,-1.27 -1.79,-2.07 -0.09,-0.29 -0.09,-0.55 0.11,-0.72 0.22,-0.17 0.53,-0.1 0.8,-0.06l-1.01 -0.73c-0.34,-0.27 -0.67,-0.55 -0.95,-0.83l-0.81 -0.95c-1.15,-1.56 -1.8,-2.95 -2.13,-4.93 -0.09,-0.57 -0.11,-1.06 -0.17,-1.62 -0.05,0.08 -0.06,0.19 -0.06,0.28 -0.01,0.1 -0.02,0.21 -0.03,0.32 -0.02,0.23 -0.02,0.46 -0.02,0.68 -0.02,1.04 0.25,2.73 0.53,3.65 0.61,1.99 1.57,3.93 2.91,5.39 0.06,0.06 0.08,0.11 0.14,0.18l0.51 0.53c0.23,0.23 0.48,0.42 0.73,0.67 0.3,0.29 1.23,0.95 1.59,1.16 0.59,0.36 1.17,0.66 1.86,0.94 1.33,0.55 2.94,0.89 4.53,1.01 1.55,0.11 3.63,0.01 5.03,-0.4 1.69,-0.5 2.49,-1.14 3.5,-2.03 0.28,-0.24 1.07,-1.09 1.34,-1.42l0.89 -1.2c0.09,-0.12 0.2,-0.31 0.28,-0.41l0 0z"/>
   <path class="fil4" d="M1.37 21.05c-0.02,-0.6 -0.08,-1.12 -0.06,-1.75 0.01,-0.54 0.07,-1.09 0.14,-1.63 0.43,-2.89 2.02,-5.78 3.93,-7.66 1.08,-1.07 2.17,-1.99 3.6,-2.64 0.86,-0.38 1.83,-0.72 2.9,-0.67 0.49,0.02 1.19,0.07 1.18,0.6 -0.01,0.26 -0.15,0.44 -0.29,0.59 -0.15,0.17 -0.27,0.33 -0.43,0.48 0.68,-0.26 0.89,-0.52 2.07,-0.86 1.76,-0.52 3.45,-0.58 5.25,-0.23 0.42,0.08 0.78,0.18 1.18,0.31l1.06 0.43c-0.49,-0.47 -2.52,-1.31 -3.28,-1.54 -1.34,-0.41 -2.8,-0.58 -4.3,-0.56 -3.4,0.05 -6.8,1.39 -9.25,3.43l-0.94 0.86c-0.39,0.39 -0.75,0.81 -1.13,1.28 -0.32,0.41 -0.7,1.01 -0.96,1.48 -1.13,2.02 -1.3,3.69 -1.07,6.01 0.04,0.37 0.09,0.72 0.16,1.07 0.03,0.15 0.13,0.86 0.24,1l0 0z"/>
  </g>
  <g id="_2875305742608">
   <path class="fil0" d="M41.59 18.73c0.4,0.05 3,0.05 3.26,-0.02l1.5 -5.6c0.42,-1.6 0.91,-3.28 1.31,-4.88l0.21 -0.7 0.12 0.33c0.02,0.11 0.07,0.23 0.09,0.35l0.56 2.11c0.24,0.94 0.5,1.87 0.76,2.81 0.16,0.63 1.38,5.41 1.5,5.6l3.18 0 0.92 -3.75c0.61,-2.48 1.29,-5.06 1.87,-7.54 0.07,-0.38 0.92,-3.54 0.92,-3.8l-3.07 0c-0.31,1.1 -0.85,3.84 -1.15,5.2 -0.21,0.87 -0.42,1.74 -0.59,2.6 -0.07,0.31 -0.54,2.53 -0.61,2.63l-0.63 -2.58c-0.4,-1.69 -0.89,-3.52 -1.31,-5.23 -0.21,-0.84 -0.4,-1.78 -0.64,-2.6l-3.65 -0.02c-0.61,2.53 -1.43,5.15 -2.04,7.66 -0.19,0.78 -0.56,1.85 -0.66,2.63 -0.14,-0.12 -0.12,-0.33 -0.19,-0.61l-0.39 -1.95c-0.21,-0.84 -0.36,-1.73 -0.57,-2.58 -0.37,-1.47 -0.77,-3.58 -1.12,-5.15l-3.17 0c0,0.23 0.36,1.59 0.45,1.9l2.25 9.42c0.28,1.22 0.56,2.62 0.89,3.77l0 0z"/>
   <path class="fil0" d="M78.69 12.22c0.42,-0.12 3.52,-0.05 4.1,0 1.18,0.11 2.21,0.47 2.23,1.92 0.02,1.43 -0.8,1.97 -2.16,2.04l-4.19 0c-0.03,-0.57 -0.07,-3.61 0.02,-3.96l0 0zm0 -6.03c0.7,-0.07 3.89,-0.04 4.5,0.1 1.15,0.23 1.45,1.29 1.2,2.13 -0.31,1.05 -1.13,1.19 -2.23,1.22 -0.77,0 -1.55,0 -2.32,0 -1.45,0 -1.15,0.28 -1.17,-1.15 0,-0.56 -0.07,-1.83 0.02,-2.3l0 0zm-3.09 12.54l2.93 0.03c0.96,0 1.94,0 2.93,0 1.75,-0.03 3.77,0.09 5.01,-0.87 2.32,-1.83 2.63,-5.91 -0.86,-7.06 -0.05,-0.02 -0.12,-0.04 -0.15,-0.04l-0.14 -0.1c0.28,-0.14 0.54,-0.28 0.78,-0.47 0.82,-0.63 1.26,-1.54 1.33,-2.64 0.07,-1.01 -0.47,-2.18 -1.12,-2.79 -0.21,-0.17 -0.49,-0.4 -0.78,-0.57 -1.05,-0.63 -3.28,-0.58 -4.66,-0.58 -0.66,0 -5.01,-0.07 -5.25,0.05l-0.02 15.04 0 0z"/>
   <path class="fil0" d="M69.69 15.24c-0.77,0.42 -1.48,0.94 -2.6,1.1 -3.7,0.54 -5.39,-2.23 -5.16,-5.72 0.17,-2.18 0.89,-3.79 2.96,-4.43 1,-0.33 2.27,-0.23 3.11,0.21 1.27,0.66 1.34,1.6 1.64,2.04l2.98 -0.56c0.07,-0.19 -0.3,-1.08 -0.4,-1.31 -0.35,-0.82 -0.91,-1.43 -1.57,-1.97 -1.66,-1.36 -5.08,-1.55 -7.17,-0.82 -3.87,1.38 -5.18,5.39 -4.52,9.23 0.26,1.48 0.82,2.58 1.66,3.66 0.24,0.3 0.28,0.28 0.42,0.45 0.43,0.51 1.93,1.38 2.84,1.59 3.12,0.8 5.86,0.09 8.37,-1.57 0.09,-0.07 0.47,-0.35 0.49,-0.42 0.05,-0.12 0.02,-2.35 0.02,-2.58 0,-1.13 0.07,-2.39 0,-3.49 -0.23,-0.07 -6.33,-0.07 -6.49,0l0 2.53c0.38,0.09 2.72,-0.05 3.42,0.02l0 2.04 0 0z"/>
   <path class="fil0" d="M118.65 13.95c-0.07,-1.05 0.03,-2.37 0.47,-3.19 1.31,-2.43 5.53,-2.34 5.86,1.86 0.07,1.03 -0.05,2.36 -0.49,3.16 -1.17,2.04 -3.61,1.94 -4.78,0.77 -0.68,-0.65 -0.96,-1.47 -1.06,-2.6l0 0zm2.72 -6.35c-1.5,0.12 -2.69,0.75 -3.59,1.83 -0.86,1.03 -1.21,2.67 -1.1,4.33 0.07,1.13 0.31,2.23 0.89,3.14 0.26,0.38 0.43,0.47 0.64,0.73 0.86,0.96 2.65,1.5 4.05,1.36 0.75,-0.07 1.5,-0.28 2.06,-0.61 0.52,-0.28 1.18,-0.77 1.5,-1.22 0.87,-1.22 1.2,-2.44 1.13,-4.33 -0.05,-1.48 -0.42,-2.42 -1.22,-3.5 -0.8,-1.03 -2.55,-1.87 -4.36,-1.73l0 0z"/>
   <path class="fil0" d="M94.96 17.4c-0.82,0 -1.55,-0.38 -2,-0.78 -1.14,-0.96 -1.21,-2.95 -1.07,-4.33 0.4,-3.78 4.68,-4.08 5.93,-1.27 0.32,0.73 0.35,1.5 0.35,2.39 0.02,2.06 -0.96,3.99 -3.21,3.99zm-0.42 -9.8c-1.62,0.12 -2.96,1.01 -3.57,1.87 -0.93,1.34 -1.12,2.39 -1.08,4.34 0.05,2.18 1.13,4.22 3.26,4.9 0.75,0.26 1.53,0.35 2.37,0.28 0.77,-0.09 1.52,-0.3 2.06,-0.63 0.33,-0.21 0.52,-0.33 0.8,-0.57 1.41,-1.14 1.83,-2.97 1.76,-4.96 -0.07,-1.27 -0.31,-2.16 -0.94,-3.15 -0.07,-0.09 -0.21,-0.28 -0.28,-0.37 -0.89,-1.08 -2.53,-1.85 -4.38,-1.71l0 0z"/>
   <path class="fil0" d="M108.06 15.19c-0.19,-0.02 -1.76,0.17 -1.9,0.26 -0.02,0.38 0.35,1.34 0.54,1.64 0.14,0.24 0.3,0.47 0.47,0.66 0.82,0.98 2.81,1.36 4.31,1.22 1.45,-0.17 2.11,-0.52 3.02,-1.46 0.75,-0.77 0.99,-2.41 0.33,-3.47 -0.58,-0.96 -1.54,-1.21 -2.83,-1.61 -0.82,-0.26 -2.91,-0.68 -3.4,-1.13 -0.45,-0.42 -0.42,-1.15 0,-1.59 0.28,-0.33 1.05,-0.54 1.66,-0.59 0.68,-0.02 1.41,0.05 1.9,0.38 0.54,0.35 0.59,0.72 0.82,1.43 0.23,0 1.66,-0.19 1.8,-0.26 -0.04,-1.2 -0.79,-2.13 -1.8,-2.62 -1.64,-0.8 -5.3,-0.8 -6.3,1.59 -0.59,1.36 -0.03,2.65 0.79,3.26 0.78,0.56 2.14,0.91 3.21,1.19 0.57,0.14 1.25,0.31 1.74,0.52 0.63,0.23 0.94,0.56 0.84,1.36 -0.21,1.75 -3.47,1.85 -4.52,0.79 -0.4,-0.39 -0.52,-0.86 -0.68,-1.57l0 0z"/>
   <path class="fil0" d="M130.72 9.47c-0.02,-0.37 0.07,-1.35 -0.04,-1.61 -0.05,-0.03 -1.65,-0.14 -1.69,0.07 0,0 0,0.02 0,0.02l-0.03 8.06c0,0.85 -0.04,1.88 0.03,2.72 0.23,0.05 1.71,0.07 1.9,-0.02 0.04,-0.28 0,-2.53 0,-3 0,-1.01 0,-1.99 0,-3 0.02,-1.76 0.61,-3.33 2.57,-3.47 1.04,-0.07 1.79,0.21 2.21,0.82 0.4,0.63 0.37,1.81 0.37,2.65 0,1.01 0,1.99 0,3 0,0.49 0,1.01 0,1.5 0,0.33 -0.04,1.22 0.03,1.48 0.04,0.09 0.77,0.04 0.91,0.04 0.23,0 0.77,0.07 0.96,-0.02 0.07,-0.82 0.02,-3.99 0.02,-5.06 -0.02,-2.11 0.31,-4.76 -1.87,-5.7 -0.68,-0.3 -1.36,-0.42 -2.18,-0.35 -1.29,0.09 -1.85,0.49 -2.6,1.22l-0.31 0.3c-0.07,0.1 -0.21,0.31 -0.28,0.35l0 0z"/>
   <path class="fil0" d="M102.15 18.76l1.85 0c0.07,-0.31 0.03,-7.08 0.03,-7.55 0,-2.51 0.07,-5.06 0,-7.55l-1.9 -0.02c-0.07,1.22 0,2.53 -0.02,3.77 0,1.57 -0.03,11.13 0.04,11.35l0 0z"/>
   <path class="fil0" d="M142.58 7.83c-0.51,-0.02 -1.08,0.03 -1.59,0 -0.21,0 -0.26,-0.02 -0.31,0.12l0.03 10.78 1.9 0.03c0.04,-0.9 0,-1.86 0,-2.75 0,-0.98 0.07,-7.78 -0.03,-8.18z"/>
   <polygon class="fil0" points="140.71,4.06 140.71,5.82 142.61,5.87 142.61,3.64 140.71,3.64 "/>
  </g>
  <text x="40.47" y="31.13"  class="fil0 fnt0">PARTICIPAÇÕES</text>
 </g>
</svg>
