<?xml version="1.0" encoding="UTF-8"?>
<svg xmlns="http://www.w3.org/2000/svg" xml:space="preserve" width="199px" height="78px" version="1.1" style="shape-rendering:geometricPrecision; text-rendering:geometricPrecision; image-rendering:optimizeQuality; fill-rule:evenodd; clip-rule:evenodd"
viewBox="0 0 168.16 66.04"
 xmlns:xlink="http://www.w3.org/1999/xlink"
 xmlns:xodm="http://www.corel.com/coreldraw/odm/2003">
 <defs>
  <style type="text/css">
   <![CDATA[
    .fil5 {fill:#00894A}
    .fil0 {fill:#008B4C}
    .fil4 {fill:#008C4B}
    .fil15 {fill:#008F4E}
    .fil14 {fill:#009150}
    .fil17 {fill:#018A4E}
    .fil16 {fill:#028D4E}
    .fil3 {fill:#2D3985}
    .fil6 {fill:#CE2831}
    .fil1 {fill:#D02932}
    .fil7 {fill:#D5D5D7}
    .fil12 {fill:#E6E7E7}
    .fil13 {fill:#F6FCFA}
    .fil9 {fill:#FAC31F}
    .fil2 {fill:#FAFBFC}
    .fil11 {fill:#FBFDFD}
    .fil8 {fill:#FCFDFD}
    .fil10 {fill:#FDFEFD}
   ]]>
  </style>
 </defs>
 <g id="Camada_x0020_1">
  <metadata id="CorelCorpID_0Corel-Layer"/>
  <path class="fil0" d="M106.34 44.86c-0.06,-0.27 -0.06,-4.99 0,-5.18l0.99 0.02c0.01,0.01 0.01,0.02 0.02,0.03l0.03 0.61c0,0.87 0.04,4.19 -0.02,4.54l-1.02 -0.02zm7.17 -0.31c0,-0.9 -0.04,-4.64 0.03,-4.87l0.98 0.02c0.06,0.08 0.05,0.21 0.05,0.3 0,0.94 0.05,4.61 -0.02,4.88l-1 -0.02 -0.04 -0.31zm5.82 0.32c0.02,-0.18 0.92,-2.44 1.06,-2.79l0.8 -2.09c0.07,-0.18 0.05,-0.27 0.2,-0.31l1.01 0c0.11,0.17 2.05,5.06 2.06,5.2 -1.5,0.01 -1.03,0.18 -1.55,-1.19l-2.04 0.02c-0.17,0.31 -0.28,0.85 -0.46,1.18l-1.08 -0.02zm-28.23 0c-0.01,-0.14 1.54,-4.18 1.86,-4.94 0.15,-0.37 0.25,-0.25 0.7,-0.25 0.52,-0.01 0.46,-0.09 0.62,0.34 0.08,0.25 0.19,0.44 0.29,0.68 0.24,0.61 1.61,4.06 1.61,4.18l-1.07 -0.02c-0.2,-0.23 -0.34,-0.83 -0.47,-1.17l-2.03 0.02c-0.19,0.3 -0.29,0.86 -0.46,1.18l-1.05 -0.02zm41.06 -5.26c1.57,-0.24 2.72,0.87 2.82,2.29 0.12,1.7 -0.55,2.82 -2.09,3.04 -1.54,0.22 -2.7,-0.63 -2.84,-2.29 -0.13,-1.55 0.48,-2.78 2.11,-3.04zm-44.82 5.25c-0.07,-0.1 -0.06,-0.09 -0.06,-0.31 0,-0.11 0.01,-0.23 0.01,-0.34 0.01,-0.79 -0.06,-4.3 0.04,-4.52 0.58,-0.06 1.87,-0.04 2.46,0.01 0.82,0.07 1.24,0.42 1.4,1.13 0.2,0.86 -0.13,1.52 -0.64,1.83 -0.74,0.44 -2.06,0.12 -2.2,0.28 -0.12,0.29 0.04,1.5 -0.04,1.95l-0.97 -0.03zm9.4 -4.27c0,-0.1 0,-0.78 0.01,-0.83 0.04,-0.13 0.14,-0.09 0.31,-0.08 0.8,0.01 2.42,-0.08 3.02,0.12 1.22,0.41 1.21,2.38 -0.12,2.72l-0.26 0.08c0,-0.01 -0.02,0.01 -0.03,0.01 0.31,0.36 0.31,0.02 0.95,1.03l0.57 0.95c0.09,0.12 0.14,0.14 0.16,0.29 -0.24,0.02 -0.5,0 -0.75,0.01 -0.28,0 -0.44,0.06 -0.58,-0.14 -0.44,-0.61 -1.02,-1.87 -1.57,-2 -0.66,-0.16 -0.65,0.04 -0.65,0.24 0,0.08 0,0.17 0,0.25 0,0.19 0,0.37 0,0.55 0,0.33 0.02,0.79 -0.01,1.1l-0.81 0c-0.14,-0.01 -0.16,-0.02 -0.2,-0.07 -0.07,-0.1 -0.04,-3.85 -0.04,-4.23zm18.87 4.27c-0.11,-0.24 -0.04,-0.94 -0.04,-1.28 -0.01,-0.59 -0.04,-3.71 0.03,-3.89 0.5,-0.07 1.92,-0.03 2.46,0.01 0.78,0.06 1.26,0.44 1.41,1.12 0.2,0.84 -0.1,1.5 -0.6,1.81 -0.64,0.4 -1.43,0.23 -2.25,0.28l-0.03 1.93c-0.13,0.1 -0.91,0.04 -0.98,0.02zm20.21 -4.18c-0.01,-0.25 -0.01,-0.52 -0.01,-0.76 0,-0.22 -0.05,-0.21 0.13,-0.24l2.65 0c1.03,0 1.08,-0.11 1.08,0.28 0,0.17 0.03,0.42 -0.03,0.55 -0.09,0.11 -2.45,-0.04 -2.76,0.06l0 0.78c0,0.46 0.04,0.37 0.82,0.37l1.77 0 -0.01 0.88 -2.57 0.02 0.02 1.38c0.5,0.01 2.66,-0.03 2.83,0.03 0.05,0.18 0.06,0.66 -0.01,0.82 -0.21,0.09 -3.4,0.03 -3.89,0.01 -0.07,-0.21 -0.02,-3.51 -0.02,-4.18zm-9.45 4.18c-1.94,-0.67 -1.71,-3.38 -1.08,-4.27 0.79,-1.13 2.4,-1.36 3.45,-0.5 0.18,0.15 0.56,0.71 0.58,1.04 -0.12,0.07 -0.87,0.24 -1.04,0.25 -0.08,-0.15 -0.06,-0.25 -0.18,-0.43 -0.45,-0.66 -2.17,-0.94 -2.15,1.41 0,0.79 0.22,1.46 0.88,1.66 0.86,0.25 1.31,-0.37 1.45,-1.03 0.19,-0.01 0.9,0.2 1.05,0.3 -0.01,0.43 -0.38,0.92 -0.6,1.12 -0.57,0.52 -0.78,0.4 -1.16,0.56 0.08,0.15 -0.04,0 0.13,0.12 0.76,0.52 0.03,1.59 -1.57,1.2l0.01 -0.39c0.49,0.04 1.08,0.13 1.25,-0.3 -0.1,-0.42 -0.5,-0.24 -0.88,-0.28 0.03,-0.2 0.1,-0.23 0.17,-0.35l-0.31 -0.11zm-13.73 -1.59c-0.27,2.32 -4.47,2.54 -4.45,-0.95 0.02,-2.77 2.41,-3.12 3.57,-2.45 0.37,0.22 0.8,0.71 0.87,1.28l-1.02 0.21c-0.19,-0.42 -0.15,-0.52 -0.55,-0.75 -0.31,-0.17 -0.75,-0.14 -1.06,0 -0.6,0.29 -0.73,1.03 -0.72,1.84 0.03,1.63 1.23,1.91 1.94,1.36 0.22,-0.16 0.34,-0.5 0.43,-0.85l0.99 0.31zm-11.02 -2.72c-0.05,-0.22 -0.07,-0.67 0,-0.86 0.4,-0.04 3.89,-0.04 4.02,0.02 0.06,0.05 0.04,0.33 0.04,0.42 0,0.44 0.03,0.43 -0.41,0.42l-1.08 0.02c-0.14,-0.22 0.04,3.89 -0.06,4.32l-0.99 -0.02c-0.13,-0.4 0.07,-3.64 -0.04,-4.29 -0.27,-0.09 -1.14,-0.01 -1.48,-0.03zm39.78 2.53c0.13,0.29 0.08,0.43 0.32,0.69 0.65,0.68 2.01,0.19 1.8,-0.54 -0.11,-0.42 -0.92,-0.49 -1.39,-0.62 -0.58,-0.17 -0.98,-0.33 -1.27,-0.71 -0.32,-0.43 -0.37,-1.11 -0.07,-1.58 0.64,-0.97 2.33,-0.85 2.96,-0.43 0.26,0.17 0.81,0.77 0.68,1.3l-1.02 0.04c-0.16,-0.45 -0.27,-0.88 -1.22,-0.73 -0.71,0.11 -0.85,0.74 -0.1,0.97 1.11,0.35 2.2,0.36 2.47,1.52 0.15,0.62 -0.13,1.19 -0.45,1.49 -0.7,0.64 -2.85,0.88 -3.54,-0.53 -0.07,-0.15 -0.19,-0.52 -0.15,-0.69l0.98 -0.18zm-10.03 -3.85c-0.07,-0.57 0.27,-0.94 0.86,-0.83 0.61,0.1 0.89,0.62 1.08,-0.01l0.44 0.02c0.06,0.58 -0.26,0.98 -0.86,0.81 -0.22,-0.06 -0.39,-0.18 -0.6,-0.24 -0.43,-0.14 -0.36,0.1 -0.49,0.3l-0.43 -0.05zm-67.23 10.05c0.28,0.09 10.48,0.02 11.73,0.04 3.91,0.04 7.85,-0.01 11.77,0 7.86,0.02 15.71,-0.02 23.56,0 7.84,0.02 15.68,0.01 23.52,0l20.61 0c0.9,0 2.08,0.06 2.94,-0.01l0.01 -13.89c-0.73,-0.07 -10.75,-0.02 -11.74,-0.02 -19.61,0.04 -39.24,0.01 -58.85,0 -3.93,0 -7.86,0.02 -11.78,0 -1.2,-0.01 -11.52,-0.06 -11.75,0.05l-0.02 13.83z"/>
  <path class="fil1" d="M76.97 49.81c-0.22,-0.11 -7.98,-0.02 -8.97,-0.03 -0.6,-0.01 -0.89,0.31 -1.57,0.65l-2.95 1.55c-0.5,0.27 -1,0.5 -1.5,0.77 -0.99,0.53 -1.99,0.97 -3.03,1.47 -1.04,0.49 -2.08,0.88 -3.14,1.36 -1.05,0.46 -2.14,0.83 -3.24,1.26 -4.81,1.9 -13.33,3.91 -18.43,4.13 -3.06,0.13 -5.17,-0.15 -7.8,-1.13 -2.32,-0.87 -4.47,-2.24 -6.37,-3.77l-1.21 -1.06c-0.96,-0.9 -1.09,-1.09 -1.92,-2l-0.78 -0.94c-1.23,-1.58 -2.4,-3.51 -3.28,-5.73 -1.88,-4.78 -2.01,-10.43 -0.52,-15.51 0.79,-2.69 2.21,-5.39 3.85,-7.37l1.09 -1.18c0.21,-0.19 0.36,-0.35 0.57,-0.53l0.59 -0.55c0.12,-0.12 0.18,-0.14 0.3,-0.25 0.59,-0.57 1.81,-1.35 1.76,-2.19 -0.03,-0.55 -0.78,-0.84 -1.39,-0.89 -2.63,-0.24 -5.9,1.79 -7.86,3.33 -0.2,0.16 -0.45,0.34 -0.63,0.51l-3.11 3.07c-0.47,0.47 -1.37,1.68 -1.75,2.2 -1.24,1.68 -2.39,3.83 -3.2,5.81 -0.94,2.32 -1.43,4.88 -1.36,7.64 0.06,2.73 0.78,5.1 1.73,7.31 0.86,2.03 2.21,4.14 3.36,5.64 0.64,0.84 0.9,1.13 1.53,1.83l0.54 0.6c0.49,0.58 1.22,1.2 1.69,1.67l1.83 1.53c1.57,1.23 2.34,1.73 4.07,2.71 1.88,1.07 4.13,1.98 6.37,2.68 5.2,1.62 10.43,1.77 16.04,0.81 7.54,-1.28 13.57,-3.48 20.47,-6.56 1.04,-0.47 2.06,-0.93 3.09,-1.42 2.45,-1.16 5.16,-2.42 7.58,-3.64 0.5,-0.25 1.04,-0.53 1.53,-0.75 1.03,-0.48 1.98,-1.01 3.01,-1.49 0.9,-0.43 2.04,-1.1 2.81,-1.44l0.2 -0.1z"/>
  <path class="fil2" d="M162.87 35.42c0.71,-0.06 1.62,-0.02 2.35,-0.02 0.55,0 1.83,-0.06 2.31,0.03l0 13.89 -4.66 0 -3.47 -0.02 0.02 -13.89 3.45 0.01zm-98.71 0.03c0.23,-0.11 10.55,-0.06 11.75,-0.05 3.92,0.02 7.85,0 11.78,0 19.61,0.01 39.24,0.04 58.85,0 0.99,0 11.01,-0.05 11.74,0.02l-0.01 13.89c-0.86,0.07 -2.04,0.01 -2.94,0.01l-20.61 0c-7.84,0.01 -15.68,0.02 -23.52,0 -7.85,-0.02 -15.7,0.02 -23.56,0 -3.92,-0.01 -7.86,0.04 -11.77,0 -1.25,-0.02 -11.45,0.05 -11.73,-0.04l0.02 -13.83zm-50.8 8.49c0.25,0.44 0.5,0.97 0.78,1.42 0.28,0.45 0.59,0.88 0.88,1.31 0.15,0.23 0.3,0.41 0.47,0.62l0.74 0.9c0.09,0.11 0.18,0.15 0.28,0.27l0.84 0.84c0.12,0.11 0.15,0.18 0.27,0.28l0.61 0.49c0.78,0.68 1.7,1.23 2.63,1.74 0.52,0.29 0.51,0.31 1.1,0.54 0.21,0.08 0.26,0.06 0.36,0.2 -0.55,0 -0.99,0.07 -1.18,0.45 -0.55,1.06 1.63,2.91 2.45,3.48 1.2,0.85 1.9,1.23 3.32,1.86 3.16,1.39 7.84,1.65 11.31,1.27 1.88,-0.2 3.58,-0.6 5.31,-1.16 1.62,-0.53 3.06,-1.24 4.42,-2.02 0.78,-0.45 2.21,-1.4 2.89,-1.99l0.86 -0.73c0.45,-0.39 0.57,-0.56 0.84,-0.81 0.59,-0.54 0.68,-0.69 1.16,-1.24 0.27,-0.31 0.51,-0.55 0.73,-0.87 0.1,-0.14 0.23,-0.35 0.39,-0.46 -0.06,0.22 -0.22,0.37 -0.34,0.56 -0.11,0.18 -0.21,0.34 -0.32,0.52 -0.48,0.82 -2.13,3.08 -2.86,3.82l-0.8 0.89c-0.15,0.15 -0.3,0.25 -0.45,0.39 -0.17,0.16 -0.25,0.3 -0.4,0.44 -0.15,0.14 -0.31,0.25 -0.46,0.38 -0.11,0.1 -0.3,0.27 -0.45,0.35 -0.31,0.14 -2.18,0.61 -2.64,0.72 -4.66,1.15 -9.63,2.38 -14.49,2.16 -2.17,-0.1 -3.63,-0.42 -5.46,-1.17 -1.23,-0.49 -3.31,-1.61 -4.34,-2.35l-2.56 -2.02c-0.1,-0.11 -0.1,-0.12 -0.21,-0.21 -0.09,-0.08 -0.69,-0.78 -0.72,-0.89 -0.11,-0.06 -0.34,-0.28 -0.45,-0.38 -0.06,-0.06 -0.04,-0.05 -0.11,-0.11l-0.64 -0.66c-0.16,-0.14 -0.23,-0.21 -0.37,-0.38 -0.3,-0.39 -0.2,-0.17 -0.38,-0.57 -0.05,-0.11 0.04,0.02 -0.05,-0.07l-0.1 -0.09c-0.01,-0.01 -0.03,-0.04 -0.04,-0.05 -0.01,0 -0.02,-0.01 -0.02,-0.02l-0.11 -0.11c-0.19,-0.23 -0.26,-0.43 -0.35,-0.53 -0.4,-0.39 -1.06,-1.53 -1.35,-2.04 -1.02,-1.81 -1.67,-3.43 -2.18,-5.43 -0.43,-1.64 -0.44,-2.24 -0.63,-3.96 -0.11,-0.96 -0.01,-2.04 0.01,-3.01 0.16,0.12 0.04,-0.02 0.13,0.14l0.15 2.01c0.16,1.18 0.45,2.53 0.86,3.65 0.21,0.58 0.48,1.09 0.67,1.63zm15.02 -25.78c0.49,-0.08 1.61,-0.01 2.18,-0.01 2.03,-0.01 3.78,0.26 5.64,0.95 1.94,0.72 3.82,2.22 5.22,3.61 0.37,0.37 0.72,0.73 1.09,1.14l0.5 0.59c0.11,0.12 0.15,0.18 0.24,0.31 0.08,0.11 0.17,0.19 0.25,0.3 0.16,0.23 0.31,0.41 0.48,0.65 0.14,0.22 0.28,0.45 0.43,0.66 1.55,2.21 2.68,5.53 2.68,8.3 0,1.47 0.01,2.83 -0.19,4.23 -0.18,1.21 -0.52,2.43 -0.9,3.51 -0.72,2.05 -1.55,3.32 -2.77,4.93 -0.4,0.53 -1.64,1.85 -2.15,2.27 -0.44,0.37 -1.46,1.1 -1.94,1.39 -0.46,0.27 -0.93,0.49 -1.44,0.74 -4.31,2.17 -10.19,2.3 -14.71,0.64 -1.88,-0.69 -2.82,-1.27 -4.3,-2.35 -0.65,-0.48 -1.18,-1.02 -1.76,-1.56 -0.36,-0.34 -1.19,-1.37 -1.5,-1.78 -0.63,-0.86 -1.14,-1.71 -1.67,-2.74 -0.51,-0.98 -0.89,-2.07 -1.2,-3.23 -0.15,-0.59 -0.3,-1.18 -0.38,-1.8l-0.18 -1.47c-0.02,-0.18 0.01,-0.35 -0.02,-0.53 -0.15,-1.3 0.01,-2.87 0.17,-4.14 0.14,-1.17 0.59,-2.39 0.99,-3.42 0.67,-1.76 1.9,-3.69 3.1,-5.14l1.34 -1.43 1.17 -1.02c2.51,-1.92 4.54,-2.74 7.67,-3.35 0.95,-0.19 1.38,-0.15 1.96,-0.25zm97.44 12.95c-0.08,-0.22 -0.05,-9.95 -0.04,-11.55 0.01,-1.26 -0.05,-2.6 0,-3.85l1.96 0.02c0.05,2.54 -0.02,5.15 -0.01,7.7 0.01,0.47 0.06,7.38 -0.02,7.68l-1.89 0zm-28.87 3.83c0.06,-0.11 0.79,-0.43 0.97,-0.52 0.34,-0.16 0.66,-0.34 1,-0.51 0.65,-0.34 1.35,-0.65 1.99,-1 0.66,-0.36 1.35,-0.67 2.02,-1 0.55,-0.27 0.49,-0.33 1.2,-0.33 1.26,0 3.12,0.03 4.27,-0.23 0.94,-0.21 1.42,-0.46 2,-0.98 0.67,-0.58 1.2,-1.4 1.45,-2.3 0.22,-0.79 -0.02,-0.61 0.6,-0.91 0.15,-0.07 0.34,-0.17 0.51,-0.18 0.1,0.4 0.09,0.7 0.24,1.1 0.35,0.95 0.53,1.34 1.19,2.09 0.11,0.12 0.24,0.2 0.31,0.33 -0.19,0.17 -1.5,0.78 -1.84,0.94 -0.64,0.3 -1.19,0.64 -1.83,0.94 -0.64,0.31 -1.21,0.63 -1.84,0.94l-2.76 1.4c-0.52,0.28 -0.5,0.22 -1.16,0.23 -0.93,0 -1.85,-0.01 -2.78,0 -1.04,0 -4.84,0.05 -5.54,-0.01zm21.1 -15.19c1.9,-0.15 3.56,0.64 4.47,1.75 0.07,0.08 0.21,0.27 0.28,0.38 0.66,1.01 0.9,1.89 0.96,3.18 0.08,2.04 -0.36,3.9 -1.78,5.07 -0.29,0.24 -0.48,0.36 -0.82,0.57 -0.56,0.35 -1.32,0.57 -2.09,0.64 -0.86,0.09 -1.66,-0.01 -2.43,-0.26 -2.15,-0.71 -3.26,-2.78 -3.31,-5 -0.04,-1.99 0.15,-3.07 1.1,-4.42 0.62,-0.89 1.97,-1.79 3.62,-1.91zm5.3 2.08c0.17,-0.12 1.74,-0.92 1.92,-0.94 0.06,0.19 0.06,4.07 0.01,4.3 -0.11,0.06 -1,0.47 -1.04,0.48 -0.05,-0.79 -0.04,-1.38 -0.21,-2.15 -0.21,-0.91 -0.62,-1.41 -0.68,-1.69zm8.49 5.66c0.16,0.71 0.27,1.18 0.68,1.59 1.08,1.07 4.4,0.97 4.62,-0.82 0.09,-0.79 -0.22,-1.13 -0.86,-1.38 -0.51,-0.21 -1.2,-0.38 -1.76,-0.52 -1.1,-0.28 -2.49,-0.64 -3.28,-1.22 -0.83,-0.62 -1.4,-1.93 -0.82,-3.31 1.03,-2.43 4.75,-2.44 6.42,-1.62 1.03,0.5 1.81,1.46 1.85,2.67 -0.15,0.08 -1.6,0.26 -1.84,0.26 -0.24,-0.72 -0.29,-1.1 -0.84,-1.46 -0.49,-0.32 -1.23,-0.41 -1.92,-0.37 -0.63,0.04 -1.41,0.24 -1.71,0.58 -0.42,0.46 -0.46,1.2 0.02,1.63 0.49,0.45 2.6,0.88 3.44,1.14 1.33,0.42 2.31,0.68 2.9,1.65 0.66,1.08 0.42,2.74 -0.34,3.54 -0.92,0.96 -1.59,1.32 -3.08,1.47 -1.52,0.16 -3.55,-0.24 -4.39,-1.24 -0.16,-0.19 -0.34,-0.42 -0.48,-0.66 -0.19,-0.31 -0.57,-1.29 -0.55,-1.68 0.14,-0.09 1.74,-0.29 1.94,-0.25zm-33.06 -11.73c0.25,-0.11 4.68,-0.04 5.35,-0.04 1.41,-0.01 3.69,-0.05 4.77,0.59 0.28,0.17 0.57,0.39 0.77,0.58 0.67,0.6 1.23,1.81 1.16,2.84 -0.07,1.13 -0.54,2.04 -1.36,2.68 -0.25,0.2 -0.51,0.34 -0.79,0.5l0.14 0.09c0.02,0.01 0.1,0.03 0.13,0.04 3.56,1.18 3.27,5.33 0.89,7.19 -1.26,0.99 -3.3,0.87 -5.12,0.87 -0.99,0.01 -1.99,0.01 -2.98,0.01l-2.98 -0.01 0.02 -15.34zm-22.01 34.15c-0.77,0.34 -1.91,1.01 -2.81,1.44 -1.03,0.48 -1.98,1.01 -3.01,1.49 -0.49,0.22 -1.03,0.5 -1.53,0.75 -2.42,1.22 -5.13,2.48 -7.58,3.64 -1.03,0.49 -2.05,0.95 -3.09,1.42 -6.9,3.08 -12.93,5.28 -20.47,6.56 -5.61,0.96 -10.84,0.81 -16.04,-0.81 -2.24,-0.7 -4.49,-1.61 -6.37,-2.68 -1.73,-0.98 -2.5,-1.48 -4.07,-2.71l-1.83 -1.53c-0.47,-0.47 -1.2,-1.09 -1.69,-1.67l-0.54 -0.6c-0.63,-0.7 -0.89,-0.99 -1.53,-1.83 -1.15,-1.5 -2.5,-3.61 -3.36,-5.64 -0.95,-2.21 -1.67,-4.58 -1.73,-7.31 -0.07,-2.76 0.42,-5.32 1.36,-7.64 0.81,-1.98 1.96,-4.13 3.2,-5.81 0.38,-0.52 1.28,-1.73 1.75,-2.2l3.11 -3.07c0.18,-0.17 0.43,-0.35 0.63,-0.51 1.96,-1.54 5.23,-3.57 7.86,-3.33 0.61,0.05 1.36,0.34 1.39,0.89 0.05,0.84 -1.17,1.62 -1.76,2.19 -0.12,0.11 -0.18,0.13 -0.3,0.25l-0.59 0.55c-0.21,0.18 -0.36,0.34 -0.57,0.53l-1.09 1.18c-1.64,1.98 -3.06,4.68 -3.85,7.37 -1.49,5.08 -1.36,10.73 0.52,15.51 0.88,2.22 2.05,4.15 3.28,5.73l0.78 0.94c0.83,0.91 0.96,1.1 1.92,2l1.21 1.06c1.9,1.53 4.05,2.9 6.37,3.77 2.63,0.98 4.74,1.26 7.8,1.13 5.1,-0.22 13.62,-2.23 18.43,-4.13 1.1,-0.43 2.19,-0.8 3.24,-1.26 1.06,-0.48 2.1,-0.87 3.14,-1.36 1.04,-0.5 2.04,-0.94 3.03,-1.47 0.5,-0.27 1,-0.5 1.5,-0.77l2.95 -1.55c0.68,-0.34 0.97,-0.66 1.57,-0.65 0.99,0.01 8.75,-0.08 8.97,0.03l-0.2 0.1zm-76.04 -9.58c-0.12,-0.24 -0.36,-3 -0.37,-3.48 -0.04,-1.21 -0.04,-2.54 0.16,-3.71 0.31,-1.78 1.05,-3.33 1.88,-4.89 0.44,-0.82 1.4,-2.17 1.96,-2.87 0.96,-1.18 0.77,-0.87 1.85,-2.02 0.47,-0.5 1.54,-1.41 2.08,-1.79 4.16,-2.94 8.78,-4.92 13.95,-5.4 2.4,-0.23 5.07,-0.13 7.29,0.25 1.38,0.24 1.76,0.27 3.05,0.82 0.25,0.11 0.51,0.12 0.76,0.22 0.96,0.38 1.07,0.51 1.94,0.92 -0.01,0.01 -0.02,0.01 -0.03,0.01l-0.05 0.01c-0.01,0 -0.03,0 -0.03,0l-0.32 -0.09c-0.15,-0.05 -0.27,-0.08 -0.44,-0.12 -2.26,-0.45 -4.96,-0.53 -7.22,-0.23 -2.34,0.3 -3.96,0.84 -5.99,1.8 -0.23,0.11 -0.48,0.33 -0.74,0.35 0.12,-0.14 0.29,-0.23 0.41,-0.35 0.67,-0.69 1.33,-1.68 -0.04,-2.16 -0.36,-0.12 -0.94,-0.11 -1.38,-0.1 -1.03,0.01 -1.72,0.05 -2.64,0.33 -0.81,0.23 -1.47,0.45 -2.15,0.81 -0.36,0.19 -0.68,0.32 -1.01,0.5 -0.92,0.51 -1.04,0.67 -1.79,1.16 -1.2,0.78 -3.75,3.12 -4.67,4.24 -0.21,0.27 -0.43,0.55 -0.66,0.82 -0.12,0.15 -0.23,0.23 -0.35,0.4 -0.79,1.01 -1.44,1.98 -2.11,3.11 -0.38,0.65 -0.7,1.19 -1.03,1.91 -0.32,0.68 -0.64,1.36 -0.92,2.07 -0.49,1.23 -1.04,3.39 -1.2,4.72 -0.06,0.45 -0.1,0.88 -0.13,1.34 -0.02,0.28 0,1.27 -0.06,1.42zm0.11 -9.6c-0.03,-0.33 0.37,-1.99 0.48,-2.38 0.41,-1.49 0.86,-2.82 1.52,-4.2 0.57,-1.17 1.35,-2.66 2.05,-3.71 0.2,-0.3 0.4,-0.58 0.58,-0.86 0.34,-0.53 1.11,-1.51 1.53,-2.04 0.07,-0.08 0.09,-0.13 0.17,-0.21 0.09,-0.1 0.08,-0.08 0.16,-0.18 0.08,-0.11 0.24,-0.31 0.32,-0.39l0.68 -0.75c0.12,-0.14 0.23,-0.22 0.36,-0.35l1.09 -1.1c1.67,-1.45 2.35,-2.1 4.45,-3.42 2.81,-1.76 5.81,-3.11 9.13,-3.74 3.58,-0.68 6.82,-0.56 10.24,0.41 1.85,0.53 4.3,1.7 5.84,2.79 1.57,1.11 1.94,1.4 3.2,2.56 0.61,0.57 1.55,1.56 2.07,2.22 2.57,3.21 4.14,6.21 5.09,10.64 0.34,1.61 0.55,3.58 0.31,5.26 -0.34,2.43 -1.83,3.28 -2.56,2 -0.33,-0.57 -0.47,-1.54 -0.64,-2.26 -0.18,-0.75 -0.45,-1.45 -0.73,-2.13 -0.99,-2.4 -2.38,-4.18 -4.06,-6l-2.26 -2.03c-5.55,-4.42 -12.65,-6.56 -19.82,-5.29 -3.93,0.69 -7.13,2.17 -10.18,4.2 -0.29,0.19 -0.56,0.4 -0.83,0.6 -0.3,0.21 -0.55,0.4 -0.81,0.62l-1.16 0.99c-0.14,0.13 -0.23,0.23 -0.36,0.35 -0.43,0.4 -0.6,0.62 -0.89,0.91 -0.08,0.07 -0.11,0.09 -0.18,0.17 -0.12,0.13 -0.2,0.26 -0.33,0.38 -0.49,0.49 -1.47,1.78 -1.91,2.38 -0.76,1.05 -2.18,3.42 -2.55,4.56zm52.34 -1.75c0,-3.48 -0.83,-6.71 -2.02,-9.53 -0.46,-1.08 -1.36,-2.8 -2.01,-3.76l-1.18 -1.71c-0.24,-0.36 -1.14,-1.47 -1.22,-1.67 0.19,0.1 1.07,0.8 1.28,0.97l1.8 1.57c0.2,0.18 0.38,0.38 0.54,0.55 0.36,0.37 0.7,0.77 1.05,1.18 2.77,3.2 5.07,7.58 6.16,11.67 1.26,4.7 1.41,8.63 0.51,13.33 -0.31,1.6 -0.78,3.02 -1.33,4.43 -0.9,2.31 -2.8,5.14 -4.7,6.87 -0.46,0.42 -0.67,0.64 -1.16,1.03 -2.1,1.68 -3.14,2.35 -5.82,3.56 -2.59,1.17 -6.37,1.98 -9.6,1.98 -3.8,0.01 -7.96,-0.72 -10.55,-2.54 -0.64,-0.45 -2.26,-1.82 -2.09,-2.75 0.25,-1.31 2.68,-0.59 3.77,-0.49 0.99,0.09 2.07,0.18 3.07,0.18 3.42,0.01 7.03,-1 9.71,-2.28 1.7,-0.82 3.29,-1.78 4.65,-2.88 0.6,-0.49 1.84,-1.57 2.32,-2.14 0.12,-0.14 0.25,-0.24 0.37,-0.38 0.33,-0.39 0.72,-0.81 1.04,-1.24 1.16,-1.57 1.36,-1.85 2.35,-3.62 0.36,-0.64 0.67,-1.34 0.96,-2.03 1.38,-3.23 2.09,-6.41 2.1,-10.3zm-5.79 4.63c0.24,0.1 0.27,0.47 0.79,0.85 0.36,0.26 0.74,0.37 1.21,0.14 0.7,-0.34 1,-1.16 1.24,-2.03 0.47,-1.77 0.57,-4.01 0.27,-5.93 -0.83,-5.2 -3.24,-9.55 -6.61,-13.03 -0.81,-0.84 -2.52,-2.33 -3.58,-2.98 -0.34,-0.21 -0.65,-0.43 -0.99,-0.65 -0.75,-0.48 -2.42,-1.28 -3.28,-1.64 -0.39,-0.17 -0.78,-0.27 -1.19,-0.45l-2.55 -0.74c-0.21,-0.04 -1.15,-0.17 -1.32,-0.3 3.69,0.08 7.51,1.28 10.72,2.73 0.91,0.4 2.38,1.17 3.02,1.73 0.2,0.19 0.12,0.22 0.39,0.45 0.19,0.16 0.33,0.39 0.5,0.6 0.68,0.83 1.31,1.67 1.87,2.59 1.54,2.51 2.48,4.86 3.27,7.88 0.58,2.22 0.99,5.64 0.69,8.15 -0.16,1.36 -0.3,2.59 -0.64,3.83 -0.15,0.52 -0.3,1.27 -0.49,1.74l-0.28 0.85c-0.19,0.67 -0.62,1.78 -0.92,2.41 -0.96,2.02 -1.3,2.5 -2.45,4.24 -0.72,1.1 -2.18,2.67 -3.16,3.54 -0.2,0.18 -1.01,0.94 -1.23,1 0.05,-0.14 0.37,-0.46 0.57,-0.7 0.09,-0.12 0.19,-0.22 0.28,-0.35 0.44,-0.62 0.82,-1.08 1.25,-1.82 2.06,-3.49 2.8,-6.93 2.69,-10.97 -0.01,-0.38 -0.07,-0.73 -0.07,-1.14zm114.04 -31c-0.19,-0.18 -0.6,-0.38 -0.85,-0.54l-1.67 -1.06c-0.17,-0.12 -0.69,-0.39 -0.79,-0.53 0.3,0 6.47,1.01 7.11,1.11 0.72,0.11 1.7,0.3 2.4,0.34 -0.07,0.24 -0.47,0.75 -0.62,1 -0.21,0.33 -0.43,0.64 -0.64,0.96 -0.44,0.66 -0.85,1.28 -1.28,1.92 -0.26,0.4 -2.28,3.46 -2.56,3.76l0.53 -3.51c-0.19,-0.01 -0.72,0.31 -0.91,0.42 -0.29,0.17 -0.57,0.27 -0.88,0.42l-8.78 4.48c-1.17,0.64 -2.33,1.19 -3.49,1.81 -2.33,1.23 -4.66,2.39 -6.98,3.62 -1.17,0.62 -2.32,1.21 -3.5,1.8 -0.59,0.29 -1.2,0.57 -1.77,0.88 -0.28,0.15 -0.75,-0.07 -1.08,-0.12 -2.01,-0.33 -4.49,0.09 -5.52,1.98 -0.5,0.92 -0.32,1.44 -0.45,1.64 -0.09,0.15 -1.42,0.71 -1.46,0.72l0 -3.73c0,-0.65 -0.05,-0.56 0.31,-0.74l3.71 -1.8c1.38,-0.72 2.79,-1.39 4.19,-2.07 2.84,-1.38 5.61,-2.79 8.4,-4.19 2.77,-1.39 5.55,-2.86 8.33,-4.25 2.34,-1.17 4.91,-2.52 7.26,-3.75 0.18,-0.1 0.35,-0.19 0.52,-0.28 0.14,-0.08 0.38,-0.18 0.47,-0.29zm-132.5 63.43l5.27 0c0.03,-0.06 1.79,-0.19 2.09,-0.24 2.16,-0.29 3.82,-0.54 5.98,-1.05 10.5,-2.45 18.98,-6.9 28.45,-11.43l7.02 -3.52c0.2,-0.05 5.34,-0.02 5.82,-0.02l75.05 0c3.11,0 6.3,0.07 9.4,0l0 -14.83 -61.22 0c0.05,-0.15 0.79,-0.46 0.98,-0.56 0.35,-0.18 0.69,-0.35 1.03,-0.53 0.68,-0.36 1.34,-0.67 2.03,-1.04 0.67,-0.35 1.37,-0.7 2.07,-1.05l2.05 -1.03c0.21,0.13 0.38,0.28 0.63,0.42 0.83,0.47 1.42,0.55 2.37,0.67 1.6,0.22 3.49,-0.42 4.59,-1.48 0.31,-0.31 0.66,-0.64 0.91,-1.11 0.55,-1.05 0.76,-1.85 0.81,-3.23 0.15,-0.11 0.84,-0.48 1.02,-0.48l0.02 6.07 2.93 -0.02 0.02 -7.51c0.17,-0.1 1.38,-0.71 1.46,-0.68 0.06,0.09 0.19,0.76 0.28,0.98 1.04,2.53 5.89,2.41 6.51,3.25 0.18,0.25 0.18,0.66 0.02,0.93 -0.49,0.8 -2.64,1.05 -3.57,0.14 -0.44,-0.41 -0.53,-1.04 -0.68,-1.77 -0.39,-0.01 -2.6,0.27 -2.89,0.38 -0.15,0.31 0.3,1.68 0.4,1.91 0.22,0.56 0.6,1.13 0.94,1.42 1.8,1.55 5.33,1.62 7.29,0.3 1,-0.68 1.59,-1.8 1.65,-3.08 0.05,-1.37 -0.61,-2.41 -1.77,-3.01 -0.99,-0.51 -2.4,-0.82 -3.57,-1.14 -0.48,-0.13 -1.4,-0.37 -1.64,-0.71 -0.43,-0.65 0.75,-1.13 0.97,-1.17 0.65,-0.12 1.56,-0.01 2.02,0.28 0.59,0.37 0.54,0.85 0.77,1.57 0.51,0.06 2.18,-0.28 2.79,-0.35 0.14,-0.4 -0.26,-1.74 -0.59,-2.26 -0.57,-0.89 -0.92,-0.9 -1.56,-1.33 0.08,-0.14 0.6,-0.35 0.8,-0.45l2.43 -1.24c0.55,-0.29 1.08,-0.52 1.62,-0.81l3.21 -1.67c0.52,-0.27 1.09,-0.55 1.61,-0.84 1.04,-0.58 2.16,-1.08 3.21,-1.67 1.06,-0.58 2.16,-1.11 3.22,-1.69 2.06,-1.12 4.31,-2.26 6.39,-3.38 0.54,-0.29 1.06,-0.56 1.6,-0.83 0.3,-0.16 1.35,-0.75 1.63,-0.8 -0.06,1.06 -0.82,3.38 -0.64,4.48 0.12,-0.17 0.26,-0.34 0.39,-0.53 0.14,-0.2 0.27,-0.37 0.39,-0.58 0.13,-0.23 0.25,-0.38 0.39,-0.58 0.14,-0.21 0.23,-0.35 0.37,-0.56l2.27 -3.41c0.65,-0.96 1.42,-2.18 2.09,-3.12 0.1,-0.14 0.11,-0.15 0.1,-0.36 -0.47,-0.07 -0.92,-0.1 -1.38,-0.18 -2.14,-0.35 -4.4,-0.65 -6.55,-1.03l-2.27 -0.37c-0.2,-0.03 -0.24,-0.03 -0.29,-0.11l-0.45 0 0.01 0.3c0.29,0.19 0.64,0.35 0.95,0.55 0.83,0.55 1.67,1.09 2.55,1.58l0.21 0.14c-0.08,0.1 -1.8,0.92 -2.04,1.04l-4.08 2.07c-0.67,0.33 -1.32,0.71 -2.02,1.04 -0.66,0.32 -1.39,0.69 -2.03,1.04 -0.68,0.37 -1.36,0.69 -2.03,1.04 -2.02,1.06 -4.09,2.07 -6.11,3.11 -0.69,0.35 -1.38,0.67 -2.06,1.01 -0.97,0.49 -12.07,6.03 -12.33,6.05l-0.01 -3.75 -2.94 0 -0.01 5.25c-0.25,0.15 -1.87,0.97 -2.1,1.02 -0.38,-0.48 -0.72,-0.9 -1.25,-1.25 -0.52,-0.34 -1.01,-0.6 -1.7,-0.78 -1.54,-0.41 -2.94,-0.24 -4.26,0.32 -1.03,0.43 -2.06,1.48 -2.5,2.47 -0.33,0.73 -0.39,1.09 -0.54,1.94 -0.17,0.89 -0.02,1.56 -0.04,2.37 -0.16,0.08 -0.64,0.34 -0.81,0.37 0.03,-1.13 -0.08,-1.84 -0.58,-2.62 -0.42,-0.64 -0.91,-1.1 -1.69,-1.46 0.11,-0.17 0.52,-0.5 0.69,-0.71 0.71,-0.84 0.99,-2.18 0.79,-3.31 -0.13,-0.78 -0.5,-1.38 -0.88,-1.89 -1.47,-1.96 -4.25,-1.73 -6.61,-1.72 -0.93,0 -1.85,-0.01 -2.78,0 -0.89,0 -1.89,-0.05 -2.77,0.01l0.01 16.37 4.41 -0.01c-0.08,0.15 -1.56,0.85 -1.73,0.93 -1.05,0.47 -2.44,1.22 -3.53,1.77 -0.31,0.16 -0.57,0.29 -0.89,0.45 -0.49,0.25 -0.46,0.2 -1.09,0.2 -3.54,0 -7.07,0.01 -10.6,0.01l-15.91 0c-1.24,0 -4.23,-0.06 -5.26,0l0 14.83c0.49,0.03 3.03,-0.06 3.23,0.03 -0.15,0.16 -3.6,1.92 -4.06,2.15 -1.38,0.67 -2.78,1.39 -4.19,2.03 -0.73,0.33 -1.42,0.64 -2.16,0.96 -1.84,0.8 -3.74,1.48 -5.65,2.13 -0.31,0.11 -0.82,0.32 -1.13,0.37 0.07,-0.13 0.98,-1.04 1.2,-1.27l1.15 -1.28c0.25,-0.27 0.47,-0.59 0.71,-0.89 0.47,-0.59 0.95,-1.21 1.38,-1.87 1.34,-2.03 2.49,-4.09 3.23,-6.52 0.67,-2.19 1.25,-4.38 1.45,-6.67 0.02,-0.24 0.06,-0.52 0.09,-0.76 0.03,-0.24 0,-0.51 0.03,-0.78 0.09,-0.81 0.05,-2.35 -0.01,-3.18 -0.17,-2.13 -0.37,-3.53 -0.89,-5.59 -0.86,-3.43 -2.27,-6.4 -3.93,-9.03 -0.21,-0.35 -0.42,-0.65 -0.65,-0.99 -0.56,-0.81 -1.15,-1.56 -1.77,-2.31 -0.56,-0.66 -1.35,-1.53 -1.98,-2.06l-0.87 -0.77c-0.24,-0.24 -0.61,-0.5 -0.88,-0.72 -3.61,-2.9 -8.64,-5.15 -13.56,-5.96 -1.6,-0.27 -4.46,-0.59 -6.05,-0.39 -0.28,0.04 -0.55,-0.01 -0.82,0.02 -0.22,0.03 -0.49,0.06 -0.72,0.08 -4.83,0.47 -9.21,1.99 -13.23,4.61 -0.84,0.56 -1.57,1.15 -2.36,1.72 -0.17,0.13 -0.27,0.22 -0.43,0.37 -0.34,0.33 -0.76,0.59 -1.1,0.92 -0.09,0.09 -0.12,0.13 -0.21,0.21l-0.83 0.81c-0.41,0.38 -0.77,0.87 -0.99,1.07l-0.38 0.42c-0.08,0.1 -0.11,0.09 -0.2,0.18l-0.34 0.46c-0.49,0.6 -0.94,1.18 -1.41,1.83 -1.24,1.71 -2.7,4.32 -3.44,6.32 -1.3,3.5 -1.96,7.28 -1.88,11.08 0.06,3.5 0.86,7.6 2.25,10.77 1.12,2.57 2.51,4.96 4.28,7.11l1.13 1.31 2.88 2.76c1.31,1.03 2.26,1.83 3.78,2.74 2.01,1.21 4.31,2.31 6.61,3.1 0.42,0.15 0.83,0.26 1.25,0.4 0.43,0.13 0.77,0.26 1.22,0.38 1.57,0.38 3.2,0.73 4.83,0.85 0.13,0.01 0.24,0.03 0.39,0.03 0.05,0.01 0.15,0 0.2,0.02 0.11,0.03 0.04,-0.03 0.1,0.06z"/>
  <path class="fil3" d="M0.84 30.73c0.37,-1.14 1.79,-3.51 2.55,-4.56 0.44,-0.6 1.42,-1.89 1.91,-2.38 0.13,-0.12 0.21,-0.25 0.33,-0.38 0.07,-0.08 0.1,-0.1 0.18,-0.17 0.29,-0.29 0.46,-0.51 0.89,-0.91 0.13,-0.12 0.22,-0.22 0.36,-0.35l1.16 -0.99c0.26,-0.22 0.51,-0.41 0.81,-0.62 0.27,-0.2 0.54,-0.41 0.83,-0.6 3.05,-2.03 6.25,-3.51 10.18,-4.2 7.17,-1.27 14.27,0.87 19.82,5.29l2.26 2.03c1.68,1.82 3.07,3.6 4.06,6 0.28,0.68 0.55,1.38 0.73,2.13 0.17,0.72 0.31,1.69 0.64,2.26 0.73,1.28 2.22,0.43 2.56,-2 0.24,-1.68 0.03,-3.65 -0.31,-5.26 -0.95,-4.43 -2.52,-7.43 -5.09,-10.64 -0.52,-0.66 -1.46,-1.65 -2.07,-2.22 -1.26,-1.16 -1.63,-1.45 -3.2,-2.56 -1.54,-1.09 -3.99,-2.26 -5.84,-2.79 -3.42,-0.97 -6.66,-1.09 -10.24,-0.41 -3.32,0.63 -6.32,1.98 -9.13,3.74 -2.1,1.32 -2.78,1.97 -4.45,3.42l-1.09 1.1c-0.13,0.13 -0.24,0.21 -0.36,0.35l-0.68 0.75c-0.08,0.08 -0.24,0.28 -0.32,0.39 -0.08,0.1 -0.07,0.08 -0.16,0.18 -0.08,0.08 -0.1,0.13 -0.17,0.21 -0.42,0.53 -1.19,1.51 -1.53,2.04 -0.18,0.28 -0.38,0.56 -0.58,0.86 -0.7,1.05 -1.48,2.54 -2.05,3.71 -0.66,1.38 -1.11,2.71 -1.52,4.2 -0.11,0.39 -0.51,2.05 -0.48,2.38z"/>
  <path class="fil4" d="M53.18 28.98c-0.01,3.89 -0.72,7.07 -2.1,10.3 -0.29,0.69 -0.6,1.39 -0.96,2.03 -0.99,1.77 -1.19,2.05 -2.35,3.62 -0.32,0.43 -0.71,0.85 -1.04,1.24 -0.12,0.14 -0.25,0.24 -0.37,0.38 -0.48,0.57 -1.72,1.65 -2.32,2.14 -1.36,1.1 -2.95,2.06 -4.65,2.88 -2.68,1.28 -6.29,2.29 -9.71,2.28 -1,0 -2.08,-0.09 -3.07,-0.18 -1.09,-0.1 -3.52,-0.82 -3.77,0.49 -0.17,0.93 1.45,2.3 2.09,2.75 2.59,1.82 6.75,2.55 10.55,2.54 3.23,0 7.01,-0.81 9.6,-1.98 2.68,-1.21 3.72,-1.88 5.82,-3.56 0.49,-0.39 0.7,-0.61 1.16,-1.03 1.9,-1.73 3.8,-4.56 4.7,-6.87 0.55,-1.41 1.02,-2.83 1.33,-4.43 0.9,-4.7 0.75,-8.63 -0.51,-13.33 -1.09,-4.09 -3.39,-8.47 -6.16,-11.67 -0.35,-0.41 -0.69,-0.81 -1.05,-1.18 -0.16,-0.17 -0.34,-0.37 -0.54,-0.55l-1.8 -1.57c-0.21,-0.17 -1.09,-0.87 -1.28,-0.97 0.08,0.2 0.98,1.31 1.22,1.67l1.18 1.71c0.65,0.96 1.55,2.68 2.01,3.76 1.19,2.82 2.02,6.05 2.02,9.53z"/>
  <path class="fil5" d="M64.12 31.1c0.41,0.03 3.04,0.05 3.32,-0.02l1.53 -5.71c0.42,-1.63 0.93,-3.35 1.33,-4.98l0.22 -0.72 0.11 0.33c0.03,0.12 0.07,0.25 0.1,0.37l0.57 2.16c0.24,0.95 0.51,1.9 0.76,2.86 0.17,0.64 1.41,5.52 1.53,5.7l3.24 0.01 0.95 -3.82c0.62,-2.54 1.31,-5.18 1.89,-7.69 0.09,-0.38 0.93,-3.62 0.95,-3.87l-3.12 0c-0.33,1.12 -0.86,3.92 -1.19,5.3 -0.2,0.87 -0.43,1.75 -0.6,2.64 -0.06,0.31 -0.54,2.58 -0.6,2.68l-0.66 -2.63c-0.4,-1.72 -0.9,-3.58 -1.33,-5.32 -0.21,-0.87 -0.42,-1.82 -0.66,-2.66l-3.7 -0.01c-0.64,2.56 -1.47,5.26 -2.09,7.8 -0.2,0.8 -0.57,1.9 -0.67,2.67 -0.14,-0.12 -0.11,-0.32 -0.18,-0.62l-0.42 -1.98c-0.2,-0.86 -0.36,-1.77 -0.57,-2.62 -0.39,-1.5 -0.79,-3.65 -1.15,-5.25l-3.22 0c0,0.24 0.37,1.61 0.45,1.94l2.3 9.6c0.29,1.23 0.56,2.66 0.91,3.84z"/>
  <path class="fil6" d="M161.43 2.61c-0.09,0.11 -0.33,0.21 -0.47,0.29 -0.17,0.09 -0.34,0.18 -0.52,0.28 -2.35,1.23 -4.92,2.58 -7.26,3.75 -2.78,1.39 -5.56,2.86 -8.33,4.25 -2.79,1.4 -5.56,2.81 -8.4,4.19 -1.4,0.68 -2.81,1.35 -4.19,2.07l-3.71 1.8c-0.36,0.18 -0.31,0.09 -0.31,0.74l0 3.73c0.04,-0.01 1.37,-0.57 1.46,-0.72 0.13,-0.2 -0.05,-0.72 0.45,-1.64 1.03,-1.89 3.51,-2.31 5.52,-1.98 0.33,0.05 0.8,0.27 1.08,0.12 0.57,-0.31 1.18,-0.59 1.77,-0.88 1.18,-0.59 2.33,-1.18 3.5,-1.8 2.32,-1.23 4.65,-2.39 6.98,-3.62 1.16,-0.62 2.32,-1.17 3.49,-1.81l8.78 -4.48c0.31,-0.15 0.59,-0.25 0.88,-0.42 0.19,-0.11 0.72,-0.43 0.91,-0.42l-0.53 3.51c0.28,-0.3 2.3,-3.36 2.56,-3.76 0.43,-0.64 0.84,-1.26 1.28,-1.92 0.21,-0.32 0.43,-0.63 0.64,-0.96 0.15,-0.25 0.55,-0.76 0.62,-1 -0.7,-0.04 -1.68,-0.23 -2.4,-0.34 -0.64,-0.1 -6.81,-1.11 -7.11,-1.11 0.1,0.14 0.62,0.41 0.79,0.53l1.67 1.06c0.25,0.16 0.66,0.36 0.85,0.54z"/>
  <path class="fil4" d="M101.91 24.44c0.43,-0.11 3.59,-0.03 4.18,0.02 1.19,0.12 2.24,0.47 2.28,1.96 0.02,1.44 -0.82,1.99 -2.22,2.06l-4.26 0.02c-0.02,-0.58 -0.07,-3.7 0.02,-4.06zm-0.01 -6.14c0.74,-0.05 3.98,-0.03 4.61,0.1 1.15,0.24 1.47,1.32 1.21,2.18 -0.32,1.09 -1.15,1.23 -2.28,1.24 -0.79,0 -1.57,0.01 -2.36,0 -1.47,0 -1.17,0.29 -1.19,-1.17 -0.01,-0.57 -0.07,-1.85 0.01,-2.35zm-3.14 12.8l2.98 0.01c0.99,0 1.99,0 2.98,-0.01 1.82,0 3.86,0.12 5.12,-0.87 2.38,-1.86 2.67,-6.01 -0.89,-7.19 -0.03,-0.01 -0.11,-0.03 -0.13,-0.04l-0.14 -0.09c0.28,-0.16 0.54,-0.3 0.79,-0.5 0.82,-0.64 1.29,-1.55 1.36,-2.68 0.07,-1.03 -0.49,-2.24 -1.16,-2.84 -0.2,-0.19 -0.49,-0.41 -0.77,-0.58 -1.08,-0.64 -3.36,-0.6 -4.77,-0.59 -0.67,0 -5.1,-0.07 -5.35,0.04l-0.02 15.34z"/>
  <path class="fil4" d="M92.74 27.53c-0.79,0.44 -1.49,0.96 -2.65,1.12 -3.78,0.55 -5.49,-2.28 -5.25,-5.82 0.16,-2.22 0.92,-3.87 3.02,-4.53 1.01,-0.31 2.3,-0.22 3.17,0.23 1.29,0.66 1.36,1.63 1.66,2.09l3.04 -0.59c0.06,-0.18 -0.3,-1.11 -0.4,-1.34 -0.37,-0.84 -0.93,-1.45 -1.61,-2.01 -1.68,-1.37 -5.18,-1.57 -7.29,-0.82 -3.95,1.41 -5.3,5.5 -4.62,9.41 0.26,1.49 0.83,2.63 1.7,3.72 0.24,0.3 0.29,0.28 0.43,0.46 0.43,0.52 1.96,1.39 2.87,1.63 3.18,0.81 5.99,0.07 8.54,-1.62 0.09,-0.07 0.47,-0.34 0.5,-0.42 0.05,-0.13 0.03,-2.38 0.03,-2.62 -0.01,-1.15 0.06,-2.44 -0.01,-3.57 -0.23,-0.08 -6.44,-0.06 -6.62,0.01l0.02 2.56c0.37,0.11 2.76,-0.04 3.47,0.04l0 2.07z"/>
  <path class="fil7" d="M47.39 33.61c0,0.41 0.06,0.76 0.07,1.14 0.11,4.04 -0.63,7.48 -2.69,10.97 -0.43,0.74 -0.81,1.2 -1.25,1.82 -0.09,0.13 -0.19,0.23 -0.28,0.35 -0.2,0.24 -0.52,0.56 -0.57,0.7 0.22,-0.06 1.03,-0.82 1.23,-1 0.98,-0.87 2.44,-2.44 3.16,-3.54 1.15,-1.74 1.49,-2.22 2.45,-4.24 0.3,-0.63 0.73,-1.74 0.92,-2.41l0.28 -0.85c0.19,-0.47 0.34,-1.22 0.49,-1.74 0.34,-1.24 0.48,-2.47 0.64,-3.83 0.3,-2.51 -0.11,-5.93 -0.69,-8.15 -0.79,-3.02 -1.73,-5.37 -3.27,-7.88 -0.56,-0.92 -1.19,-1.76 -1.87,-2.59 -0.17,-0.21 -0.31,-0.44 -0.5,-0.6 -0.27,-0.23 -0.19,-0.26 -0.39,-0.45 -0.64,-0.56 -2.11,-1.33 -3.02,-1.73 -3.21,-1.45 -7.03,-2.65 -10.72,-2.73 0.17,0.13 1.11,0.26 1.32,0.3l2.55 0.74c0.41,0.18 0.8,0.28 1.19,0.45 0.86,0.36 2.53,1.16 3.28,1.64 0.34,0.22 0.65,0.44 0.99,0.65 1.06,0.65 2.77,2.14 3.58,2.98 3.37,3.48 5.78,7.83 6.61,13.03 0.3,1.92 0.2,4.16 -0.27,5.93 -0.24,0.87 -0.54,1.69 -1.24,2.03 -0.47,0.23 -0.85,0.12 -1.21,-0.14 -0.52,-0.38 -0.55,-0.75 -0.79,-0.85z"/>
  <path class="fil4" d="M162.87 49.32l4.66 0 0 -13.89c-0.48,-0.09 -1.76,-0.03 -2.31,-0.03 -0.73,0 -1.64,-0.04 -2.35,0.02l0 13.9z"/>
  <path class="fil7" d="M0.73 40.33c0.06,-0.15 0.04,-1.14 0.06,-1.42 0.03,-0.46 0.07,-0.89 0.13,-1.34 0.16,-1.33 0.71,-3.49 1.2,-4.72 0.28,-0.71 0.6,-1.39 0.92,-2.07 0.33,-0.72 0.65,-1.26 1.03,-1.91 0.67,-1.13 1.32,-2.1 2.11,-3.11 0.12,-0.17 0.23,-0.25 0.35,-0.4 0.23,-0.27 0.45,-0.55 0.66,-0.82 0.92,-1.12 3.47,-3.46 4.67,-4.24 0.75,-0.49 0.87,-0.65 1.79,-1.16 0.33,-0.18 0.65,-0.31 1.01,-0.5 0.68,-0.36 1.34,-0.58 2.15,-0.81 0.92,-0.28 1.61,-0.32 2.64,-0.33 0.44,-0.01 1.02,-0.02 1.38,0.1 1.37,0.48 0.71,1.47 0.04,2.16 -0.12,0.12 -0.29,0.21 -0.41,0.35 0.26,-0.02 0.51,-0.24 0.74,-0.35 2.03,-0.96 3.65,-1.5 5.99,-1.8 2.26,-0.3 4.96,-0.22 7.22,0.23 0.17,0.04 0.29,0.07 0.44,0.12l0.32 0.09c0,0 0.02,0 0.03,0l0.05 -0.01c0.01,0 0.02,0 0.03,-0.01 -0.87,-0.41 -0.98,-0.54 -1.94,-0.92 -0.25,-0.1 -0.51,-0.11 -0.76,-0.22 -1.29,-0.55 -1.67,-0.58 -3.05,-0.82 -2.22,-0.38 -4.89,-0.48 -7.29,-0.25 -5.17,0.48 -9.79,2.46 -13.95,5.4 -0.54,0.38 -1.61,1.29 -2.08,1.79 -1.08,1.15 -0.89,0.84 -1.85,2.02 -0.56,0.7 -1.52,2.05 -1.96,2.87 -0.83,1.56 -1.57,3.11 -1.88,4.89 -0.2,1.17 -0.2,2.5 -0.16,3.71 0.01,0.48 0.25,3.24 0.37,3.48z"/>
  <path class="fil7" d="M18.32 53.92c0.03,0.11 0.63,0.81 0.72,0.89 0.11,0.09 0.11,0.1 0.21,0.21l2.56 2.02c1.03,0.74 3.11,1.86 4.34,2.35 1.83,0.75 3.29,1.07 5.46,1.17 4.86,0.22 9.83,-1.01 14.49,-2.16 0.46,-0.11 2.33,-0.58 2.64,-0.72 0.15,-0.08 0.34,-0.25 0.45,-0.35 0.15,-0.13 0.31,-0.24 0.46,-0.38 0.15,-0.14 0.23,-0.28 0.4,-0.44 0.15,-0.14 0.3,-0.24 0.45,-0.39l0.8 -0.89c0.73,-0.74 2.38,-3 2.86,-3.82 0.11,-0.18 0.21,-0.34 0.32,-0.52 0.12,-0.19 0.28,-0.34 0.34,-0.56 -0.16,0.11 -0.29,0.32 -0.39,0.46 -0.22,0.32 -0.46,0.56 -0.73,0.87 -0.48,0.55 -0.57,0.7 -1.16,1.24 -0.27,0.25 -0.39,0.42 -0.84,0.81l-0.86 0.73c-0.68,0.59 -2.11,1.54 -2.89,1.99 -1.36,0.78 -2.8,1.49 -4.42,2.02 -1.73,0.56 -3.43,0.96 -5.31,1.16 -3.47,0.38 -8.15,0.12 -11.31,-1.27 -1.42,-0.63 -2.12,-1.01 -3.32,-1.86 -0.82,-0.57 -3,-2.42 -2.45,-3.48 0.19,-0.38 0.63,-0.45 1.18,-0.45 -0.1,-0.14 -0.15,-0.12 -0.36,-0.2 -0.59,-0.23 -0.58,-0.25 -1.1,-0.54 -0.93,-0.51 -1.85,-1.06 -2.63,-1.74l-0.61 -0.49c-0.12,-0.1 -0.15,-0.17 -0.27,-0.28l-0.84 -0.84c-0.1,-0.12 -0.19,-0.16 -0.28,-0.27l-0.74 -0.9c-0.17,-0.21 -0.32,-0.39 -0.47,-0.62 -0.29,-0.43 -0.6,-0.86 -0.88,-1.31 -0.28,-0.45 -0.53,-0.98 -0.78,-1.42 -0.04,-0.03 -0.08,-0.04 -0.1,-0.07 0.08,0.54 0.72,2.38 0.91,2.89 0.71,1.89 1,2.24 1.84,3.8 0.29,0.53 1.57,2.45 1.88,2.83 0.16,0.2 0.3,0.32 0.43,0.53z"/>
  <path class="fil8" d="M64.12 31.1c-0.35,-1.18 -0.62,-2.61 -0.91,-3.84l-2.3 -9.6c-0.08,-0.33 -0.45,-1.7 -0.45,-1.94l3.22 0c0.36,1.6 0.76,3.75 1.15,5.25 0.21,0.85 0.37,1.76 0.57,2.62l0.42 1.98c0.07,0.3 0.04,0.5 0.18,0.62 0.1,-0.77 0.47,-1.87 0.67,-2.67 0.62,-2.54 1.45,-5.24 2.09,-7.8l3.7 0.01c0.24,0.84 0.45,1.79 0.66,2.66 0.43,1.74 0.93,3.6 1.33,5.32l0.66 2.63c0.06,-0.1 0.54,-2.37 0.6,-2.68 0.17,-0.89 0.4,-1.77 0.6,-2.64 0.33,-1.38 0.86,-4.18 1.19,-5.3l3.12 0c-0.02,0.25 -0.86,3.49 -0.95,3.87 -0.58,2.51 -1.27,5.15 -1.89,7.69l-0.95 3.82 -3.24 -0.01c-0.12,-0.18 -1.36,-5.06 -1.53,-5.7 -0.25,-0.96 -0.52,-1.91 -0.76,-2.86l-0.57 -2.16c-0.03,-0.12 -0.07,-0.25 -0.1,-0.37l-0.11 -0.33 -0.22 0.72c-0.4,1.63 -0.91,3.35 -1.33,4.98l-1.53 5.71c-0.28,0.07 -2.91,0.05 -3.32,0.02zm13.13 0.49c0.19,-0.63 0.34,-1.42 0.5,-2.07 0.47,-2.03 1.03,-4.09 1.5,-6.11 0.2,-0.87 1.92,-7.59 2,-8.19l-4.12 0.01c-0.2,0.73 -0.35,1.54 -0.52,2.3 -0.16,0.77 -0.34,1.5 -0.51,2.27l-0.99 4.53 -1.68 -6.83c-0.2,-0.75 -0.35,-1.52 -0.55,-2.28l-4.47 0.01c-0.07,0.35 -0.19,0.78 -0.29,1.13 -0.24,0.9 -2.01,7.72 -2.1,7.81 -0.08,-0.09 -0.19,-0.91 -0.24,-1.13 -0.26,-1.09 -0.47,-2.23 -0.75,-3.34 -0.16,-0.63 -0.84,-4.22 -0.98,-4.48l-4.17 0.01c-0.01,0.39 0.79,3.44 0.95,4.11 0.61,2.67 1.33,5.46 1.93,8.16 0.15,0.67 0.33,1.33 0.48,2.03 0.14,0.66 0.3,1.42 0.47,2.07l4.12 -0.02c0.13,-0.2 0.56,-2.11 0.67,-2.52 0.21,-0.83 0.44,-1.65 0.67,-2.48 0.23,-0.84 0.45,-1.7 0.66,-2.53l0.69 -2.47c0.08,0.07 0.03,0.01 0.08,0.13l0.61 2.39c0.22,0.81 0.45,1.65 0.66,2.48 0.42,1.66 0.87,3.33 1.31,5.01l4.07 0z"/>
  <path class="fil4" d="M142.63 26.21c-0.07,-1.06 0.02,-2.41 0.47,-3.23 1.35,-2.49 5.63,-2.39 5.97,1.88 0.08,1.04 -0.04,2.41 -0.5,3.21 -1.19,2.09 -3.67,2 -4.87,0.81 -0.68,-0.67 -0.98,-1.51 -1.07,-2.67zm2.77 -6.46c-1.52,0.12 -2.74,0.77 -3.66,1.87 -0.88,1.05 -1.24,2.71 -1.13,4.42 0.08,1.15 0.32,2.26 0.93,3.19 0.26,0.38 0.41,0.48 0.65,0.74 0.87,0.97 2.69,1.52 4.11,1.39 0.77,-0.07 1.54,-0.29 2.12,-0.62 0.51,-0.3 1.18,-0.79 1.52,-1.26 0.89,-1.24 1.22,-2.48 1.15,-4.41 -0.05,-1.5 -0.43,-2.45 -1.26,-3.55 -0.81,-1.07 -2.59,-1.92 -4.43,-1.77z"/>
  <path class="fil4" d="M118.48 29.73c-0.84,0.01 -1.57,-0.38 -2.03,-0.78 -1.16,-1 -1.23,-3.02 -1.08,-4.42 0.4,-3.84 4.76,-4.17 6.03,-1.28 0.32,0.74 0.37,1.52 0.37,2.41 0,2.1 -0.98,4.06 -3.29,4.07zm-0.43 -9.98c-1.65,0.12 -3,1.02 -3.62,1.91 -0.95,1.35 -1.14,2.43 -1.1,4.42 0.05,2.22 1.16,4.29 3.31,5 0.77,0.25 1.57,0.35 2.43,0.26 0.77,-0.07 1.53,-0.29 2.09,-0.64 0.34,-0.21 0.53,-0.33 0.82,-0.57 1.42,-1.17 1.86,-3.03 1.78,-5.07 -0.06,-1.29 -0.3,-2.17 -0.96,-3.18 -0.07,-0.11 -0.21,-0.3 -0.28,-0.38 -0.91,-1.11 -2.57,-1.9 -4.47,-1.75z"/>
  <path class="fil4" d="M131.84 27.49c-0.2,-0.04 -1.8,0.16 -1.94,0.25 -0.02,0.39 0.36,1.37 0.55,1.68 0.14,0.24 0.32,0.47 0.48,0.66 0.84,1 2.87,1.4 4.39,1.24 1.49,-0.15 2.16,-0.51 3.08,-1.47 0.76,-0.8 1,-2.46 0.34,-3.54 -0.59,-0.97 -1.57,-1.23 -2.9,-1.65 -0.84,-0.26 -2.95,-0.69 -3.44,-1.14 -0.48,-0.43 -0.44,-1.17 -0.02,-1.63 0.3,-0.34 1.08,-0.54 1.71,-0.58 0.69,-0.04 1.43,0.05 1.92,0.37 0.55,0.36 0.6,0.74 0.84,1.46 0.24,0 1.69,-0.18 1.84,-0.26 -0.04,-1.21 -0.82,-2.17 -1.85,-2.67 -1.67,-0.82 -5.39,-0.81 -6.42,1.62 -0.58,1.38 -0.01,2.69 0.82,3.31 0.79,0.58 2.18,0.94 3.28,1.22 0.56,0.14 1.25,0.31 1.76,0.52 0.64,0.25 0.95,0.59 0.86,1.38 -0.22,1.79 -3.54,1.89 -4.62,0.82 -0.41,-0.41 -0.52,-0.88 -0.68,-1.59z"/>
  <path class="fil4" d="M154.92 21.66c-0.02,-0.38 0.07,-1.4 -0.04,-1.65 -0.05,-0.02 -1.66,-0.13 -1.71,0.07 0,0.01 -0.01,0.03 -0.01,0.04l-0.01 8.19c0,0.88 -0.05,1.91 0,2.77 0.26,0.05 1.76,0.07 1.94,-0.02 0.04,-0.28 0.01,-2.56 0.01,-3.04 0,-1.03 0,-2.05 0,-3.07 0.01,-1.79 0.61,-3.39 2.63,-3.54 1.04,-0.07 1.81,0.22 2.23,0.85 0.42,0.63 0.38,1.83 0.38,2.69 0,1.02 0.01,2.04 0.01,3.07 0,0.5 0,1.01 0,1.51 0,0.35 -0.04,1.24 0.01,1.51 0.06,0.1 0.8,0.06 0.94,0.06 0.25,0 0.79,0.06 0.99,-0.04 0.06,-0.83 0.01,-4.06 0,-5.15 0,-2.16 0.33,-4.85 -1.9,-5.81 -0.68,-0.29 -1.38,-0.42 -2.22,-0.35 -1.32,0.1 -1.88,0.5 -2.64,1.23l-0.31 0.32c-0.08,0.1 -0.21,0.31 -0.3,0.36z"/>
  <polygon class="fil9" points="162.87,49.32 162.87,35.42 159.42,35.41 159.4,49.3 "/>
  <path class="fil8" d="M92.74 27.53l0 -2.07c-0.71,-0.08 -3.1,0.07 -3.47,-0.04l-0.02 -2.56c0.18,-0.07 6.39,-0.09 6.62,-0.01 0.07,1.13 0,2.42 0.01,3.57 0,0.24 0.02,2.49 -0.03,2.62 -0.03,0.08 -0.41,0.35 -0.5,0.42 -2.55,1.69 -5.36,2.43 -8.54,1.62 -0.91,-0.24 -2.44,-1.11 -2.87,-1.63 -0.14,-0.18 -0.19,-0.16 -0.43,-0.46 -0.87,-1.09 -1.44,-2.23 -1.7,-3.72 -0.68,-3.91 0.67,-8 4.62,-9.41 2.11,-0.75 5.61,-0.55 7.29,0.82 0.68,0.56 1.24,1.17 1.61,2.01 0.1,0.23 0.46,1.16 0.4,1.34l-3.04 0.59c-0.3,-0.46 -0.37,-1.43 -1.66,-2.09 -0.87,-0.45 -2.16,-0.54 -3.17,-0.23 -2.1,0.66 -2.86,2.31 -3.02,4.53 -0.24,3.54 1.47,6.37 5.25,5.82 1.16,-0.16 1.86,-0.68 2.65,-1.12zm3.65 -5.18l-7.62 -0.02c-0.02,0.42 -0.04,3.39 0.03,3.6l3.51 0.01 0 1.19c-0.12,0.31 -2.91,1.97 -5.11,0.53 -1.6,-1.04 -1.99,-3.04 -1.85,-4.94 0.15,-2.13 1,-3.48 2.79,-3.97 1.61,-0.43 3.39,0.17 3.95,1.75 0.07,0.19 0.14,0.51 0.22,0.66 0.26,0.01 3.65,-0.65 4.05,-0.75 -0.27,-2.04 -1.34,-3.66 -3.11,-4.64 -1.95,-1.08 -5.77,-1.16 -8.04,0.1 -0.38,0.21 -0.89,0.53 -1.16,0.77 -0.2,0.18 -0.31,0.26 -0.5,0.46 -0.51,0.51 -0.89,1.04 -1.27,1.68 -0.98,1.67 -1.36,4.36 -0.97,6.53 0.79,4.32 4.01,6.98 9,6.52 1.72,-0.16 3.02,-0.58 4.43,-1.39 0.48,-0.28 0.77,-0.5 1.18,-0.8 0.62,-0.45 0.48,-0.19 0.49,-1.46 0,-0.82 0.03,-5.42 -0.02,-5.83z"/>
  <path class="fil6" d="M96.95 34.94c0.7,0.06 4.5,0.01 5.54,0.01 0.93,-0.01 1.85,0 2.78,0 0.66,-0.01 0.64,0.05 1.16,-0.23l2.76 -1.4c0.63,-0.31 1.2,-0.63 1.84,-0.94 0.64,-0.3 1.19,-0.64 1.83,-0.94 0.34,-0.16 1.65,-0.77 1.84,-0.94 -0.07,-0.13 -0.2,-0.21 -0.31,-0.33 -0.66,-0.75 -0.84,-1.14 -1.19,-2.09 -0.15,-0.4 -0.14,-0.7 -0.24,-1.1 -0.17,0.01 -0.36,0.11 -0.51,0.18 -0.62,0.3 -0.38,0.12 -0.6,0.91 -0.25,0.9 -0.78,1.72 -1.45,2.3 -0.58,0.52 -1.06,0.77 -2,0.98 -1.15,0.26 -3.01,0.23 -4.27,0.23 -0.71,0 -0.65,0.06 -1.2,0.33 -0.67,0.33 -1.36,0.64 -2.02,1 -0.64,0.35 -1.34,0.66 -1.99,1 -0.34,0.17 -0.66,0.35 -1,0.51 -0.18,0.09 -0.91,0.41 -0.97,0.52z"/>
  <path class="fil8" d="M154.92 21.66c0.09,-0.05 0.22,-0.26 0.3,-0.36l0.31 -0.32c0.76,-0.73 1.32,-1.13 2.64,-1.23 0.84,-0.07 1.54,0.06 2.22,0.35 2.23,0.96 1.9,3.65 1.9,5.81 0.01,1.09 0.06,4.32 0,5.15 -0.2,0.1 -0.74,0.04 -0.99,0.04 -0.14,0 -0.88,0.04 -0.94,-0.06 -0.05,-0.27 -0.01,-1.16 -0.01,-1.51 0,-0.5 0,-1.01 0,-1.51 0,-1.03 -0.01,-2.05 -0.01,-3.07 0,-0.86 0.04,-2.06 -0.38,-2.69 -0.42,-0.63 -1.19,-0.92 -2.23,-0.85 -2.02,0.15 -2.62,1.75 -2.63,3.54 0,1.02 0,2.04 0,3.07 0,0.48 0.03,2.76 -0.01,3.04 -0.18,0.09 -1.68,0.07 -1.94,0.02 -0.05,-0.86 0,-1.89 0,-2.77l0.01 -8.19c0,-0.01 0.01,-0.03 0.01,-0.04 0.05,-0.2 1.66,-0.09 1.71,-0.07 0.11,0.25 0.02,1.27 0.04,1.65zm0.55 -1.36l-0.01 -0.78 -2.82 0 -0.01 12.07 3 0.01c0.07,-0.9 0,-4.67 0.01,-5.9 0,-0.81 0.01,-1.96 0.32,-2.6 0.29,-0.58 0.91,-1.12 1.77,-1.18 2.42,-0.17 2.16,1.73 2.16,3.74 0,0.98 0,1.96 0,2.95 0,0.96 -0.05,2.02 -0.01,2.97l2.93 0.02c0.05,-0.82 0,-1.75 0,-2.57 0,-0.87 0,-1.74 0,-2.61 0.02,-3.01 0.54,-6.44 -3.26,-7.1 -0.75,-0.13 -1.67,-0.11 -2.39,0.1 -1.22,0.35 -1.44,0.8 -1.69,0.88z"/>
  <path class="fil5" d="M125.82 31.11l1.89 0c0.08,-0.3 0.03,-7.21 0.02,-7.68 -0.01,-2.55 0.06,-5.16 0.01,-7.7l-1.96 -0.02c-0.05,1.25 0.01,2.59 0,3.85 -0.01,1.6 -0.04,11.33 0.04,11.55z"/>
  <path class="fil4" d="M167.01 20c-0.53,-0.03 -1.1,0.01 -1.63,0 -0.21,-0.01 -0.26,-0.04 -0.29,0.11l0.01 10.99 1.94 0.01c0.04,-0.9 -0.01,-1.89 0,-2.8 0,-1 0.06,-7.92 -0.03,-8.31z"/>
  <path class="fil6" d="M115.79 25.57c-0.05,1.17 0.32,2.36 0.93,2.94 0.14,0.14 0.35,0.3 0.55,0.42 0.37,0.22 0.33,0.18 0.68,-0.01l2.56 -1.31c0.69,-0.38 0.62,-0.27 0.75,-1.18 0.14,-0.98 0.02,-2.66 -0.46,-3.33 -0.27,0.08 -4.67,2.3 -5.01,2.47z"/>
  <path class="fil2" d="M145.4 19.75c1.84,-0.15 3.62,0.7 4.43,1.77 0.83,1.1 1.21,2.05 1.26,3.55 0.07,1.93 -0.26,3.17 -1.15,4.41 -0.34,0.47 -1.01,0.96 -1.52,1.26 -0.58,0.33 -1.35,0.55 -2.12,0.62 -1.42,0.13 -3.24,-0.42 -4.11,-1.39 -0.24,-0.26 -0.39,-0.36 -0.65,-0.74 -0.61,-0.93 -0.85,-2.04 -0.93,-3.19 -0.11,-1.71 0.25,-3.37 1.13,-4.42 0.92,-1.1 2.14,-1.75 3.66,-1.87zm-0.26 -0.46c-1.64,0.27 -2.9,0.77 -3.9,2.13 -1.31,1.79 -1.48,5.05 -0.56,7.28 0.59,1.41 1.76,2.38 3.16,2.85 2.32,0.78 5.05,0.14 6.6,-1.86 0.95,-1.22 1.26,-2.92 1.15,-4.87 -0.16,-2.68 -1.49,-4.46 -3.74,-5.27 -0.75,-0.26 -1.87,-0.41 -2.71,-0.26z"/>
  <path class="fil2" d="M97.81 40.58c0.18,-0.07 1.12,-0.05 1.36,-0.03 0.41,0.03 0.7,0.2 0.72,0.63 0.02,0.5 -0.26,0.65 -0.72,0.67 -0.36,0.03 -1,0.04 -1.36,0l0 -1.27zm-1.07 0.01c0,0.38 -0.03,4.13 0.04,4.23 0.04,0.05 0.06,0.06 0.2,0.07l0.81 0c0.03,-0.31 0.01,-0.77 0.01,-1.1 0,-0.18 0,-0.36 0,-0.55 0,-0.08 0,-0.17 0,-0.25 0,-0.2 -0.01,-0.4 0.65,-0.24 0.55,0.13 1.13,1.39 1.57,2 0.14,0.2 0.3,0.14 0.58,0.14 0.25,-0.01 0.51,0.01 0.75,-0.01 -0.02,-0.15 -0.07,-0.17 -0.16,-0.29l-0.57 -0.95c-0.64,-1.01 -0.64,-0.67 -0.95,-1.03 0.01,0 0.03,-0.02 0.03,-0.01l0.26 -0.08c1.33,-0.34 1.34,-2.31 0.12,-2.72 -0.6,-0.2 -2.22,-0.11 -3.02,-0.12 -0.17,-0.01 -0.27,-0.05 -0.31,0.08 -0.01,0.05 -0.01,0.73 -0.01,0.83z"/>
  <path class="fil8" d="M118.19 29.23c0.06,-0.15 0.41,-0.3 0.58,-0.38 0.49,-0.24 1.64,-0.91 2.03,-1.01 -0.11,0.37 -0.64,0.82 -0.97,1.02 -0.46,0.28 -0.96,0.44 -1.64,0.37zm-2.4 -3.66c0.34,-0.17 4.74,-2.39 5.01,-2.47 0.48,0.67 0.6,2.35 0.46,3.33 -0.13,0.91 -0.06,0.8 -0.75,1.18l-2.56 1.31c-0.35,0.19 -0.31,0.23 -0.68,0.01 -0.2,-0.12 -0.41,-0.28 -0.55,-0.42 -0.61,-0.58 -0.98,-1.77 -0.93,-2.94zm0.04 -0.44c0.02,-0.51 0.04,-0.85 0.18,-1.3 0.12,-0.34 0.35,-0.79 0.53,-0.99 0.25,-0.26 0.44,-0.48 0.83,-0.69 0.39,-0.21 0.68,-0.32 1.19,-0.32 0.72,0 1.73,0.55 1.94,0.97 -0.12,0.11 -4.49,2.3 -4.67,2.33zm2.65 4.6c2.31,-0.01 3.29,-1.97 3.29,-4.07 0,-0.89 -0.05,-1.67 -0.37,-2.41 -1.27,-2.89 -5.63,-2.56 -6.03,1.28 -0.15,1.4 -0.08,3.42 1.08,4.42 0.46,0.4 1.19,0.79 2.03,0.78z"/>
  <path class="fil10" d="M167.01 20c0.09,0.39 0.03,7.31 0.03,8.31 -0.01,0.91 0.04,1.9 0,2.8l-1.94 -0.01 -0.01 -10.99c0.03,-0.15 0.08,-0.12 0.29,-0.11 0.53,0.01 1.1,-0.03 1.63,0zm-2.41 11.57c0.32,0.06 2.61,0.06 2.96,0.01l0 -12.07 -2.94 -0.01 -0.02 12.07z"/>
  <path class="fil11" d="M132.2 40.54c0.99,-0.2 1.63,0.5 1.68,1.4 0.04,0.82 -0.07,1.86 -1.03,2.08 -2.06,0.48 -2.3,-3.15 -0.65,-3.48zm-0.04 -0.93c-1.63,0.26 -2.24,1.49 -2.11,3.04 0.14,1.66 1.3,2.51 2.84,2.29 1.54,-0.22 2.21,-1.34 2.09,-3.04 -0.1,-1.42 -1.25,-2.53 -2.82,-2.29z"/>
  <path class="fil8" d="M135.82 40.68c0,0.67 -0.05,3.97 0.02,4.18 0.49,0.02 3.68,0.08 3.89,-0.01 0.07,-0.16 0.06,-0.64 0.01,-0.82 -0.17,-0.06 -2.33,-0.02 -2.83,-0.03l-0.02 -1.38 2.57 -0.02 0.01 -0.88 -1.77 0c-0.78,0 -0.82,0.09 -0.82,-0.37l0 -0.78c0.31,-0.1 2.67,0.05 2.76,-0.06 0.06,-0.13 0.03,-0.38 0.03,-0.55 0,-0.39 -0.05,-0.28 -1.08,-0.28l-2.65 0c-0.18,0.03 -0.13,0.02 -0.13,0.24 0,0.24 0,0.51 0.01,0.76z"/>
  <path class="fil8" d="M141.4 43.08l-0.98 0.18c-0.04,0.17 0.08,0.54 0.15,0.69 0.69,1.41 2.84,1.17 3.54,0.53 0.32,-0.3 0.6,-0.87 0.45,-1.49 -0.27,-1.16 -1.36,-1.17 -2.47,-1.52 -0.75,-0.23 -0.61,-0.86 0.1,-0.97 0.95,-0.15 1.06,0.28 1.22,0.73l1.02 -0.04c0.13,-0.53 -0.42,-1.13 -0.68,-1.3 -0.63,-0.42 -2.32,-0.54 -2.96,0.43 -0.3,0.47 -0.25,1.15 0.07,1.58 0.29,0.38 0.69,0.54 1.27,0.71 0.47,0.13 1.28,0.2 1.39,0.62 0.21,0.73 -1.15,1.22 -1.8,0.54 -0.24,-0.26 -0.19,-0.4 -0.32,-0.69z"/>
  <path class="fil11" d="M126.68 44.97c-0.07,0.12 -0.14,0.15 -0.17,0.35 0.38,0.04 0.78,-0.14 0.88,0.28 -0.17,0.43 -0.76,0.34 -1.25,0.3l-0.01 0.39c1.6,0.39 2.33,-0.68 1.57,-1.2 -0.17,-0.12 -0.05,0.03 -0.13,-0.12 0.38,-0.16 0.59,-0.04 1.16,-0.56 0.22,-0.2 0.59,-0.69 0.6,-1.12 -0.15,-0.1 -0.86,-0.31 -1.05,-0.3 -0.14,0.66 -0.59,1.28 -1.45,1.03 -0.66,-0.2 -0.88,-0.87 -0.88,-1.66 -0.02,-2.35 1.7,-2.07 2.15,-1.41 0.12,0.18 0.1,0.28 0.18,0.43 0.17,-0.01 0.92,-0.18 1.04,-0.25 -0.02,-0.33 -0.4,-0.89 -0.58,-1.04 -1.05,-0.86 -2.66,-0.63 -3.45,0.5 -0.63,0.89 -0.86,3.6 1.08,4.27l0.31 0.11z"/>
  <path class="fil2" d="M121.2 42.8c-0.01,-0.13 0.38,-1.11 0.48,-1.4 0.06,-0.18 0.06,-0.35 0.23,-0.44 0.06,0.39 0.6,1.55 0.62,1.86l-1.33 -0.02zm-1.87 2.07l1.08 0.02c0.18,-0.33 0.29,-0.87 0.46,-1.18l2.04 -0.02c0.52,1.37 0.05,1.2 1.55,1.19 -0.01,-0.14 -1.95,-5.03 -2.06,-5.2l-1.01 0c-0.15,0.04 -0.13,0.13 -0.2,0.31l-0.8 2.09c-0.14,0.35 -1.04,2.61 -1.06,2.79z"/>
  <path class="fil2" d="M94.27 42.81c-0.24,0.04 -0.72,0 -0.99,0.01 -0.52,0 -0.36,-0.04 -0.21,-0.46 0.07,-0.22 0.47,-1.34 0.55,-1.42l0.65 1.87zm-3.17 2.06l1.05 0.02c0.17,-0.32 0.27,-0.88 0.46,-1.18l2.03 -0.02c0.13,0.34 0.27,0.94 0.47,1.17l1.07 0.02c0,-0.12 -1.37,-3.57 -1.61,-4.18 -0.1,-0.24 -0.21,-0.43 -0.29,-0.68 -0.16,-0.43 -0.1,-0.35 -0.62,-0.34 -0.45,0 -0.55,-0.12 -0.7,0.25 -0.32,0.76 -1.87,4.8 -1.86,4.94z"/>
  <path class="fil11" d="M148.55 26.17c-0.12,0.73 -0.24,1.74 -0.92,2.31 -0.59,0.5 -1.28,0.9 -2.35,0.67 -2.74,-0.6 -2.58,-5.23 -1.23,-6.56 1.34,-1.32 3.39,-0.79 4.12,0.77 0.33,0.72 0.53,1.88 0.38,2.81zm-5.92 0.04c0.09,1.16 0.39,2 1.07,2.67 1.2,1.19 3.68,1.28 4.87,-0.81 0.46,-0.8 0.58,-2.17 0.5,-3.21 -0.34,-4.27 -4.62,-4.37 -5.97,-1.88 -0.45,0.82 -0.54,2.17 -0.47,3.23z"/>
  <path class="fil2" d="M116.63 40.55c0.31,-0.02 0.99,-0.03 1.27,0.04 0.35,0.09 0.54,0.32 0.54,0.72 0.01,0.83 -1.1,0.75 -1.82,0.72l0.01 -1.48zm-1.02 4.31c0.07,0.02 0.85,0.08 0.98,-0.02l0.03 -1.93c0.82,-0.05 1.61,0.12 2.25,-0.28 0.5,-0.31 0.8,-0.97 0.6,-1.81 -0.15,-0.68 -0.63,-1.06 -1.41,-1.12 -0.54,-0.04 -1.96,-0.08 -2.46,-0.01 -0.07,0.18 -0.04,3.3 -0.03,3.89 0,0.34 -0.07,1.04 0.04,1.28z"/>
  <path class="fil11" d="M88.34 40.58c0.02,-0.01 1.82,-0.39 1.83,0.73 0,0.68 -0.72,0.71 -1.22,0.72 -0.16,0 -0.46,0.04 -0.61,-0.04 -0.04,-0.2 -0.06,-1.23 0,-1.41zm-1 4.28l0.97 0.03c0.08,-0.45 -0.08,-1.66 0.04,-1.95 0.14,-0.16 1.46,0.16 2.2,-0.28 0.51,-0.31 0.84,-0.97 0.64,-1.83 -0.16,-0.71 -0.58,-1.06 -1.4,-1.13 -0.59,-0.05 -1.88,-0.07 -2.46,-0.01 -0.1,0.22 -0.03,3.73 -0.04,4.52 0,0.11 -0.01,0.23 -0.01,0.34 0,0.22 -0.01,0.21 0.06,0.31z"/>
  <path class="fil11" d="M112.64 43.27l-0.99 -0.31c-0.09,0.35 -0.21,0.69 -0.43,0.85 -0.71,0.55 -1.91,0.27 -1.94,-1.36 -0.01,-0.81 0.12,-1.55 0.72,-1.84 0.31,-0.14 0.75,-0.17 1.06,0 0.4,0.23 0.36,0.33 0.55,0.75l1.02 -0.21c-0.07,-0.57 -0.5,-1.06 -0.87,-1.28 -1.16,-0.67 -3.55,-0.32 -3.57,2.45 -0.02,3.49 4.18,3.27 4.45,0.95z"/>
  <path class="fil12" d="M18.32 53.92c-0.13,-0.21 -0.27,-0.33 -0.43,-0.53 -0.31,-0.38 -1.59,-2.3 -1.88,-2.83 -0.84,-1.56 -1.13,-1.91 -1.84,-3.8 -0.19,-0.51 -0.83,-2.35 -0.91,-2.89 0.02,0.03 0.06,0.04 0.1,0.07 -0.19,-0.54 -0.46,-1.05 -0.67,-1.63 -0.41,-1.12 -0.7,-2.47 -0.86,-3.65l-0.15 -2.01c-0.09,-0.16 0.03,-0.02 -0.13,-0.14 -0.02,0.97 -0.12,2.05 -0.01,3.01 0.19,1.72 0.2,2.32 0.63,3.96 0.51,2 1.16,3.62 2.18,5.43 0.93,1.65 2.09,3.17 3.41,4.52 0.07,0.06 0.05,0.05 0.11,0.11 0.11,0.1 0.34,0.32 0.45,0.38z"/>
  <path class="fil2" d="M105.99 28.01l-3.6 0 -0.01 -3.05c0.25,-0.07 2.22,-0.04 2.76,-0.04 1.19,0 2.46,0.1 2.71,1.19 0.12,0.53 -0.01,1.14 -0.33,1.47 -0.29,0.3 -0.98,0.43 -1.53,0.43zm-4.08 -3.57c-0.09,0.36 -0.04,3.48 -0.02,4.06l4.26 -0.02c1.4,-0.07 2.24,-0.62 2.22,-2.06 -0.04,-1.49 -1.09,-1.84 -2.28,-1.96 -0.59,-0.05 -3.75,-0.13 -4.18,-0.02z"/>
  <path class="fil11" d="M101.62 40.55c0.34,0.02 1.21,-0.06 1.48,0.03 0.11,0.65 -0.09,3.89 0.04,4.29l0.99 0.02c0.1,-0.43 -0.08,-4.54 0.06,-4.32l1.08 -0.02c0.44,0.01 0.41,0.02 0.41,-0.42 0,-0.09 0.02,-0.37 -0.04,-0.42 -0.13,-0.06 -3.62,-0.06 -4.02,-0.02 -0.07,0.19 -0.05,0.64 0,0.86z"/>
  <path class="fil0" d="M132.2 40.54c-1.65,0.33 -1.41,3.96 0.65,3.48 0.96,-0.22 1.07,-1.26 1.03,-2.08 -0.05,-0.9 -0.69,-1.6 -1.68,-1.4z"/>
  <path class="fil8" d="M102.39 18.83c0.37,-0.09 2.6,-0.04 3.09,-0.02 0.48,0.03 0.94,0 1.32,0.23 0.63,0.37 0.77,1.5 0,2.05 -0.33,0.24 -0.84,0.25 -1.32,0.25 -0.59,0 -2.67,0.08 -3.1,-0.03l0.01 -2.48zm-0.49 -0.53c-0.08,0.5 -0.02,1.78 -0.01,2.35 0.02,1.46 -0.28,1.17 1.19,1.17 0.79,0.01 1.57,0 2.36,0 1.13,-0.01 1.96,-0.15 2.28,-1.24 0.26,-0.86 -0.06,-1.94 -1.21,-2.18 -0.63,-0.13 -3.87,-0.15 -4.61,-0.1z"/>
  <path class="fil1" d="M123.35 21.83c0.06,0.28 0.47,0.78 0.68,1.69 0.17,0.77 0.16,1.36 0.21,2.15 0.04,-0.01 0.93,-0.42 1.04,-0.48 0.05,-0.23 0.05,-4.11 -0.01,-4.3 -0.18,0.02 -1.75,0.82 -1.92,0.94z"/>
  <path class="fil13" d="M106.34 44.86l1.02 0.02c0.06,-0.35 0.02,-3.67 0.02,-4.54l-0.03 -0.61c-0.01,-0.01 -0.01,-0.02 -0.02,-0.03l-0.99 -0.02c-0.06,0.19 -0.06,4.91 0,5.18z"/>
  <path class="fil13" d="M113.55 44.86l1 0.02c0.07,-0.27 0.02,-3.94 0.02,-4.88 0,-0.09 0.01,-0.22 -0.05,-0.3l-0.98 -0.02c-0.07,0.23 -0.03,3.97 -0.03,4.87l0.04 0.31z"/>
  <path class="fil8" d="M165.09 15.72l1.95 0 -0.01 2.25 -1.93 -0.03 -0.01 -1.79 0 -0.43zm2.43 2.7c0,-0.01 0.01,-0.03 0.01,-0.03l0.03 -3.16 -2.96 -0.01 0 3.12c0.03,0.18 0.17,0.11 0.62,0.11 0.41,0 2.15,0.03 2.3,-0.03z"/>
  <polygon class="fil5" points="165.09,16.15 165.1,17.94 167.03,17.97 167.04,15.72 165.09,15.72 "/>
  <path class="fil14" d="M97.81 41.85c0.36,0.04 1,0.03 1.36,0 0.46,-0.02 0.74,-0.17 0.72,-0.67 -0.02,-0.43 -0.31,-0.6 -0.72,-0.63 -0.24,-0.02 -1.18,-0.04 -1.36,0.03l0 1.27z"/>
  <path class="fil15" d="M88.34 40.58c-0.06,0.18 -0.04,1.21 0,1.41 0.15,0.08 0.45,0.04 0.61,0.04 0.5,-0.01 1.22,-0.04 1.22,-0.72 -0.01,-1.12 -1.81,-0.74 -1.83,-0.73z"/>
  <path class="fil16" d="M116.62 42.03c0.72,0.03 1.83,0.11 1.82,-0.72 0,-0.4 -0.19,-0.63 -0.54,-0.72 -0.28,-0.07 -0.96,-0.06 -1.27,-0.04l-0.01 1.48z"/>
  <path class="fil10" d="M131.37 39.23l0.43 0.05c0.13,-0.2 0.06,-0.44 0.49,-0.3 0.21,0.06 0.38,0.18 0.6,0.24 0.6,0.17 0.92,-0.23 0.86,-0.81l-0.44 -0.02c-0.19,0.63 -0.47,0.11 -1.08,0.01 -0.59,-0.11 -0.93,0.26 -0.86,0.83z"/>
  <path class="fil16" d="M121.2 42.8l1.33 0.02c-0.02,-0.31 -0.56,-1.47 -0.62,-1.86 -0.17,0.09 -0.17,0.26 -0.23,0.44 -0.1,0.29 -0.49,1.27 -0.48,1.4z"/>
  <path class="fil17" d="M94.27 42.81l-0.65 -1.87c-0.08,0.08 -0.48,1.2 -0.55,1.42 -0.15,0.42 -0.31,0.46 0.21,0.46 0.27,-0.01 0.75,0.03 0.99,-0.01z"/>
 </g>
</svg>
